SplineFontDB: 3.0
FontName: ElaineSans-Medium
FullName: Elaine Sans Medium
FamilyName: Elaine Sans Medium
Weight: Medium
Copyright: Copyright (c) 2015 by Wei Huang. All rights reserved.
Version: 1.030;PS 001.030;hotconv 1.0.70;makeotf.lib2.5.58329
ItalicAngle: 0
UnderlinePosition: -250
UnderlineWidth: 50
Ascent: 760
Descent: 240
InvalidEm: 0
sfntRevision: 0x000107ae
LayerCount: 2
Layer: 0 1 "Back" 1
Layer: 1 1 "Fore" 0
XUID: [1021 288 1899785369 5201]
StyleMap: 0x0040
FSType: 4
OS2Version: 3
OS2_WeightWidthSlopeOnly: 0
OS2_UseTypoMetrics: 0
CreationTime: 1436215488
ModificationTime: 1543785348
PfmFamily: 81
TTFWeight: 500
TTFWidth: 5
LineGap: 0
VLineGap: 0
Panose: 0 0 6 0 0 0 0 0 0 0
OS2TypoAscent: 760
OS2TypoAOffset: 0
OS2TypoDescent: -240
OS2TypoDOffset: 0
OS2TypoLinegap: 173
OS2WinAscent: 930
OS2WinAOffset: 0
OS2WinDescent: 243
OS2WinDOffset: 0
HheadAscent: 930
HheadAOffset: 0
HheadDescent: -243
HheadDOffset: 0
OS2SubXSize: 650
OS2SubYSize: 600
OS2SubXOff: 0
OS2SubYOff: 75
OS2SupXSize: 650
OS2SupYSize: 600
OS2SupXOff: 0
OS2SupYOff: 350
OS2StrikeYSize: 50
OS2StrikeYPos: 300
OS2CapHeight: 660
OS2XHeight: 500
OS2Vendor: 'UKWN'
OS2CodePages: 20000093.00000000
OS2UnicodeRanges: 00000007.00000001.00000000.00000000
Lookup: 1 0 0 "'aalt' Access All Alternates lookup 0" { "'aalt' Access All Alternates lookup 0 subtable"  } ['aalt' ('DFLT' <'dflt' > 'grek' <'dflt' > 'latn' <'CAT ' 'MOL ' 'NLD ' 'ROM ' 'TRK ' 'dflt' > ) ]
Lookup: 3 0 0 "'aalt' Access All Alternates lookup 1" { "'aalt' Access All Alternates lookup 1 subtable"  } ['aalt' ('DFLT' <'dflt' > 'grek' <'dflt' > 'latn' <'CAT ' 'MOL ' 'NLD ' 'ROM ' 'TRK ' 'dflt' > ) ]
Lookup: 1 0 0 "'locl' Localized Forms in Latin lookup 2" { "'locl' Localized Forms in Latin lookup 2 subtable"  } ['locl' ('latn' <'TRK ' > ) ]
Lookup: 1 0 0 "'locl' Localized Forms in Latin lookup 3" { "'locl' Localized Forms in Latin lookup 3 subtable"  } ['locl' ('latn' <'TAT ' > ) ]

StartChar: .notdef
Encoding: 65536 -1 0
Width: 500
Flags: W
LayerCount: 2
Fore
SplineSet
50 0 m 1,0,-1
 50 660 l 1,1,-1
 450 660 l 1,2,-1
 450 0 l 1,3,-1
 50 0 l 1,0,-1
130 80 m 1,4,-1
 370 80 l 1,5,-1
 370 580 l 1,6,-1
 130 580 l 1,7,-1
 130 80 l 1,4,-1
EndSplineSet
EndChar

StartChar: exclam
Encoding: 33 33 4
Width: 281
GlyphClass: 2
Flags: W
LayerCount: 2
Fore
SplineSet
196 660 m 1,0,-1
 196 396 l 1,1,-1
 182 210 l 1,2,-1
 98 210 l 1,3,-1
 84 396 l 1,4,-1
 84 660 l 1,5,-1
 196 660 l 1,0,-1
140 132 m 128,-1,7
 174 132 174 132 194.5 112.5 c 128,-1,8
 215 93 215 93 215 61 c 128,-1,9
 215 29 215 29 195 10 c 128,-1,10
 175 -9 175 -9 140 -9 c 0,11,12
 106 -9 106 -9 86 10 c 128,-1,13
 66 29 66 29 66 61 c 128,-1,14
 66 93 66 93 86 112.5 c 128,-1,6
 106 132 106 132 140 132 c 128,-1,7
EndSplineSet
Substitution2: "'smcp' Lowercase to Small Capitals lookup 12 subtable" exclam.sc
Substitution2: "'c2sc' Capitals to Small Capitals lookup 11 subtable" exclam.sc
Substitution2: "'aalt' Access All Alternates lookup 0 subtable" exclam.sc
EndChar

StartChar: quotedbl
Encoding: 34 34 5
Width: 416
GlyphClass: 2
Flags: W
LayerCount: 2
Fore
SplineSet
181 686 m 1,0,-1
 154 430 l 1,1,-1
 76 430 l 1,2,-1
 76 686 l 1,3,-1
 181 686 l 1,0,-1
358 686 m 1,4,-1
 331 430 l 1,5,-1
 254 430 l 1,6,-1
 254 686 l 1,7,-1
 358 686 l 1,4,-1
EndSplineSet
Substitution2: "'smcp' Lowercase to Small Capitals lookup 12 subtable" quotedbl.sc
Substitution2: "'c2sc' Capitals to Small Capitals lookup 11 subtable" quotedbl.sc
Substitution2: "'aalt' Access All Alternates lookup 0 subtable" quotedbl.sc
EndChar

StartChar: numbersign
Encoding: 35 35 6
Width: 604
GlyphClass: 2
Flags: W
LayerCount: 2
Fore
SplineSet
586 412 m 1,0,-1
 472 412 l 1,1,-1
 448 252 l 1,2,-1
 541 252 l 1,3,-1
 541 179 l 1,4,-1
 437 179 l 1,5,-1
 410 0 l 1,6,-1
 331 0 l 1,7,-1
 358 179 l 1,8,-1
 210 179 l 1,9,-1
 183 0 l 1,10,-1
 104 0 l 1,11,-1
 131 179 l 1,12,-1
 18 179 l 1,13,-1
 18 252 l 1,14,-1
 143 252 l 1,15,-1
 167 412 l 1,16,-1
 63 412 l 1,17,-1
 63 485 l 1,18,-1
 178 485 l 1,19,-1
 204 660 l 1,20,-1
 283 660 l 1,21,-1
 256 485 l 1,22,-1
 404 485 l 1,23,-1
 431 660 l 1,24,-1
 509 660 l 1,25,-1
 483 485 l 1,26,-1
 586 485 l 1,27,-1
 586 412 l 1,0,-1
369 252 m 1,28,-1
 393 412 l 1,29,-1
 245 412 l 1,30,-1
 221 252 l 1,31,-1
 369 252 l 1,28,-1
EndSplineSet
Substitution2: "'tnum' Tabular Numbers lookup 26 subtable" numbersign.tf
Substitution2: "'aalt' Access All Alternates lookup 0 subtable" numbersign.tf
EndChar

StartChar: dollar
Encoding: 36 36 7
Width: 604
GlyphClass: 2
Flags: W
LayerCount: 2
Fore
SplineSet
352 363 m 1,0,1
 399 353 399 353 429 343 c 128,-1,2
 459 333 459 333 492.5 313.5 c 128,-1,3
 526 294 526 294 543 262 c 128,-1,4
 560 230 560 230 560 186 c 0,5,6
 560 108 560 108 503.5 59 c 128,-1,7
 447 10 447 10 352 2 c 1,8,-1
 352 -96 l 1,9,-1
 275 -96 l 1,10,-1
 275 2 l 1,11,12
 102 15 102 15 42 158 c 1,13,-1
 121 214 l 1,14,15
 133 164 133 164 176 129.5 c 128,-1,16
 219 95 219 95 275 84 c 1,17,-1
 275 292 l 1,18,19
 238 300 238 300 213.5 307 c 128,-1,20
 189 314 189 314 159 327.5 c 128,-1,21
 129 341 129 341 111 358 c 128,-1,22
 93 375 93 375 80.5 403 c 128,-1,23
 68 431 68 431 68 466 c 0,24,25
 68 543 68 543 123.5 596 c 128,-1,26
 179 649 179 649 275 658 c 1,27,-1
 275 756 l 1,28,-1
 352 756 l 1,29,-1
 352 658 l 1,30,31
 427 651 427 651 475 619.5 c 128,-1,32
 523 588 523 588 561 526 c 1,33,-1
 490 461 l 1,34,35
 466 515 466 515 433.5 541.5 c 128,-1,36
 401 568 401 568 352 575 c 1,37,-1
 352 363 l 1,0,1
164 473 m 0,38,39
 164 435 164 435 192.5 414.5 c 128,-1,40
 221 394 221 394 275 380 c 1,41,-1
 275 575 l 1,42,43
 220 568 220 568 192 542 c 128,-1,44
 164 516 164 516 164 473 c 0,38,39
352 83 m 1,45,46
 464 94 464 94 464 179 c 0,47,48
 464 219 464 219 435 240 c 128,-1,49
 406 261 406 261 352 275 c 1,50,-1
 352 83 l 1,45,46
EndSplineSet
Substitution2: "'tnum' Tabular Numbers lookup 26 subtable" dollar.tf
Substitution2: "'aalt' Access All Alternates lookup 0 subtable" dollar.tf
EndChar

StartChar: percent
Encoding: 37 37 8
Width: 880
GlyphClass: 2
Flags: W
LayerCount: 2
Fore
SplineSet
204 670 m 128,-1,1
 280 670 280 670 325.5 619.5 c 128,-1,2
 371 569 371 569 371 486 c 128,-1,3
 371 403 371 403 325.5 352.5 c 128,-1,4
 280 302 280 302 204 302 c 128,-1,5
 128 302 128 302 82.5 352.5 c 128,-1,6
 37 403 37 403 37 486 c 128,-1,7
 37 569 37 569 82.5 619.5 c 128,-1,0
 128 670 128 670 204 670 c 128,-1,1
178 0 m 1,8,-1
 610 660 l 1,9,-1
 702 660 l 1,10,-1
 271 0 l 1,11,-1
 178 0 l 1,8,-1
204 592 m 0,12,13
 166 592 166 592 145.5 564.5 c 128,-1,14
 125 537 125 537 125 486 c 0,15,16
 125 436 125 436 145.5 408.5 c 128,-1,17
 166 381 166 381 204 381 c 0,18,19
 243 381 243 381 263.5 408.5 c 128,-1,20
 284 436 284 436 284 486 c 0,21,22
 284 537 284 537 263.5 564.5 c 128,-1,23
 243 592 243 592 204 592 c 0,12,13
676 358 m 128,-1,25
 752 358 752 358 797.5 307.5 c 128,-1,26
 843 257 843 257 843 174 c 128,-1,27
 843 91 843 91 797.5 40.5 c 128,-1,28
 752 -10 752 -10 676 -10 c 128,-1,29
 600 -10 600 -10 554.5 40.5 c 128,-1,30
 509 91 509 91 509 174 c 128,-1,31
 509 257 509 257 554.5 307.5 c 128,-1,24
 600 358 600 358 676 358 c 128,-1,25
676 279 m 0,32,33
 638 279 638 279 617.5 251.5 c 128,-1,34
 597 224 597 224 597 174 c 0,35,36
 597 123 597 123 617.5 95.5 c 128,-1,37
 638 68 638 68 676 68 c 0,38,39
 715 68 715 68 735.5 95.5 c 128,-1,40
 756 123 756 123 756 174 c 0,41,42
 756 224 756 224 735.5 251.5 c 128,-1,43
 715 279 715 279 676 279 c 0,32,33
EndSplineSet
EndChar

StartChar: ampersand
Encoding: 38 38 9
Width: 630
GlyphClass: 2
Flags: W
LayerCount: 2
Fore
SplineSet
632 68 m 1,0,-1
 613 -10 l 1,1,2
 568 -10 568 -10 534 4.5 c 128,-1,3
 500 19 500 19 453 62 c 1,4,5
 374 -10 374 -10 258 -10 c 0,6,7
 162 -10 162 -10 101.5 38 c 128,-1,8
 41 86 41 86 41 164 c 0,9,10
 41 287 41 287 193 359 c 1,11,12
 151 412 151 412 135 446 c 128,-1,13
 119 480 119 480 119 517 c 0,14,15
 119 579 119 579 163.5 624.5 c 128,-1,16
 208 670 208 670 288 670 c 0,17,18
 362 670 362 670 408 633.5 c 128,-1,19
 454 597 454 597 454 528 c 0,20,21
 454 470 454 470 425 427 c 128,-1,22
 396 384 396 384 320 344 c 1,23,24
 361 293 361 293 381 270 c 0,25,26
 436 204 436 204 458 179 c 1,27,28
 499 252 499 252 493 350 c 1,29,-1
 572 344 l 1,30,31
 577 217 577 217 508 124 c 1,32,33
 544 89 544 89 570 77.5 c 128,-1,34
 596 66 596 66 632 68 c 1,0,-1
288 589 m 0,35,36
 253 589 253 589 234 568.5 c 128,-1,37
 215 548 215 548 215 516 c 0,38,39
 215 491 215 491 226.5 468 c 128,-1,40
 238 445 238 445 276 397 c 1,41,42
 330 429 330 429 347 458 c 128,-1,43
 364 487 364 487 364 524 c 0,44,45
 364 589 364 589 288 589 c 0,35,36
137 171 m 0,46,47
 137 127 137 127 173 98 c 128,-1,48
 209 69 209 69 261 69 c 0,49,50
 341 69 341 69 402 115 c 1,51,52
 356 164 356 164 318 210 c 0,53,54
 257 282 257 282 240 302 c 1,55,56
 179 265 179 265 158 236 c 128,-1,57
 137 207 137 207 137 171 c 0,46,47
EndSplineSet
Substitution2: "'smcp' Lowercase to Small Capitals lookup 12 subtable" ampersand.sc
Substitution2: "'c2sc' Capitals to Small Capitals lookup 11 subtable" ampersand.sc
Substitution2: "'aalt' Access All Alternates lookup 0 subtable" ampersand.sc
EndChar

StartChar: quotesingle
Encoding: 39 39 10
Width: 239
GlyphClass: 2
Flags: W
LayerCount: 2
Fore
SplineSet
181 686 m 1,0,-1
 154 430 l 1,1,-1
 76 430 l 1,2,-1
 76 686 l 1,3,-1
 181 686 l 1,0,-1
EndSplineSet
Substitution2: "'smcp' Lowercase to Small Capitals lookup 12 subtable" quotesingle.sc
Substitution2: "'c2sc' Capitals to Small Capitals lookup 11 subtable" quotesingle.sc
Substitution2: "'aalt' Access All Alternates lookup 0 subtable" quotesingle.sc
EndChar

StartChar: parenleft
Encoding: 40 40 11
Width: 362
GlyphClass: 2
Flags: W
LayerCount: 2
Fore
SplineSet
283 747 m 1,0,-1
 339 691 l 1,1,2
 245 605 245 605 205.5 510 c 128,-1,3
 166 415 166 415 166 278 c 128,-1,4
 166 141 166 141 205.5 46.5 c 128,-1,5
 245 -48 245 -48 339 -134 c 1,6,-1
 283 -190 l 1,7,8
 63 -12 63 -12 63 278 c 0,9,10
 63 569 63 569 283 747 c 1,0,-1
EndSplineSet
Substitution2: "'case' Case-Sensitive Forms lookup 29 subtable" parenleft.case
Substitution2: "'sups' Superscript lookup 15 subtable" uni207D
Substitution2: "'subs' Subscript lookup 14 subtable" uni208D
Substitution2: "'sinf' Scientific Inferiors lookup 13 subtable" uni208D
AlternateSubs2: "'aalt' Access All Alternates lookup 1 subtable" uni208D uni207D parenleft.case
EndChar

StartChar: parenright
Encoding: 41 41 12
Width: 362
GlyphClass: 2
Flags: W
LayerCount: 2
Fore
SplineSet
80 747 m 1,0,1
 299 569 299 569 299 278 c 0,2,3
 299 -12 299 -12 80 -190 c 1,4,-1
 23 -134 l 1,5,6
 117 -49 117 -49 156.5 46 c 128,-1,7
 196 141 196 141 196 278 c 128,-1,8
 196 415 196 415 156.5 510.5 c 128,-1,9
 117 606 117 606 23 691 c 1,10,-1
 80 747 l 1,0,1
EndSplineSet
Substitution2: "'case' Case-Sensitive Forms lookup 29 subtable" parenright.case
Substitution2: "'sups' Superscript lookup 15 subtable" uni207E
Substitution2: "'subs' Subscript lookup 14 subtable" uni208E
Substitution2: "'sinf' Scientific Inferiors lookup 13 subtable" uni208E
AlternateSubs2: "'aalt' Access All Alternates lookup 1 subtable" uni208E uni207E parenright.case
EndChar

StartChar: asterisk
Encoding: 42 42 13
Width: 577
GlyphClass: 2
Flags: W
LayerCount: 2
Fore
SplineSet
336 475 m 1,0,-1
 388 423 l 1,1,-1
 462 321 l 1,2,-1
 396 273 l 1,3,-1
 322 375 l 1,4,-1
 288 440 l 1,5,-1
 254 375 l 1,6,-1
 181 273 l 1,7,-1
 115 321 l 1,8,-1
 189 423 l 1,9,-1
 240 475 l 1,10,-1
 168 488 l 1,11,-1
 49 526 l 1,12,-1
 73 603 l 1,13,-1
 193 564 l 1,14,-1
 259 532 l 1,15,-1
 248 604 l 1,16,-1
 247 730 l 1,17,-1
 330 730 l 1,18,-1
 329 604 l 1,19,-1
 318 532 l 1,20,-1
 384 564 l 1,21,-1
 504 603 l 1,22,-1
 528 526 l 1,23,-1
 409 488 l 1,24,-1
 336 475 l 1,0,-1
EndSplineSet
EndChar

StartChar: plus
Encoding: 43 43 14
Width: 604
GlyphClass: 2
Flags: W
LayerCount: 2
Fore
SplineSet
548 364 m 1,0,-1
 548 275 l 1,1,-1
 349 275 l 1,2,-1
 349 66 l 1,3,-1
 256 66 l 1,4,-1
 256 275 l 1,5,-1
 56 275 l 1,6,-1
 56 364 l 1,7,-1
 256 364 l 1,8,-1
 256 572 l 1,9,-1
 349 572 l 1,10,-1
 349 364 l 1,11,-1
 548 364 l 1,0,-1
EndSplineSet
Substitution2: "'sups' Superscript lookup 15 subtable" uni207A
Substitution2: "'subs' Subscript lookup 14 subtable" uni208A
Substitution2: "'sinf' Scientific Inferiors lookup 13 subtable" uni208A
AlternateSubs2: "'aalt' Access All Alternates lookup 1 subtable" uni208A uni207A
EndChar

StartChar: comma
Encoding: 44 44 15
Width: 303
GlyphClass: 2
Flags: W
LayerCount: 2
Fore
SplineSet
152 135 m 0,0,1
 192 135 192 135 214.5 105.5 c 128,-1,2
 237 76 237 76 237 29 c 0,3,4
 237 -28 237 -28 207 -75.5 c 128,-1,5
 177 -123 177 -123 119 -150 c 1,6,-1
 67 -106 l 1,7,8
 108 -92 108 -92 136 -64.5 c 128,-1,9
 164 -37 164 -37 173 -3 c 1,10,-1
 169 -1 l 1,11,12
 159 -9 159 -9 140 -9 c 0,13,14
 115 -9 115 -9 95.5 9.5 c 128,-1,15
 76 28 76 28 76 61 c 0,16,17
 76 93 76 93 98 114 c 128,-1,18
 120 135 120 135 152 135 c 0,0,1
EndSplineSet
Substitution2: "'tnum' Tabular Numbers lookup 26 subtable" comma.tf
Substitution2: "'sups' Superscript lookup 15 subtable" commasuperior
Substitution2: "'subs' Subscript lookup 14 subtable" commainferior
Substitution2: "'sinf' Scientific Inferiors lookup 13 subtable" commainferior
AlternateSubs2: "'aalt' Access All Alternates lookup 1 subtable" commainferior commasuperior comma.tf
EndChar

StartChar: hyphen
Encoding: 45 45 16
Width: 515
GlyphClass: 2
Flags: W
LayerCount: 2
Fore
SplineSet
428 313 m 1,0,-1
 428 214 l 1,1,-1
 87 214 l 1,2,-1
 87 313 l 1,3,-1
 428 313 l 1,0,-1
EndSplineSet
Substitution2: "'case' Case-Sensitive Forms lookup 29 subtable" hyphen.case
Substitution2: "'sups' Superscript lookup 15 subtable" hyphensuperior
Substitution2: "'subs' Subscript lookup 14 subtable" hypheninferior
Substitution2: "'sinf' Scientific Inferiors lookup 13 subtable" hypheninferior
AlternateSubs2: "'aalt' Access All Alternates lookup 1 subtable" hypheninferior hyphensuperior hyphen.case
EndChar

StartChar: period
Encoding: 46 46 17
Width: 302
GlyphClass: 2
Flags: W
LayerCount: 2
Fore
SplineSet
151 135 m 128,-1,1
 185 135 185 135 205.5 115.5 c 128,-1,2
 226 96 226 96 226 63 c 128,-1,3
 226 30 226 30 205.5 10 c 128,-1,4
 185 -10 185 -10 151 -10 c 128,-1,5
 117 -10 117 -10 96.5 10 c 128,-1,6
 76 30 76 30 76 63 c 128,-1,7
 76 96 76 96 96.5 115.5 c 128,-1,0
 117 135 117 135 151 135 c 128,-1,1
EndSplineSet
Substitution2: "'tnum' Tabular Numbers lookup 26 subtable" period.tf
Substitution2: "'sups' Superscript lookup 15 subtable" periodsuperior
Substitution2: "'subs' Subscript lookup 14 subtable" periodinferior
Substitution2: "'sinf' Scientific Inferiors lookup 13 subtable" periodinferior
AlternateSubs2: "'aalt' Access All Alternates lookup 1 subtable" periodinferior periodsuperior period.tf
EndChar

StartChar: slash
Encoding: 47 47 18
Width: 447
GlyphClass: 2
Flags: W
LayerCount: 2
Fore
SplineSet
422 725 m 1,0,-1
 124 -70 l 1,1,-1
 24 -70 l 1,2,-1
 322 725 l 1,3,-1
 422 725 l 1,0,-1
EndSplineSet
Substitution2: "'frac' Diagonal Fractions lookup 18 subtable" fraction
Substitution2: "'aalt' Access All Alternates lookup 0 subtable" fraction
EndChar

StartChar: zero
Encoding: 48 48 19
Width: 604
GlyphClass: 2
Flags: W
LayerCount: 2
Fore
SplineSet
302 -10 m 128,-1,1
 178 -10 178 -10 114 76.5 c 128,-1,2
 50 163 50 163 50 330 c 128,-1,3
 50 497 50 497 114 583.5 c 128,-1,4
 178 670 178 670 302 670 c 128,-1,5
 426 670 426 670 490 583.5 c 128,-1,6
 554 497 554 497 554 330 c 128,-1,7
 554 163 554 163 490 76.5 c 128,-1,0
 426 -10 426 -10 302 -10 c 128,-1,1
302 81 m 128,-1,9
 445 81 445 81 445 330 c 128,-1,10
 445 579 445 579 302 579 c 128,-1,11
 159 579 159 579 159 330 c 128,-1,8
 159 81 159 81 302 81 c 128,-1,9
EndSplineSet
Substitution2: "'zero' Slashed Zero lookup 28 subtable" zero.zero
Substitution2: "'onum' Oldstyle Figures lookup 27 subtable" zero.osf
Substitution2: "'tnum' Tabular Numbers lookup 26 subtable" zero.tf
Substitution2: "'frac' Diagonal Fractions lookup 19 subtable" zero.numr
Substitution2: "'dnom' Denominators lookup 17 subtable" zero.dnom
Substitution2: "'numr' Numerators lookup 16 subtable" zero.numr
Substitution2: "'sups' Superscript lookup 15 subtable" uni2070
Substitution2: "'subs' Subscript lookup 14 subtable" uni2080
Substitution2: "'sinf' Scientific Inferiors lookup 13 subtable" uni2080
Substitution2: "'smcp' Lowercase to Small Capitals lookup 12 subtable" zero.sc
Substitution2: "'c2sc' Capitals to Small Capitals lookup 11 subtable" zero.sc
AlternateSubs2: "'aalt' Access All Alternates lookup 1 subtable" zero.sc uni2080 uni2070 zero.numr zero.dnom zero.tf zero.osf zero.zero
EndChar

StartChar: one
Encoding: 49 49 20
Width: 604
GlyphClass: 2
Flags: W
LayerCount: 2
Fore
SplineSet
395 89 m 1,0,-1
 567 89 l 1,1,-1
 567 0 l 1,2,-1
 99 0 l 1,3,-1
 99 89 l 1,4,-1
 292 89 l 1,5,-1
 292 488 l 2,6,7
 292 505 292 505 294 547 c 1,8,9
 212 473 212 473 109 452 c 1,10,-1
 89 543 l 1,11,12
 133 549 133 549 206 587 c 128,-1,13
 279 625 279 625 305 660 c 1,14,-1
 395 660 l 1,15,-1
 395 89 l 1,0,-1
EndSplineSet
Substitution2: "'onum' Oldstyle Figures lookup 27 subtable" one.osf
Substitution2: "'tnum' Tabular Numbers lookup 26 subtable" one.tf
Substitution2: "'nalt' Alternate Annotation Forms lookup 23 subtable" uni2780
Substitution2: "'frac' Diagonal Fractions lookup 19 subtable" one.numr
Substitution2: "'dnom' Denominators lookup 17 subtable" one.dnom
Substitution2: "'numr' Numerators lookup 16 subtable" one.numr
Substitution2: "'sups' Superscript lookup 15 subtable" uni00B9
Substitution2: "'subs' Subscript lookup 14 subtable" uni2081
Substitution2: "'sinf' Scientific Inferiors lookup 13 subtable" uni2081
Substitution2: "'smcp' Lowercase to Small Capitals lookup 12 subtable" one.sc
Substitution2: "'c2sc' Capitals to Small Capitals lookup 11 subtable" one.sc
AlternateSubs2: "'aalt' Access All Alternates lookup 1 subtable" one.sc uni2081 uni00B9 one.numr one.dnom uni2780 one.tf one.osf
EndChar

StartChar: two
Encoding: 50 50 21
Width: 604
GlyphClass: 2
Flags: W
LayerCount: 2
Fore
SplineSet
75 0 m 1,0,-1
 75 79 l 1,1,2
 266 214 266 214 339 295 c 128,-1,3
 412 376 412 376 412 458 c 0,4,5
 412 511 412 511 378.5 544 c 128,-1,6
 345 577 345 577 288 577 c 0,7,8
 226 577 226 577 189 536 c 128,-1,9
 152 495 152 495 147 422 c 1,10,-1
 54 465 l 1,11,12
 64 560 64 560 127 615 c 128,-1,13
 190 670 190 670 293 670 c 0,14,15
 400 670 400 670 461 611 c 128,-1,16
 522 552 522 552 522 462 c 0,17,18
 522 367 522 367 451.5 281 c 128,-1,19
 381 195 381 195 217 90 c 1,20,-1
 217 88 l 1,21,22
 269 92 269 92 327 92 c 2,23,-1
 535 92 l 1,24,-1
 535 0 l 1,25,-1
 75 0 l 1,0,-1
EndSplineSet
Substitution2: "'onum' Oldstyle Figures lookup 27 subtable" two.osf
Substitution2: "'tnum' Tabular Numbers lookup 26 subtable" two.tf
Substitution2: "'nalt' Alternate Annotation Forms lookup 23 subtable" uni2781
Substitution2: "'frac' Diagonal Fractions lookup 19 subtable" two.numr
Substitution2: "'dnom' Denominators lookup 17 subtable" two.dnom
Substitution2: "'numr' Numerators lookup 16 subtable" two.numr
Substitution2: "'sups' Superscript lookup 15 subtable" uni00B2
Substitution2: "'subs' Subscript lookup 14 subtable" uni2082
Substitution2: "'sinf' Scientific Inferiors lookup 13 subtable" uni2082
Substitution2: "'smcp' Lowercase to Small Capitals lookup 12 subtable" two.sc
Substitution2: "'c2sc' Capitals to Small Capitals lookup 11 subtable" two.sc
AlternateSubs2: "'aalt' Access All Alternates lookup 1 subtable" two.sc uni2082 uni00B2 two.numr two.dnom uni2781 two.tf two.osf
EndChar

StartChar: three
Encoding: 51 51 22
Width: 604
GlyphClass: 2
Flags: W
LayerCount: 2
Fore
SplineSet
307 670 m 0,0,1
 408 670 408 670 464.5 620 c 128,-1,2
 521 570 521 570 521 494 c 0,3,4
 521 424 521 424 482.5 379 c 128,-1,5
 444 334 444 334 397 334 c 1,6,-1
 397 332 l 1,7,8
 455 332 455 332 495.5 289.5 c 128,-1,9
 536 247 536 247 536 178 c 0,10,11
 536 96 536 96 469.5 43 c 128,-1,12
 403 -10 403 -10 297 -10 c 0,13,14
 118 -10 118 -10 60 150 c 1,15,-1
 161 199 l 1,16,17
 174 140 174 140 206 111 c 128,-1,18
 238 82 238 82 300 82 c 0,19,20
 360 82 360 82 394.5 112.5 c 128,-1,21
 429 143 429 143 428 192 c 0,22,23
 427 245 427 245 394.5 267 c 128,-1,24
 362 289 362 289 293 289 c 2,25,-1
 263 289 l 1,26,-1
 263 374 l 1,27,-1
 290 374 l 2,28,29
 412 374 412 374 413 473 c 0,30,31
 414 524 414 524 385.5 551 c 128,-1,32
 357 578 357 578 305 578 c 0,33,34
 198 578 198 578 179 480 c 1,35,-1
 82 520 l 1,36,37
 103 592 103 592 163.5 631 c 128,-1,38
 224 670 224 670 307 670 c 0,0,1
EndSplineSet
Substitution2: "'onum' Oldstyle Figures lookup 27 subtable" three.osf
Substitution2: "'tnum' Tabular Numbers lookup 26 subtable" three.tf
Substitution2: "'nalt' Alternate Annotation Forms lookup 23 subtable" uni2782
Substitution2: "'frac' Diagonal Fractions lookup 19 subtable" three.numr
Substitution2: "'dnom' Denominators lookup 17 subtable" three.dnom
Substitution2: "'numr' Numerators lookup 16 subtable" three.numr
Substitution2: "'sups' Superscript lookup 15 subtable" uni00B3
Substitution2: "'subs' Subscript lookup 14 subtable" uni2083
Substitution2: "'sinf' Scientific Inferiors lookup 13 subtable" uni2083
Substitution2: "'smcp' Lowercase to Small Capitals lookup 12 subtable" three.sc
Substitution2: "'c2sc' Capitals to Small Capitals lookup 11 subtable" three.sc
AlternateSubs2: "'aalt' Access All Alternates lookup 1 subtable" three.sc uni2083 uni00B3 three.numr three.dnom uni2782 three.tf three.osf
EndChar

StartChar: four
Encoding: 52 52 23
Width: 604
GlyphClass: 2
Flags: W
LayerCount: 2
Fore
SplineSet
348 0 m 1,0,-1
 348 162 l 1,1,-1
 37 162 l 1,2,-1
 37 230 l 1,3,-1
 315 660 l 1,4,-1
 449 660 l 1,5,-1
 449 248 l 1,6,-1
 571 248 l 1,7,-1
 571 162 l 1,8,-1
 449 162 l 1,9,-1
 449 0 l 1,10,-1
 348 0 l 1,0,-1
139 248 m 1,11,-1
 350 248 l 1,12,-1
 350 436 l 2,13,14
 350 504 350 504 353 576 c 1,15,-1
 351 576 l 1,16,17
 332 535 332 535 295 478 c 2,18,-1
 139 248 l 1,11,-1
EndSplineSet
Substitution2: "'onum' Oldstyle Figures lookup 27 subtable" four.osf
Substitution2: "'tnum' Tabular Numbers lookup 26 subtable" four.tf
Substitution2: "'nalt' Alternate Annotation Forms lookup 23 subtable" uni2783
Substitution2: "'frac' Diagonal Fractions lookup 19 subtable" four.numr
Substitution2: "'dnom' Denominators lookup 17 subtable" four.dnom
Substitution2: "'numr' Numerators lookup 16 subtable" four.numr
Substitution2: "'sups' Superscript lookup 15 subtable" uni2074
Substitution2: "'subs' Subscript lookup 14 subtable" uni2084
Substitution2: "'sinf' Scientific Inferiors lookup 13 subtable" uni2084
Substitution2: "'smcp' Lowercase to Small Capitals lookup 12 subtable" four.sc
Substitution2: "'c2sc' Capitals to Small Capitals lookup 11 subtable" four.sc
AlternateSubs2: "'aalt' Access All Alternates lookup 1 subtable" four.sc uni2084 uni2074 four.numr four.dnom uni2783 four.tf four.osf
EndChar

StartChar: five
Encoding: 53 53 24
Width: 604
GlyphClass: 2
Flags: W
LayerCount: 2
Fore
SplineSet
332 424 m 0,0,1
 427 424 427 424 483 366.5 c 128,-1,2
 539 309 539 309 539 215 c 0,3,4
 539 108 539 108 475.5 49 c 128,-1,5
 412 -10 412 -10 304 -10 c 0,6,7
 133 -10 133 -10 66 135 c 1,8,-1
 166 190 l 1,9,10
 181 136 181 136 211 108.5 c 128,-1,11
 241 81 241 81 302 81 c 0,12,13
 364 81 364 81 399.5 115 c 128,-1,14
 435 149 435 149 435 209 c 0,15,16
 434 271 434 271 401 303.5 c 128,-1,17
 368 336 368 336 306 336 c 0,18,19
 213 336 213 336 172 279 c 1,20,-1
 83 285 l 1,21,-1
 124 660 l 1,22,-1
 507 660 l 1,23,-1
 507 568 l 1,24,-1
 209 568 l 1,25,-1
 186 385 l 2,26,27
 186 382 186 382 185 377 c 128,-1,28
 184 372 184 372 184 371 c 2,29,-1
 185 371 l 1,30,31
 235 424 235 424 332 424 c 0,0,1
EndSplineSet
Substitution2: "'onum' Oldstyle Figures lookup 27 subtable" five.osf
Substitution2: "'tnum' Tabular Numbers lookup 26 subtable" five.tf
Substitution2: "'nalt' Alternate Annotation Forms lookup 23 subtable" uni2784
Substitution2: "'frac' Diagonal Fractions lookup 19 subtable" five.numr
Substitution2: "'dnom' Denominators lookup 17 subtable" five.dnom
Substitution2: "'numr' Numerators lookup 16 subtable" five.numr
Substitution2: "'sups' Superscript lookup 15 subtable" uni2075
Substitution2: "'subs' Subscript lookup 14 subtable" uni2085
Substitution2: "'sinf' Scientific Inferiors lookup 13 subtable" uni2085
Substitution2: "'smcp' Lowercase to Small Capitals lookup 12 subtable" five.sc
Substitution2: "'c2sc' Capitals to Small Capitals lookup 11 subtable" five.sc
AlternateSubs2: "'aalt' Access All Alternates lookup 1 subtable" five.sc uni2085 uni2075 five.numr five.dnom uni2784 five.tf five.osf
EndChar

StartChar: six
Encoding: 54 54 25
Width: 604
GlyphClass: 2
Flags: W
LayerCount: 2
Fore
SplineSet
330 670 m 0,0,1
 410 670 410 670 463 636.5 c 128,-1,2
 516 603 516 603 546 529 c 1,3,-1
 452 484 l 1,4,5
 423 577 423 577 323 577 c 0,6,7
 252 577 252 577 207.5 505 c 128,-1,8
 163 433 163 433 163 323 c 2,9,-1
 163 305 l 1,10,-1
 167 305 l 1,11,12
 183 359 183 359 233 387.5 c 128,-1,13
 283 416 283 416 342 416 c 0,14,15
 440 416 440 416 499.5 358.5 c 128,-1,16
 559 301 559 301 559 205 c 0,17,18
 559 106 559 106 496.5 48 c 128,-1,19
 434 -10 434 -10 327 -10 c 0,20,21
 201 -10 201 -10 133 82 c 128,-1,22
 65 174 65 174 65 330 c 0,23,24
 65 493 65 493 139 581.5 c 128,-1,25
 213 670 213 670 330 670 c 0,0,1
325 327 m 0,26,27
 267 327 267 327 232 293.5 c 128,-1,28
 197 260 197 260 197 206 c 0,29,30
 197 150 197 150 232 116 c 128,-1,31
 267 82 267 82 325 82 c 0,32,33
 386 82 386 82 419.5 114.5 c 128,-1,34
 453 147 453 147 453 206 c 0,35,36
 453 263 453 263 419 295 c 128,-1,37
 385 327 385 327 325 327 c 0,26,27
EndSplineSet
Substitution2: "'onum' Oldstyle Figures lookup 27 subtable" six.osf
Substitution2: "'tnum' Tabular Numbers lookup 26 subtable" six.tf
Substitution2: "'nalt' Alternate Annotation Forms lookup 23 subtable" uni2785
Substitution2: "'frac' Diagonal Fractions lookup 19 subtable" six.numr
Substitution2: "'dnom' Denominators lookup 17 subtable" six.dnom
Substitution2: "'numr' Numerators lookup 16 subtable" six.numr
Substitution2: "'sups' Superscript lookup 15 subtable" uni2076
Substitution2: "'subs' Subscript lookup 14 subtable" uni2086
Substitution2: "'sinf' Scientific Inferiors lookup 13 subtable" uni2086
Substitution2: "'smcp' Lowercase to Small Capitals lookup 12 subtable" six.sc
Substitution2: "'c2sc' Capitals to Small Capitals lookup 11 subtable" six.sc
AlternateSubs2: "'aalt' Access All Alternates lookup 1 subtable" six.sc uni2086 uni2076 six.numr six.dnom uni2785 six.tf six.osf
EndChar

StartChar: seven
Encoding: 55 55 26
Width: 604
GlyphClass: 2
Flags: W
LayerCount: 2
Fore
SplineSet
48 660 m 1,0,-1
 565 660 l 1,1,-1
 565 571 l 1,2,3
 439 441 439 441 381.5 305.5 c 128,-1,4
 324 170 324 170 324 0 c 1,5,-1
 215 0 l 1,6,7
 215 321 215 321 456 567 c 1,8,-1
 48 567 l 1,9,-1
 48 660 l 1,0,-1
EndSplineSet
Substitution2: "'onum' Oldstyle Figures lookup 27 subtable" seven.osf
Substitution2: "'tnum' Tabular Numbers lookup 26 subtable" seven.tf
Substitution2: "'nalt' Alternate Annotation Forms lookup 23 subtable" uni2786
Substitution2: "'frac' Diagonal Fractions lookup 19 subtable" seven.numr
Substitution2: "'dnom' Denominators lookup 17 subtable" seven.dnom
Substitution2: "'numr' Numerators lookup 16 subtable" seven.numr
Substitution2: "'sups' Superscript lookup 15 subtable" uni2077
Substitution2: "'subs' Subscript lookup 14 subtable" uni2087
Substitution2: "'sinf' Scientific Inferiors lookup 13 subtable" uni2087
Substitution2: "'smcp' Lowercase to Small Capitals lookup 12 subtable" seven.sc
Substitution2: "'c2sc' Capitals to Small Capitals lookup 11 subtable" seven.sc
AlternateSubs2: "'aalt' Access All Alternates lookup 1 subtable" seven.sc uni2087 uni2077 seven.numr seven.dnom uni2786 seven.tf seven.osf
EndChar

StartChar: eight
Encoding: 56 56 27
Width: 604
GlyphClass: 2
Flags: W
LayerCount: 2
Fore
SplineSet
302 669 m 128,-1,1
 400 669 400 669 458 621 c 128,-1,2
 516 573 516 573 516 492 c 0,3,4
 516 442 516 442 491 403.5 c 128,-1,5
 466 365 466 365 422 345 c 1,6,-1
 422 344 l 1,7,8
 478 323 478 323 510 280.5 c 128,-1,9
 542 238 542 238 542 179 c 0,10,11
 542 92 542 92 477 41 c 128,-1,12
 412 -10 412 -10 302 -10 c 128,-1,13
 192 -10 192 -10 127 41 c 128,-1,14
 62 92 62 92 62 179 c 0,15,16
 62 237 62 237 94 280 c 128,-1,17
 126 323 126 323 183 344 c 1,18,-1
 183 345 l 1,19,20
 139 364 139 364 113.5 402.5 c 128,-1,21
 88 441 88 441 88 492 c 0,22,23
 88 573 88 573 146 621 c 128,-1,0
 204 669 204 669 302 669 c 128,-1,1
302 579 m 128,-1,25
 251 579 251 579 221.5 553.5 c 128,-1,26
 192 528 192 528 192 482 c 0,27,28
 192 437 192 437 222 411.5 c 128,-1,29
 252 386 252 386 302 386 c 128,-1,30
 352 386 352 386 382 411.5 c 128,-1,31
 412 437 412 437 412 482 c 0,32,33
 412 528 412 528 382.5 553.5 c 128,-1,24
 353 579 353 579 302 579 c 128,-1,25
302 80 m 128,-1,35
 364 80 364 80 400 109 c 128,-1,36
 436 138 436 138 436 189 c 128,-1,37
 436 240 436 240 400 269.5 c 128,-1,38
 364 299 364 299 302 299 c 0,39,40
 241 299 241 299 204.5 269.5 c 128,-1,41
 168 240 168 240 168 189 c 128,-1,42
 168 138 168 138 204 109 c 128,-1,34
 240 80 240 80 302 80 c 128,-1,35
EndSplineSet
Substitution2: "'onum' Oldstyle Figures lookup 27 subtable" eight.osf
Substitution2: "'tnum' Tabular Numbers lookup 26 subtable" eight.tf
Substitution2: "'nalt' Alternate Annotation Forms lookup 23 subtable" uni2787
Substitution2: "'frac' Diagonal Fractions lookup 19 subtable" eight.numr
Substitution2: "'dnom' Denominators lookup 17 subtable" eight.dnom
Substitution2: "'numr' Numerators lookup 16 subtable" eight.numr
Substitution2: "'sups' Superscript lookup 15 subtable" uni2078
Substitution2: "'subs' Subscript lookup 14 subtable" uni2088
Substitution2: "'sinf' Scientific Inferiors lookup 13 subtable" uni2088
Substitution2: "'smcp' Lowercase to Small Capitals lookup 12 subtable" eight.sc
Substitution2: "'c2sc' Capitals to Small Capitals lookup 11 subtable" eight.sc
AlternateSubs2: "'aalt' Access All Alternates lookup 1 subtable" eight.sc uni2088 uni2078 eight.numr eight.dnom uni2787 eight.tf eight.osf
EndChar

StartChar: nine
Encoding: 57 57 28
Width: 604
GlyphClass: 2
Flags: W
LayerCount: 2
Fore
SplineSet
285 670 m 0,0,1
 409 670 409 670 477 578.5 c 128,-1,2
 545 487 545 487 545 329 c 0,3,4
 545 161 545 161 479 75.5 c 128,-1,5
 413 -10 413 -10 285 -10 c 0,6,7
 109 -10 109 -10 52 138 c 1,8,-1
 154 185 l 1,9,10
 169 133 169 133 197.5 107.5 c 128,-1,11
 226 82 226 82 287 82 c 0,12,13
 374 82 374 82 411.5 148.5 c 128,-1,14
 449 215 449 215 449 342 c 2,15,-1
 449 353 l 1,16,-1
 445 353 l 1,17,18
 430 294 430 294 382 267.5 c 128,-1,19
 334 241 334 241 270 240 c 0,20,21
 172 239 172 239 111.5 297 c 128,-1,22
 51 355 51 355 51 453 c 0,23,24
 51 553 51 553 114 611.5 c 128,-1,25
 177 670 177 670 285 670 c 0,0,1
285 576 m 0,26,27
 224 576 224 576 190.5 543.5 c 128,-1,28
 157 511 157 511 157 452 c 0,29,30
 157 395 157 395 191 363 c 128,-1,31
 225 331 225 331 285 331 c 0,32,33
 343 331 343 331 378.5 364.5 c 128,-1,34
 414 398 414 398 414 452 c 0,35,36
 414 508 414 508 379 542 c 128,-1,37
 344 576 344 576 285 576 c 0,26,27
EndSplineSet
Substitution2: "'onum' Oldstyle Figures lookup 27 subtable" nine.osf
Substitution2: "'tnum' Tabular Numbers lookup 26 subtable" nine.tf
Substitution2: "'nalt' Alternate Annotation Forms lookup 23 subtable" uni2788
Substitution2: "'frac' Diagonal Fractions lookup 19 subtable" nine.numr
Substitution2: "'dnom' Denominators lookup 17 subtable" nine.dnom
Substitution2: "'numr' Numerators lookup 16 subtable" nine.numr
Substitution2: "'sups' Superscript lookup 15 subtable" uni2079
Substitution2: "'subs' Subscript lookup 14 subtable" uni2089
Substitution2: "'sinf' Scientific Inferiors lookup 13 subtable" uni2089
Substitution2: "'smcp' Lowercase to Small Capitals lookup 12 subtable" nine.sc
Substitution2: "'c2sc' Capitals to Small Capitals lookup 11 subtable" nine.sc
AlternateSubs2: "'aalt' Access All Alternates lookup 1 subtable" nine.sc uni2089 uni2079 nine.numr nine.dnom uni2788 nine.tf nine.osf
EndChar

StartChar: colon
Encoding: 58 58 29
Width: 302
GlyphClass: 2
Flags: W
LayerCount: 2
Fore
SplineSet
151 510 m 128,-1,1
 186 510 186 510 206 490.5 c 128,-1,2
 226 471 226 471 226 437 c 0,3,4
 226 404 226 404 205.5 384.5 c 128,-1,5
 185 365 185 365 151 365 c 128,-1,6
 117 365 117 365 96.5 384.5 c 128,-1,7
 76 404 76 404 76 437 c 0,8,9
 76 471 76 471 96 490.5 c 128,-1,0
 116 510 116 510 151 510 c 128,-1,1
151 135 m 128,-1,11
 185 135 185 135 205.5 115.5 c 128,-1,12
 226 96 226 96 226 63 c 128,-1,13
 226 30 226 30 205.5 10 c 128,-1,14
 185 -10 185 -10 151 -10 c 128,-1,15
 117 -10 117 -10 96.5 10 c 128,-1,16
 76 30 76 30 76 63 c 128,-1,17
 76 96 76 96 96.5 115.5 c 128,-1,10
 117 135 117 135 151 135 c 128,-1,11
EndSplineSet
Substitution2: "'tnum' Tabular Numbers lookup 26 subtable" colon.tf
Substitution2: "'sups' Superscript lookup 15 subtable" colonsuperior
Substitution2: "'subs' Subscript lookup 14 subtable" coloninferior
Substitution2: "'sinf' Scientific Inferiors lookup 13 subtable" coloninferior
AlternateSubs2: "'aalt' Access All Alternates lookup 1 subtable" coloninferior colonsuperior colon.tf
EndChar

StartChar: semicolon
Encoding: 59 59 30
Width: 302
GlyphClass: 2
Flags: W
LayerCount: 2
Fore
SplineSet
155 365 m 0,0,1
 121 365 121 365 100.5 384.5 c 128,-1,2
 80 404 80 404 80 437 c 0,3,4
 80 471 80 471 100 490.5 c 128,-1,5
 120 510 120 510 155 510 c 128,-1,6
 190 510 190 510 210.5 490.5 c 128,-1,7
 231 471 231 471 231 437 c 0,8,9
 231 404 231 404 210.5 384.5 c 128,-1,10
 190 365 190 365 155 365 c 0,0,1
151 135 m 0,11,12
 191 135 191 135 213.5 105.5 c 128,-1,13
 236 76 236 76 236 29 c 0,14,15
 236 -28 236 -28 206 -75.5 c 128,-1,16
 176 -123 176 -123 118 -150 c 1,17,-1
 66 -106 l 1,18,19
 108 -92 108 -92 136 -64.5 c 128,-1,20
 164 -37 164 -37 172 -3 c 1,21,-1
 168 -1 l 1,22,23
 158 -9 158 -9 139 -9 c 0,24,25
 115 -9 115 -9 95.5 9.5 c 128,-1,26
 76 28 76 28 76 61 c 0,27,28
 76 93 76 93 97.5 114 c 128,-1,29
 119 135 119 135 151 135 c 0,11,12
EndSplineSet
Substitution2: "'tnum' Tabular Numbers lookup 26 subtable" semicolon.tf
Substitution2: "'aalt' Access All Alternates lookup 0 subtable" semicolon.tf
EndChar

StartChar: less
Encoding: 60 60 31
Width: 604
GlyphClass: 2
Flags: W
LayerCount: 2
Fore
SplineSet
549 576 m 1,0,-1
 549 470 l 1,1,-1
 147 299 l 1,2,-1
 549 128 l 1,3,-1
 549 21 l 1,4,-1
 68 244 l 1,5,-1
 68 353 l 1,6,-1
 549 576 l 1,0,-1
EndSplineSet
EndChar

StartChar: equal
Encoding: 61 61 32
Width: 604
GlyphClass: 2
Flags: W
LayerCount: 2
Fore
SplineSet
540 454 m 1,0,-1
 540 366 l 1,1,-1
 64 366 l 1,2,-1
 64 454 l 1,3,-1
 540 454 l 1,0,-1
540 249 m 1,4,-1
 540 161 l 1,5,-1
 64 161 l 1,6,-1
 64 249 l 1,7,-1
 540 249 l 1,4,-1
EndSplineSet
Substitution2: "'sups' Superscript lookup 15 subtable" uni207C
Substitution2: "'subs' Subscript lookup 14 subtable" uni208C
Substitution2: "'sinf' Scientific Inferiors lookup 13 subtable" uni208C
AlternateSubs2: "'aalt' Access All Alternates lookup 1 subtable" uni208C uni207C
EndChar

StartChar: greater
Encoding: 62 62 33
Width: 604
GlyphClass: 2
Flags: W
LayerCount: 2
Fore
SplineSet
55 576 m 1,0,-1
 536 353 l 1,1,-1
 536 244 l 1,2,-1
 55 21 l 1,3,-1
 55 128 l 1,4,-1
 457 299 l 1,5,-1
 55 470 l 1,6,-1
 55 576 l 1,0,-1
EndSplineSet
EndChar

StartChar: question
Encoding: 63 63 34
Width: 562
GlyphClass: 2
Flags: W
LayerCount: 2
Fore
SplineSet
283 670 m 0,0,1
 387 670 387 670 450.5 624.5 c 128,-1,2
 514 579 514 579 514 497 c 0,3,4
 514 412 514 412 462 366 c 128,-1,5
 410 320 410 320 325 311 c 1,6,-1
 322 210 l 1,7,-1
 220 210 l 1,8,-1
 218 361 l 1,9,10
 316 373 316 373 358 401.5 c 128,-1,11
 400 430 400 430 400 482 c 0,12,13
 400 526 400 526 368.5 551 c 128,-1,14
 337 576 337 576 276 576 c 0,15,16
 216 576 216 576 179 543 c 128,-1,17
 142 510 142 510 136 451 c 1,18,-1
 37 498 l 1,19,20
 53 576 53 576 116.5 623 c 128,-1,21
 180 670 180 670 283 670 c 0,0,1
271 133 m 128,-1,23
 305 133 305 133 325 113.5 c 128,-1,24
 345 94 345 94 345 62 c 0,25,26
 345 29 345 29 325 10 c 128,-1,27
 305 -9 305 -9 271 -9 c 0,28,29
 236 -9 236 -9 216 10 c 128,-1,30
 196 29 196 29 196 62 c 0,31,32
 196 94 196 94 216.5 113.5 c 128,-1,22
 237 133 237 133 271 133 c 128,-1,23
EndSplineSet
Substitution2: "'smcp' Lowercase to Small Capitals lookup 12 subtable" question.sc
Substitution2: "'c2sc' Capitals to Small Capitals lookup 11 subtable" question.sc
Substitution2: "'aalt' Access All Alternates lookup 0 subtable" question.sc
EndChar

StartChar: at
Encoding: 64 64 35
Width: 973
GlyphClass: 2
Flags: W
LayerCount: 2
Fore
SplineSet
503 660 m 0,0,1
 699 660 699 660 804 549.5 c 128,-1,2
 909 439 909 439 909 260 c 0,3,4
 909 136 909 136 855.5 66.5 c 128,-1,5
 802 -3 802 -3 717 -3 c 0,6,7
 621 -3 621 -3 594 86 c 1,8,9
 538 1 538 1 424 1 c 0,10,11
 351 1 351 1 303.5 55 c 128,-1,12
 256 109 256 109 256 199 c 0,13,14
 256 323 256 323 324.5 394.5 c 128,-1,15
 393 466 393 466 487 466 c 0,16,17
 594 466 594 466 626 382 c 1,18,-1
 646 459 l 1,19,-1
 719 459 l 1,20,-1
 678 155 l 2,21,22
 666 61 666 61 737 61 c 0,23,24
 787 61 787 61 814.5 111.5 c 128,-1,25
 842 162 842 162 842 260 c 0,26,27
 842 415 842 415 754 505.5 c 128,-1,28
 666 596 666 596 503 596 c 0,29,30
 332 596 332 596 232.5 495.5 c 128,-1,31
 133 395 133 395 133 223 c 0,32,33
 133 62 133 62 231 -33 c 128,-1,34
 329 -128 329 -128 476 -128 c 0,35,36
 553 -128 553 -128 599.5 -112 c 128,-1,37
 646 -96 646 -96 688 -66 c 1,38,-1
 725 -116 l 1,39,40
 672 -153 672 -153 617.5 -172.5 c 128,-1,41
 563 -192 563 -192 475 -192 c 0,42,43
 289 -192 289 -192 175 -79 c 128,-1,44
 61 34 61 34 61 223 c 0,45,46
 61 418 61 418 183 539 c 128,-1,47
 305 660 305 660 503 660 c 0,0,1
498 391 m 0,48,49
 431 391 431 391 390.5 342.5 c 128,-1,50
 350 294 350 294 350 208 c 0,51,52
 350 146 350 146 378 111.5 c 128,-1,53
 406 77 406 77 457 77 c 128,-1,54
 508 77 508 77 547 109.5 c 128,-1,55
 586 142 586 142 593 202 c 2,56,-1
 601 261 l 2,57,58
 617 391 617 391 498 391 c 0,48,49
EndSplineSet
Substitution2: "'case' Case-Sensitive Forms lookup 29 subtable" at.case
Substitution2: "'aalt' Access All Alternates lookup 0 subtable" at.case
EndChar

StartChar: A
Encoding: 65 65 36
Width: 665
GlyphClass: 2
Flags: W
LayerCount: 2
Fore
SplineSet
533 0 m 1,0,-1
 471 173 l 1,1,-1
 193 173 l 1,2,-1
 130 0 l 1,3,-1
 20 0 l 1,4,-1
 269 660 l 1,5,-1
 397 660 l 1,6,-1
 646 0 l 1,7,-1
 533 0 l 1,0,-1
224 260 m 1,8,-1
 439 260 l 1,9,-1
 363 472 l 1,10,-1
 333 567 l 1,11,-1
 330 567 l 1,12,-1
 302 474 l 1,13,-1
 224 260 l 1,8,-1
EndSplineSet
Substitution2: "Single Substitution lookup 56 subtable" A.swsh
Substitution2: "Single Substitution lookup 55 subtable" ordfeminine
Substitution2: "'swsh' Swash lookup 32 subtable" A.swsh
Substitution2: "'c2sc' Capitals to Small Capitals lookup 11 subtable" a.sc
AlternateSubs2: "'aalt' Access All Alternates lookup 1 subtable" a.sc ordfeminine A.swsh
EndChar

StartChar: B
Encoding: 66 66 37
Width: 662
GlyphClass: 2
Flags: W
LayerCount: 2
Fore
SplineSet
98 0 m 1,0,-1
 98 660 l 1,1,-1
 358 660 l 2,2,3
 474 660 474 660 530.5 613 c 128,-1,4
 587 566 587 566 587 479 c 0,5,6
 587 425 587 425 556 385 c 128,-1,7
 525 345 525 345 469 335 c 1,8,-1
 469 334 l 1,9,10
 531 324 531 324 567.5 282 c 128,-1,11
 604 240 604 240 604 183 c 0,12,13
 604 97 604 97 541 48.5 c 128,-1,14
 478 0 478 0 362 0 c 2,15,-1
 98 0 l 1,0,-1
203 376 m 1,16,-1
 350 376 l 2,17,18
 476 376 476 376 476 473 c 128,-1,19
 476 570 476 570 350 570 c 2,20,-1
 203 570 l 1,21,-1
 203 376 l 1,16,-1
203 89 m 1,22,-1
 367 89 l 2,23,24
 493 89 493 89 493 188 c 128,-1,25
 493 287 493 287 367 287 c 2,26,-1
 203 287 l 1,27,-1
 203 89 l 1,22,-1
EndSplineSet
Substitution2: "'c2sc' Capitals to Small Capitals lookup 11 subtable" b.sc
Substitution2: "'aalt' Access All Alternates lookup 0 subtable" b.sc
EndChar

StartChar: C
Encoding: 67 67 38
Width: 684
GlyphClass: 2
Flags: W
LayerCount: 2
Fore
SplineSet
645 175 m 1,0,1
 615 86 615 86 542.5 38 c 128,-1,2
 470 -10 470 -10 372 -10 c 0,3,4
 229 -10 229 -10 145 81.5 c 128,-1,5
 61 173 61 173 61 330 c 128,-1,6
 61 487 61 487 145 578.5 c 128,-1,7
 229 670 229 670 371 670 c 0,8,9
 574 670 574 670 635 508 c 1,10,-1
 534 463 l 1,11,12
 496 577 496 577 377 577 c 0,13,14
 284 577 284 577 228.5 511.5 c 128,-1,15
 173 446 173 446 173 330 c 0,16,17
 173 213 173 213 226 148 c 128,-1,18
 279 83 279 83 373 83 c 0,19,20
 506 83 506 83 543 209 c 1,21,-1
 645 175 l 1,0,1
EndSplineSet
Substitution2: "'c2sc' Capitals to Small Capitals lookup 11 subtable" c.sc
Substitution2: "'aalt' Access All Alternates lookup 0 subtable" c.sc
EndChar

StartChar: D
Encoding: 68 68 39
Width: 720
GlyphClass: 2
Flags: W
LayerCount: 2
Fore
SplineSet
331 660 m 2,0,1
 487 660 487 660 573 574 c 128,-1,2
 659 488 659 488 659 330 c 128,-1,3
 659 172 659 172 573 86 c 128,-1,4
 487 0 487 0 331 0 c 2,5,-1
 98 0 l 1,6,-1
 98 660 l 1,7,-1
 331 660 l 2,0,1
331 91 m 2,8,9
 435 91 435 91 491 153.5 c 128,-1,10
 547 216 547 216 547 330 c 128,-1,11
 547 444 547 444 491 506.5 c 128,-1,12
 435 569 435 569 331 569 c 2,13,-1
 205 569 l 1,14,-1
 205 91 l 1,15,-1
 331 91 l 2,8,9
EndSplineSet
Substitution2: "'c2sc' Capitals to Small Capitals lookup 11 subtable" d.sc
Substitution2: "'aalt' Access All Alternates lookup 0 subtable" d.sc
EndChar

StartChar: E
Encoding: 69 69 40
Width: 636
GlyphClass: 2
Flags: W
AnchorPoint: "Anchor-0" 337 0 basechar 0
LayerCount: 2
Fore
SplineSet
205 92 m 1,0,-1
 590 92 l 1,1,-1
 590 0 l 1,2,-1
 98 0 l 1,3,-1
 98 660 l 1,4,-1
 576 660 l 1,5,-1
 576 568 l 1,6,-1
 205 568 l 1,7,-1
 205 378 l 1,8,-1
 495 378 l 1,9,-1
 495 288 l 1,10,-1
 205 288 l 1,11,-1
 205 92 l 1,0,-1
EndSplineSet
Substitution2: "Single Substitution lookup 57 subtable" E.swsh.001
Substitution2: "Single Substitution lookup 56 subtable" E.swsh
AlternateSubs2: "'swsh' Swash lookup 33 subtable" E.swsh E.swsh.001
Substitution2: "'c2sc' Capitals to Small Capitals lookup 11 subtable" e.sc
AlternateSubs2: "'aalt' Access All Alternates lookup 1 subtable" e.sc E.swsh E.swsh.001
EndChar

StartChar: F
Encoding: 70 70 41
Width: 611
GlyphClass: 2
Flags: W
LayerCount: 2
Fore
SplineSet
575 568 m 1,0,-1
 205 568 l 1,1,-1
 205 377 l 1,2,-1
 495 377 l 1,3,-1
 495 284 l 1,4,-1
 205 284 l 1,5,-1
 205 0 l 1,6,-1
 98 0 l 1,7,-1
 98 660 l 1,8,-1
 575 660 l 1,9,-1
 575 568 l 1,0,-1
EndSplineSet
Substitution2: "Single Substitution lookup 56 subtable" F.swsh
Substitution2: "'swsh' Swash lookup 34 subtable" F.swsh
Substitution2: "'c2sc' Capitals to Small Capitals lookup 11 subtable" f.sc
AlternateSubs2: "'aalt' Access All Alternates lookup 1 subtable" f.sc F.swsh
EndChar

StartChar: G
Encoding: 71 71 42
Width: 724
GlyphClass: 2
Flags: W
AnchorPoint: "Anchor-0" 400 0 basechar 0
LayerCount: 2
Fore
SplineSet
354 341 m 1,0,-1
 651 341 l 1,1,-1
 651 0 l 1,2,-1
 572 0 l 1,3,-1
 569 84 l 1,4,5
 508 -10 508 -10 367 -10 c 0,6,7
 227 -10 227 -10 144 81 c 128,-1,8
 61 172 61 172 61 330 c 0,9,10
 61 487 61 487 146.5 578.5 c 128,-1,11
 232 670 232 670 375 670 c 0,12,13
 477 670 477 670 543 632 c 128,-1,14
 609 594 609 594 647 514 c 1,15,-1
 549 467 l 1,16,17
 530 521 530 521 485 549 c 128,-1,18
 440 577 440 577 377 577 c 0,19,20
 283 577 283 577 228 512 c 128,-1,21
 173 447 173 447 173 330 c 0,22,23
 173 211 173 211 225.5 146.5 c 128,-1,24
 278 82 278 82 379 82 c 0,25,26
 458 82 458 82 507 121 c 128,-1,27
 556 160 556 160 556 234 c 2,28,-1
 556 253 l 1,29,-1
 354 253 l 1,30,-1
 354 341 l 1,0,-1
EndSplineSet
Substitution2: "'ss04' Style Set 4 lookup 50 subtable" G.ss04
Substitution2: "'salt' Stylistic Alternatives lookup 42 subtable" G.ss04
Substitution2: "'c2sc' Capitals to Small Capitals lookup 11 subtable" g.sc
AlternateSubs2: "'aalt' Access All Alternates lookup 1 subtable" g.sc G.ss04
EndChar

StartChar: H
Encoding: 72 72 43
Width: 736
GlyphClass: 2
Flags: W
LayerCount: 2
Fore
SplineSet
531 660 m 1,0,-1
 639 660 l 1,1,-1
 639 0 l 1,2,-1
 531 0 l 1,3,-1
 531 288 l 1,4,-1
 205 288 l 1,5,-1
 205 0 l 1,6,-1
 98 0 l 1,7,-1
 98 660 l 1,8,-1
 205 660 l 1,9,-1
 205 380 l 1,10,-1
 531 380 l 1,11,-1
 531 660 l 1,0,-1
EndSplineSet
Substitution2: "'sups' Superscript lookup 15 subtable" Hsuperior
Substitution2: "'subs' Subscript lookup 14 subtable" Hinferior
Substitution2: "'sinf' Scientific Inferiors lookup 13 subtable" Hinferior
Substitution2: "'c2sc' Capitals to Small Capitals lookup 11 subtable" h.sc
AlternateSubs2: "'aalt' Access All Alternates lookup 1 subtable" h.sc Hinferior Hsuperior
EndChar

StartChar: I
Encoding: 73 73 44
Width: 303
GlyphClass: 2
Flags: W
LayerCount: 2
Fore
SplineSet
205 660 m 1,0,-1
 205 0 l 1,1,-1
 98 0 l 1,2,-1
 98 660 l 1,3,-1
 205 660 l 1,0,-1
EndSplineSet
Substitution2: "'c2sc' Capitals to Small Capitals lookup 11 subtable" i.sc
Substitution2: "'aalt' Access All Alternates lookup 0 subtable" i.sc
EndChar

StartChar: J
Encoding: 74 74 45
Width: 582
GlyphClass: 2
Flags: W
LayerCount: 2
Fore
SplineSet
493 660 m 1,0,-1
 493 234 l 2,1,2
 493 119 493 119 429.5 54.5 c 128,-1,3
 366 -10 366 -10 253 -10 c 0,4,5
 133 -10 133 -10 78 55 c 128,-1,6
 23 120 23 120 44 231 c 1,7,-1
 146 250 l 1,8,9
 135 163 135 163 160 123 c 128,-1,10
 185 83 185 83 253 83 c 0,11,12
 326 83 326 83 356 124.5 c 128,-1,13
 386 166 386 166 386 254 c 2,14,-1
 386 660 l 1,15,-1
 493 660 l 1,0,-1
EndSplineSet
Substitution2: "'c2sc' Capitals to Small Capitals lookup 11 subtable" j.sc
Substitution2: "'aalt' Access All Alternates lookup 0 subtable" j.sc
EndChar

StartChar: K
Encoding: 75 75 46
Width: 667
GlyphClass: 2
Flags: W
AnchorPoint: "Anchor-0" 370 0 basechar 0
LayerCount: 2
Fore
SplineSet
519 0 m 1,0,-1
 312 318 l 1,1,-1
 205 203 l 1,2,-1
 205 0 l 1,3,-1
 98 0 l 1,4,-1
 98 660 l 1,5,-1
 205 660 l 1,6,-1
 205 332 l 1,7,-1
 508 660 l 1,8,-1
 639 660 l 1,9,-1
 389 390 l 1,10,-1
 645 0 l 1,11,-1
 519 0 l 1,0,-1
EndSplineSet
Substitution2: "'c2sc' Capitals to Small Capitals lookup 11 subtable" k.sc
Substitution2: "'aalt' Access All Alternates lookup 0 subtable" k.sc
EndChar

StartChar: L
Encoding: 76 76 47
Width: 599
GlyphClass: 2
Flags: W
AnchorPoint: "Anchor-0" 354 0 basechar 0
LayerCount: 2
Fore
SplineSet
205 92 m 1,0,-1
 569 92 l 1,1,-1
 569 0 l 1,2,-1
 98 0 l 1,3,-1
 98 660 l 1,4,-1
 205 660 l 1,5,-1
 205 92 l 1,0,-1
EndSplineSet
Substitution2: "Single Substitution lookup 57 subtable" L.swsh
Substitution2: "'swsh' Swash lookup 34 subtable" L.swsh
Substitution2: "'c2sc' Capitals to Small Capitals lookup 11 subtable" l.sc
AlternateSubs2: "'aalt' Access All Alternates lookup 1 subtable" l.sc L.swsh
Position2: "Single Positioning lookup 6 subtable" dx=0 dy=0 dh=-152 dv=0
EndChar

StartChar: M
Encoding: 77 77 48
Width: 871
GlyphClass: 2
Flags: W
LayerCount: 2
Fore
SplineSet
773 660 m 1,0,-1
 773 0 l 1,1,-1
 675 0 l 1,2,-1
 675 382 l 1,3,-1
 682 564 l 1,4,-1
 681 564 l 1,5,-1
 480 0 l 1,6,-1
 391 0 l 1,7,-1
 190 564 l 1,8,-1
 189 564 l 1,9,-1
 197 382 l 1,10,-1
 197 0 l 1,11,-1
 98 0 l 1,12,-1
 98 660 l 1,13,-1
 257 660 l 1,14,-1
 390 278 l 1,15,-1
 436 121 l 1,16,-1
 438 121 l 1,17,-1
 485 278 l 1,18,-1
 617 660 l 1,19,-1
 773 660 l 1,0,-1
EndSplineSet
Substitution2: "Single Substitution lookup 56 subtable" M.swsh
AlternateSubs2: "'swsh' Swash lookup 35 subtable" M.swsh M.swsh.001
Substitution2: "'c2sc' Capitals to Small Capitals lookup 11 subtable" m.sc
AlternateSubs2: "'aalt' Access All Alternates lookup 1 subtable" m.sc M.swsh M.swsh.001
EndChar

StartChar: N
Encoding: 78 78 49
Width: 736
GlyphClass: 2
Flags: W
AnchorPoint: "Anchor-0" 393 0 basechar 0
LayerCount: 2
Fore
SplineSet
639 660 m 1,0,-1
 639 0 l 1,1,-1
 512 0 l 1,2,-1
 257 416 l 1,3,-1
 193 538 l 1,4,-1
 192 538 l 1,5,-1
 196 426 l 1,6,-1
 196 0 l 1,7,-1
 98 0 l 1,8,-1
 98 660 l 1,9,-1
 224 660 l 1,10,-1
 478 245 l 1,11,-1
 543 122 l 1,12,-1
 544 122 l 1,13,-1
 540 234 l 1,14,-1
 540 660 l 1,15,-1
 639 660 l 1,0,-1
EndSplineSet
Substitution2: "Single Substitution lookup 57 subtable" N.swsh
Substitution2: "'swsh' Swash lookup 36 subtable" N.swsh
Substitution2: "'c2sc' Capitals to Small Capitals lookup 11 subtable" n.sc
AlternateSubs2: "'aalt' Access All Alternates lookup 1 subtable" n.sc N.swsh
EndChar

StartChar: O
Encoding: 79 79 50
Width: 745
GlyphClass: 2
Flags: W
LayerCount: 2
Fore
SplineSet
372 670 m 0,0,1
 516 670 516 670 600 578.5 c 128,-1,2
 684 487 684 487 684 330 c 128,-1,3
 684 173 684 173 600 81.5 c 128,-1,4
 516 -10 516 -10 372 -10 c 0,5,6
 229 -10 229 -10 145 81.5 c 128,-1,7
 61 173 61 173 61 330 c 128,-1,8
 61 487 61 487 145 578.5 c 128,-1,9
 229 670 229 670 372 670 c 0,0,1
372 577 m 0,10,11
 279 577 279 577 226 512 c 128,-1,12
 173 447 173 447 173 330 c 128,-1,13
 173 213 173 213 226 148 c 128,-1,14
 279 83 279 83 372 83 c 0,15,16
 466 83 466 83 519 148 c 128,-1,17
 572 213 572 213 572 330 c 128,-1,18
 572 447 572 447 519 512 c 128,-1,19
 466 577 466 577 372 577 c 0,10,11
EndSplineSet
Substitution2: "Single Substitution lookup 55 subtable" ordmasculine
Substitution2: "'nalt' Alternate Annotation Forms lookup 23 subtable" indexring
Substitution2: "'sups' Superscript lookup 15 subtable" Osuperior
Substitution2: "'subs' Subscript lookup 14 subtable" Oinferior
Substitution2: "'sinf' Scientific Inferiors lookup 13 subtable" Oinferior
Substitution2: "'c2sc' Capitals to Small Capitals lookup 11 subtable" o.sc
AlternateSubs2: "'aalt' Access All Alternates lookup 1 subtable" o.sc Oinferior Osuperior ordmasculine indexring
EndChar

StartChar: P
Encoding: 80 80 51
Width: 627
GlyphClass: 2
Flags: W
LayerCount: 2
Fore
SplineSet
352 660 m 2,0,1
 459 660 459 660 521.5 605 c 128,-1,2
 584 550 584 550 584 454 c 128,-1,3
 584 358 584 358 521.5 303.5 c 128,-1,4
 459 249 459 249 352 249 c 2,5,-1
 205 249 l 1,6,-1
 205 0 l 1,7,-1
 98 0 l 1,8,-1
 98 660 l 1,9,-1
 352 660 l 2,0,1
335 340 m 2,10,11
 473 340 473 340 473 454 c 0,12,13
 473 569 473 569 335 569 c 2,14,-1
 205 569 l 1,15,-1
 205 340 l 1,16,-1
 335 340 l 2,10,11
EndSplineSet
Substitution2: "'c2sc' Capitals to Small Capitals lookup 11 subtable" p.sc
Substitution2: "'aalt' Access All Alternates lookup 0 subtable" p.sc
EndChar

StartChar: Q
Encoding: 81 81 52
Width: 745
GlyphClass: 2
Flags: W
LayerCount: 2
Fore
SplineSet
532 -101 m 0,0,1
 611 -101 611 -101 651 -63 c 1,2,-1
 682 -153 l 1,3,4
 658 -174 658 -174 615.5 -186 c 128,-1,5
 573 -198 573 -198 529 -198 c 0,6,7
 441 -198 441 -198 386.5 -151.5 c 128,-1,8
 332 -105 332 -105 329 -8 c 1,9,10
 204 6 204 6 132.5 95.5 c 128,-1,11
 61 185 61 185 61 330 c 0,12,13
 61 487 61 487 145 578.5 c 128,-1,14
 229 670 229 670 372 670 c 0,15,16
 516 670 516 670 600 578.5 c 128,-1,17
 684 487 684 487 684 330 c 0,18,19
 684 184 684 184 611.5 94.5 c 128,-1,20
 539 5 539 5 413 -8 c 1,21,22
 418 -62 418 -62 448.5 -81.5 c 128,-1,23
 479 -101 479 -101 532 -101 c 0,0,1
173 330 m 128,-1,25
 173 213 173 213 226 148 c 128,-1,26
 279 83 279 83 372 83 c 0,27,28
 466 83 466 83 519 148 c 128,-1,29
 572 213 572 213 572 330 c 128,-1,30
 572 447 572 447 519 512 c 128,-1,31
 466 577 466 577 372 577 c 0,32,33
 279 577 279 577 226 512 c 128,-1,24
 173 447 173 447 173 330 c 128,-1,25
EndSplineSet
Substitution2: "'c2sc' Capitals to Small Capitals lookup 11 subtable" q.sc
Substitution2: "'aalt' Access All Alternates lookup 0 subtable" q.sc
EndChar

StartChar: R
Encoding: 82 82 53
Width: 664
GlyphClass: 2
Flags: W
AnchorPoint: "Anchor-0" 364 0 basechar 0
LayerCount: 2
Fore
SplineSet
98 0 m 5,0,-1
 98 660 l 5,1,-1
 367 660 l 6,2,3
 474 660 474 660 536 607.5 c 132,-1,4
 598 555 598 555 598 464 c 4,5,6
 598 331 598 331 462 296 c 5,7,-1
 462 294 l 5,8,9
 569 274 569 274 575 166 c 4,10,11
 584 43 584 43 608 3 c 5,12,-1
 608 0 l 5,13,-1
 494 0 l 5,14,15
 479 35 479 35 469 155 c 4,16,17
 465 210 465 210 431.5 237 c 132,-1,18
 398 264 398 264 328 264 c 6,19,-1
 204 264 l 5,20,-1
 204 0 l 5,21,-1
 98 0 l 5,0,-1
204 353 m 5,22,-1
 358 353 l 6,23,24
 487 353 487 353 487 461 c 132,-1,25
 487 569 487 569 358 569 c 6,26,-1
 204 569 l 5,27,-1
 204 353 l 5,22,-1
EndSplineSet
Substitution2: "Single Substitution lookup 57 subtable" R.swsh.001
Substitution2: "Single Substitution lookup 56 subtable" R.swsh
Substitution2: "'ss03' Style Set 3 lookup 49 subtable" R.ss03
Substitution2: "'salt' Stylistic Alternatives lookup 42 subtable" R.ss03
AlternateSubs2: "'swsh' Swash lookup 37 subtable" R.swsh R.swsh.001
Substitution2: "'c2sc' Capitals to Small Capitals lookup 11 subtable" r.sc
AlternateSubs2: "'aalt' Access All Alternates lookup 1 subtable" r.sc R.swsh R.swsh.001 R.ss03
EndChar

StartChar: S
Encoding: 83 83 54
Width: 642
GlyphClass: 2
Flags: W
AnchorPoint: "Anchor-0" 355 0 basechar 0
LayerCount: 2
Fore
SplineSet
323 670 m 0,0,1
 501 670 501 670 587 536 c 1,2,-1
 506 463 l 1,3,4
 478 523 478 523 436 550 c 128,-1,5
 394 577 394 577 324 577 c 0,6,7
 255 577 255 577 217 549.5 c 128,-1,8
 179 522 179 522 179 479 c 0,9,10
 179 439 179 439 216 415.5 c 128,-1,11
 253 392 253 392 348 375 c 0,12,13
 480 352 480 352 535 307.5 c 128,-1,14
 590 263 590 263 590 183 c 0,15,16
 590 95 590 95 517.5 42.5 c 128,-1,17
 445 -10 445 -10 327 -10 c 0,18,19
 126 -10 126 -10 43 124 c 1,20,-1
 118 199 l 1,21,22
 180 83 180 83 326 83 c 0,23,24
 397 83 397 83 437.5 107.5 c 128,-1,25
 478 132 478 132 478 177 c 0,26,27
 478 213 478 213 441.5 235 c 128,-1,28
 405 257 405 257 314 274 c 0,29,30
 179 299 179 299 122.5 344 c 128,-1,31
 66 389 66 389 66 468 c 0,32,33
 66 555 66 555 135.5 612.5 c 128,-1,34
 205 670 205 670 323 670 c 0,0,1
EndSplineSet
Substitution2: "Single Substitution lookup 57 subtable" S.swsh
Substitution2: "Single Substitution lookup 56 subtable" S.swsh
Substitution2: "'swsh' Swash lookup 38 subtable" S.swsh
Substitution2: "'c2sc' Capitals to Small Capitals lookup 11 subtable" s.sc
AlternateSubs2: "'aalt' Access All Alternates lookup 1 subtable" s.sc S.swsh
EndChar

StartChar: T
Encoding: 84 84 55
Width: 619
GlyphClass: 2
Flags: W
AnchorPoint: "Anchor-0" 319 0 basechar 0
LayerCount: 2
Fore
SplineSet
589 660 m 1,0,-1
 589 568 l 1,1,-1
 363 568 l 1,2,-1
 363 0 l 1,3,-1
 256 0 l 1,4,-1
 256 568 l 1,5,-1
 30 568 l 1,6,-1
 30 660 l 1,7,-1
 589 660 l 1,0,-1
EndSplineSet
Substitution2: "Single Substitution lookup 56 subtable" T.swsh
Substitution2: "'swsh' Swash lookup 38 subtable" T.swsh
Substitution2: "'c2sc' Capitals to Small Capitals lookup 11 subtable" t.sc
AlternateSubs2: "'aalt' Access All Alternates lookup 1 subtable" t.sc T.swsh
EndChar

StartChar: U
Encoding: 85 85 56
Width: 718
GlyphClass: 2
Flags: W
LayerCount: 2
Fore
SplineSet
629 660 m 1,0,-1
 629 253 l 2,1,2
 629 123 629 123 560 56.5 c 128,-1,3
 491 -10 491 -10 359 -10 c 128,-1,4
 227 -10 227 -10 158 56.5 c 128,-1,5
 89 123 89 123 89 253 c 2,6,-1
 89 660 l 1,7,-1
 197 660 l 1,8,-1
 197 266 l 2,9,10
 197 172 197 172 236.5 127.5 c 128,-1,11
 276 83 276 83 359 83 c 128,-1,12
 442 83 442 83 481.5 127.5 c 128,-1,13
 521 172 521 172 521 266 c 2,14,-1
 521 660 l 1,15,-1
 629 660 l 1,0,-1
EndSplineSet
Substitution2: "'c2sc' Capitals to Small Capitals lookup 11 subtable" u.sc
Substitution2: "'aalt' Access All Alternates lookup 0 subtable" u.sc
EndChar

StartChar: V
Encoding: 86 86 57
Width: 659
GlyphClass: 2
Flags: W
LayerCount: 2
Fore
SplineSet
637 660 m 1,0,-1
 392 0 l 1,1,-1
 267 0 l 1,2,-1
 22 660 l 1,3,-1
 136 660 l 1,4,-1
 290 221 l 1,5,-1
 330 90 l 1,6,-1
 370 220 l 1,7,-1
 524 660 l 1,8,-1
 637 660 l 1,0,-1
EndSplineSet
Substitution2: "'c2sc' Capitals to Small Capitals lookup 11 subtable" v.sc
Substitution2: "'aalt' Access All Alternates lookup 0 subtable" v.sc
EndChar

StartChar: W
Encoding: 87 87 58
Width: 972
GlyphClass: 2
Flags: W
LayerCount: 2
Fore
SplineSet
453 396 m 1,0,-1
 349 0 l 1,1,-1
 222 0 l 1,2,-1
 28 660 l 1,3,-1
 144 660 l 1,4,-1
 288 85 l 1,5,-1
 433 660 l 1,6,-1
 543 660 l 1,7,-1
 689 84 l 1,8,-1
 834 660 l 1,9,-1
 944 660 l 1,10,-1
 751 0 l 1,11,-1
 625 0 l 1,12,-1
 520 396 l 1,13,-1
 487 548 l 1,14,-1
 486 548 l 1,15,-1
 453 396 l 1,0,-1
EndSplineSet
Substitution2: "Single Substitution lookup 56 subtable" W.swsh
Substitution2: "'swsh' Swash lookup 38 subtable" W.swsh
Substitution2: "'c2sc' Capitals to Small Capitals lookup 11 subtable" w.sc
AlternateSubs2: "'aalt' Access All Alternates lookup 1 subtable" w.sc W.swsh
EndChar

StartChar: X
Encoding: 88 88 59
Width: 620
GlyphClass: 2
Flags: W
LayerCount: 2
Fore
SplineSet
595 0 m 1,0,-1
 468 0 l 1,1,-1
 306 257 l 1,2,-1
 144 0 l 1,3,-1
 21 0 l 1,4,-1
 250 335 l 1,5,-1
 39 660 l 1,6,-1
 166 660 l 1,7,-1
 318 415 l 1,8,-1
 470 660 l 1,9,-1
 586 660 l 1,10,-1
 373 339 l 1,11,-1
 595 0 l 1,0,-1
EndSplineSet
Substitution2: "'c2sc' Capitals to Small Capitals lookup 11 subtable" x.sc
Substitution2: "'aalt' Access All Alternates lookup 0 subtable" x.sc
EndChar

StartChar: Y
Encoding: 89 89 60
Width: 597
GlyphClass: 2
Flags: W
LayerCount: 2
Fore
SplineSet
588 660 m 1,0,-1
 352 253 l 1,1,-1
 352 0 l 1,2,-1
 245 0 l 1,3,-1
 245 253 l 1,4,-1
 10 660 l 1,5,-1
 129 660 l 1,6,-1
 247 448 l 1,7,-1
 299 349 l 1,8,-1
 351 448 l 1,9,-1
 468 660 l 1,10,-1
 588 660 l 1,0,-1
EndSplineSet
Substitution2: "'c2sc' Capitals to Small Capitals lookup 11 subtable" y.sc
Substitution2: "'aalt' Access All Alternates lookup 0 subtable" y.sc
EndChar

StartChar: Z
Encoding: 90 90 61
Width: 631
GlyphClass: 2
Flags: W
LayerCount: 2
Fore
SplineSet
172 91 m 1,0,-1
 583 91 l 1,1,-1
 583 0 l 1,2,-1
 50 0 l 1,3,-1
 50 87 l 1,4,-1
 449 569 l 1,5,-1
 59 569 l 1,6,-1
 59 660 l 1,7,-1
 571 660 l 1,8,-1
 571 573 l 1,9,-1
 172 91 l 1,0,-1
EndSplineSet
Substitution2: "'c2sc' Capitals to Small Capitals lookup 11 subtable" z.sc
Substitution2: "'aalt' Access All Alternates lookup 0 subtable" z.sc
EndChar

StartChar: bracketleft
Encoding: 91 91 62
Width: 361
GlyphClass: 2
Flags: W
LayerCount: 2
Fore
SplineSet
330 640 m 1,0,-1
 183 640 l 1,1,-1
 183 -83 l 1,2,-1
 330 -83 l 1,3,-1
 330 -168 l 1,4,-1
 86 -168 l 1,5,-1
 86 725 l 1,6,-1
 330 725 l 1,7,-1
 330 640 l 1,0,-1
EndSplineSet
Substitution2: "'case' Case-Sensitive Forms lookup 29 subtable" bracketleft.case
Substitution2: "'sups' Superscript lookup 15 subtable" bracketleftsuperior
Substitution2: "'subs' Subscript lookup 14 subtable" bracketleftinferior
Substitution2: "'sinf' Scientific Inferiors lookup 13 subtable" bracketleftinferior
AlternateSubs2: "'aalt' Access All Alternates lookup 1 subtable" bracketleftinferior bracketleftsuperior bracketleft.case
EndChar

StartChar: backslash
Encoding: 92 92 63
Width: 447
GlyphClass: 2
Flags: W
LayerCount: 2
Fore
SplineSet
25 725 m 1,0,-1
 125 725 l 1,1,-1
 423 -70 l 1,2,-1
 323 -70 l 1,3,-1
 25 725 l 1,0,-1
EndSplineSet
EndChar

StartChar: bracketright
Encoding: 93 93 64
Width: 361
GlyphClass: 2
Flags: W
LayerCount: 2
Fore
SplineSet
275 725 m 1,0,-1
 275 -168 l 1,1,-1
 31 -168 l 1,2,-1
 31 -83 l 1,3,-1
 178 -83 l 1,4,-1
 178 640 l 1,5,-1
 31 640 l 1,6,-1
 31 725 l 1,7,-1
 275 725 l 1,0,-1
EndSplineSet
Substitution2: "'case' Case-Sensitive Forms lookup 29 subtable" bracketright.case
Substitution2: "'sups' Superscript lookup 15 subtable" bracketrightsuperior
Substitution2: "'subs' Subscript lookup 14 subtable" bracketrightinferior
Substitution2: "'sinf' Scientific Inferiors lookup 13 subtable" bracketrightinferior
AlternateSubs2: "'aalt' Access All Alternates lookup 1 subtable" bracketrightinferior bracketrightsuperior bracketright.case
EndChar

StartChar: asciicircum
Encoding: 94 94 65
Width: 576
GlyphClass: 2
Flags: W
LayerCount: 2
Fore
SplineSet
549 355 m 1,0,-1
 448 355 l 1,1,-1
 288 649 l 1,2,-1
 128 355 l 1,3,-1
 26 355 l 1,4,-1
 240 728 l 1,5,-1
 336 728 l 1,6,-1
 549 355 l 1,0,-1
EndSplineSet
EndChar

StartChar: underscore
Encoding: 95 95 66
Width: 539
GlyphClass: 2
Flags: W
LayerCount: 2
Fore
SplineSet
539 -88 m 1,0,-1
 539 -181 l 1,1,-1
 0 -181 l 1,2,-1
 0 -88 l 1,3,-1
 539 -88 l 1,0,-1
EndSplineSet
EndChar

StartChar: grave
Encoding: 96 96 67
Width: 500
GlyphClass: 2
Flags: W
LayerCount: 2
Fore
SplineSet
226 746 m 1,0,-1
 299 578 l 1,1,-1
 217 578 l 1,2,-1
 118 746 l 1,3,-1
 226 746 l 1,0,-1
EndSplineSet
EndChar

StartChar: a
Encoding: 97 97 68
Width: 570
GlyphClass: 2
Flags: W
LayerCount: 2
Fore
SplineSet
515 70 m 0,0,1
 537 70 537 70 552 74 c 1,2,-1
 545 2 l 1,3,4
 518 -10 518 -10 483 -10 c 0,5,6
 396 -10 396 -10 381 64 c 1,7,8
 358 29 358 29 313 9.5 c 128,-1,9
 268 -10 268 -10 212 -10 c 0,10,11
 139 -10 139 -10 94 24 c 128,-1,12
 49 58 49 58 49 121 c 0,13,14
 49 180 49 180 98 220.5 c 128,-1,15
 147 261 147 261 244 278 c 2,16,-1
 371 300 l 1,17,-1
 371 327 l 2,18,19
 371 373 371 373 344 399.5 c 128,-1,20
 317 426 317 426 269 426 c 0,21,22
 170 426 170 426 140 336 c 1,23,-1
 57 380 l 1,24,25
 75 440 75 440 130.5 475 c 128,-1,26
 186 510 186 510 267 510 c 0,27,28
 364 510 364 510 421 465 c 128,-1,29
 478 420 478 420 478 333 c 2,30,-1
 478 107 l 2,31,32
 478 70 478 70 515 70 c 0,0,1
235 71 m 0,33,34
 289 71 289 71 330 97 c 128,-1,35
 371 123 371 123 371 166 c 2,36,-1
 371 226 l 1,37,-1
 262 204 l 2,38,39
 160 184 160 184 160 128 c 0,40,41
 160 71 160 71 235 71 c 0,33,34
EndSplineSet
Substitution2: "Single Substitution lookup 55 subtable" ordfeminine
Substitution2: "'smcp' Lowercase to Small Capitals lookup 12 subtable" a.sc
AlternateSubs2: "'aalt' Access All Alternates lookup 1 subtable" a.sc ordfeminine
EndChar

StartChar: b
Encoding: 98 98 69
Width: 629
GlyphClass: 2
Flags: W
LayerCount: 2
Fore
SplineSet
352 510 m 0,0,1
 455 510 455 510 514 440.5 c 128,-1,2
 573 371 573 371 573 249 c 128,-1,3
 573 127 573 127 514 58.5 c 128,-1,4
 455 -10 455 -10 352 -10 c 0,5,6
 293 -10 293 -10 248.5 18 c 128,-1,7
 204 46 204 46 182 93 c 1,8,-1
 177 0 l 1,9,-1
 83 0 l 1,10,-1
 83 725 l 1,11,-1
 190 725 l 1,12,-1
 190 420 l 1,13,14
 213 462 213 462 255.5 486 c 128,-1,15
 298 510 298 510 352 510 c 0,0,1
328 76 m 0,16,17
 393 76 393 76 429.5 122 c 128,-1,18
 466 168 466 168 466 250 c 128,-1,19
 466 332 466 332 429.5 377.5 c 128,-1,20
 393 423 393 423 328 423 c 0,21,22
 267 423 267 423 230.5 382 c 128,-1,23
 194 341 194 341 190 269 c 1,24,-1
 190 231 l 1,25,26
 194 158 194 158 230.5 117 c 128,-1,27
 267 76 267 76 328 76 c 0,16,17
EndSplineSet
Substitution2: "'smcp' Lowercase to Small Capitals lookup 12 subtable" b.sc
Substitution2: "'aalt' Access All Alternates lookup 0 subtable" b.sc
EndChar

StartChar: c
Encoding: 99 99 70
Width: 566
GlyphClass: 2
Flags: W
LayerCount: 2
Fore
SplineSet
303 510 m 0,0,1
 467 510 467 510 520 370 c 1,2,-1
 420 330 l 1,3,4
 394 425 394 425 303 425 c 0,5,6
 236 425 236 425 199 379 c 128,-1,7
 162 333 162 333 162 249 c 128,-1,8
 162 165 162 165 199 120 c 128,-1,9
 236 75 236 75 303 75 c 0,10,11
 406 75 406 75 426 172 c 1,12,-1
 524 139 l 1,13,14
 502 69 502 69 446 29.5 c 128,-1,15
 390 -10 390 -10 305 -10 c 0,16,17
 187 -10 187 -10 120.5 59 c 128,-1,18
 54 128 54 128 54 250 c 128,-1,19
 54 372 54 372 120 441 c 128,-1,20
 186 510 186 510 303 510 c 0,0,1
EndSplineSet
Substitution2: "'smcp' Lowercase to Small Capitals lookup 12 subtable" c.sc
Substitution2: "'aalt' Access All Alternates lookup 0 subtable" c.sc
EndChar

StartChar: d
Encoding: 100 100 71
Width: 629
GlyphClass: 2
Flags: W
LayerCount: 2
Fore
SplineSet
439 725 m 1,0,-1
 546 725 l 1,1,-1
 546 0 l 1,2,-1
 452 0 l 1,3,-1
 446 89 l 1,4,5
 424 44 424 44 379.5 17 c 128,-1,6
 335 -10 335 -10 278 -10 c 0,7,8
 175 -10 175 -10 115.5 58.5 c 128,-1,9
 56 127 56 127 56 249 c 128,-1,10
 56 371 56 371 115.5 440.5 c 128,-1,11
 175 510 175 510 278 510 c 0,12,13
 333 510 333 510 375 485.5 c 128,-1,14
 417 461 417 461 439 419 c 1,15,-1
 439 725 l 1,0,-1
302 76 m 0,16,17
 365 76 365 76 402 121 c 128,-1,18
 439 166 439 166 439 244 c 2,19,-1
 439 256 l 2,20,21
 439 334 439 334 402 378.5 c 128,-1,22
 365 423 365 423 302 423 c 0,23,24
 237 423 237 423 200.5 377.5 c 128,-1,25
 164 332 164 332 164 250 c 128,-1,26
 164 168 164 168 200.5 122 c 128,-1,27
 237 76 237 76 302 76 c 0,16,17
EndSplineSet
Substitution2: "'smcp' Lowercase to Small Capitals lookup 12 subtable" d.sc
Substitution2: "'aalt' Access All Alternates lookup 0 subtable" d.sc
EndChar

StartChar: e
Encoding: 101 101 72
Width: 581
GlyphClass: 2
Flags: W
AnchorPoint: "Anchor-0" 302 0 basechar 0
LayerCount: 2
Fore
SplineSet
530 265 m 0,0,1
 530 236 530 236 526 210 c 1,2,-1
 160 210 l 1,3,4
 169 144 169 144 207 109.5 c 128,-1,5
 245 75 245 75 305 75 c 0,6,7
 406 75 406 75 431 143 c 1,8,-1
 520 106 l 1,9,10
 464 -10 464 -10 305 -10 c 0,11,12
 187 -10 187 -10 120.5 59 c 128,-1,13
 54 128 54 128 54 250 c 0,14,15
 54 373 54 373 118 441.5 c 128,-1,16
 182 510 182 510 298 510 c 0,17,18
 408 510 408 510 469 443 c 128,-1,19
 530 376 530 376 530 265 c 0,0,1
298 425 m 0,20,21
 179 425 179 425 160 292 c 1,22,-1
 430 292 l 1,23,24
 422 355 422 355 387.5 390 c 128,-1,25
 353 425 353 425 298 425 c 0,20,21
EndSplineSet
Substitution2: "'smcp' Lowercase to Small Capitals lookup 12 subtable" e.sc
Substitution2: "'aalt' Access All Alternates lookup 0 subtable" e.sc
EndChar

StartChar: f
Encoding: 102 102 73
Width: 400
GlyphClass: 2
Flags: W
LayerCount: 2
Fore
SplineSet
225 564 m 2,0,-1
 225 500 l 1,1,-1
 387 500 l 1,2,-1
 387 416 l 1,3,-1
 228 416 l 1,4,-1
 228 0 l 1,5,-1
 121 0 l 1,6,-1
 121 416 l 1,7,-1
 27 416 l 1,8,-1
 27 500 l 1,9,-1
 121 500 l 1,10,-1
 121 572 l 2,11,12
 121 648 121 648 167 690 c 128,-1,13
 213 732 213 732 296 732 c 0,14,15
 360 732 360 732 390 708 c 1,16,-1
 370 630 l 1,17,18
 347 645 347 645 313 645 c 0,19,20
 225 645 225 645 225 564 c 2,0,-1
EndSplineSet
Substitution2: "'smcp' Lowercase to Small Capitals lookup 12 subtable" f.sc
Substitution2: "'aalt' Access All Alternates lookup 0 subtable" f.sc
EndChar

StartChar: g
Encoding: 103 103 74
Width: 629
GlyphClass: 2
Flags: W
LayerCount: 2
Fore
SplineSet
455 500 m 1,0,-1
 546 500 l 1,1,-1
 546 40 l 2,2,3
 546 -215 546 -215 284 -215 c 0,4,5
 198 -215 198 -215 141 -183.5 c 128,-1,6
 84 -152 84 -152 71 -85 c 1,7,-1
 173 -49 l 1,8,9
 188 -134 188 -134 298 -134 c 0,10,11
 360 -134 360 -134 399 -93 c 128,-1,12
 438 -52 438 -52 438 15 c 2,13,-1
 438 82 l 1,14,15
 385 4 385 4 277 4 c 0,16,17
 174 4 174 4 114.5 71 c 128,-1,18
 55 138 55 138 55 257 c 128,-1,19
 55 376 55 376 114.5 443 c 128,-1,20
 174 510 174 510 277 510 c 0,21,22
 335 510 335 510 379 485.5 c 128,-1,23
 423 461 423 461 446 418 c 1,24,-1
 455 500 l 1,0,-1
301 91 m 0,25,26
 364 91 364 91 401 134 c 128,-1,27
 438 177 438 177 438 252 c 2,28,-1
 438 263 l 2,29,30
 438 337 438 337 401 380 c 128,-1,31
 364 423 364 423 301 423 c 0,32,33
 236 423 236 423 199.5 379 c 128,-1,34
 163 335 163 335 163 257 c 128,-1,35
 163 179 163 179 199.5 135 c 128,-1,36
 236 91 236 91 301 91 c 0,25,26
EndSplineSet
Substitution2: "'ss01' Style Set 1 lookup 47 subtable" g.ss01
Substitution2: "'salt' Stylistic Alternatives lookup 42 subtable" g.ss01
Substitution2: "'smcp' Lowercase to Small Capitals lookup 12 subtable" g.sc
AlternateSubs2: "'aalt' Access All Alternates lookup 1 subtable" g.sc g.ss01
EndChar

StartChar: h
Encoding: 104 104 75
Width: 619
GlyphClass: 2
Flags: W
LayerCount: 2
Fore
SplineSet
352 510 m 0,0,1
 435 510 435 510 487.5 462 c 128,-1,2
 540 414 540 414 540 324 c 2,3,-1
 540 0 l 1,4,-1
 433 0 l 1,5,-1
 433 290 l 2,6,7
 433 422 433 422 326 422 c 0,8,9
 270 422 270 422 230 383 c 128,-1,10
 190 344 190 344 190 264 c 2,11,-1
 190 0 l 1,12,-1
 83 0 l 1,13,-1
 83 725 l 1,14,-1
 190 725 l 1,15,-1
 190 420 l 1,16,17
 239 510 239 510 352 510 c 0,0,1
EndSplineSet
Substitution2: "'smcp' Lowercase to Small Capitals lookup 12 subtable" h.sc
Substitution2: "'aalt' Access All Alternates lookup 0 subtable" h.sc
EndChar

StartChar: i
Encoding: 105 105 76
Width: 274
GlyphClass: 2
Flags: W
LayerCount: 2
Fore
SplineSet
137 584 m 128,-1,1
 103 584 103 584 84 601.5 c 128,-1,2
 65 619 65 619 65 651 c 128,-1,3
 65 683 65 683 84 700 c 128,-1,4
 103 717 103 717 137 717 c 0,5,6
 208 717 208 717 208 651 c 0,7,8
 208 619 208 619 189.5 601.5 c 128,-1,0
 171 584 171 584 137 584 c 128,-1,1
190 500 m 1,9,-1
 190 0 l 1,10,-1
 83 0 l 1,11,-1
 83 500 l 1,12,-1
 190 500 l 1,9,-1
EndSplineSet
Substitution2: "'smcp' Lowercase to Small Capitals lookup 12 subtable" i.sc
Substitution2: "'locl' Localized Forms in Latin lookup 6 subtable" i.loclTRK
Substitution2: "'locl' Localized Forms in Latin lookup 5 subtable" i.loclTRK
Substitution2: "'locl' Localized Forms in Latin lookup 4 subtable" i.loclTRK
Substitution2: "'locl' Localized Forms in Latin lookup 3 subtable" i.loclTRK
Substitution2: "'locl' Localized Forms in Latin lookup 2 subtable" i.loclTRK
Substitution2: "'aalt' Access All Alternates lookup 0 subtable" i.sc
EndChar

StartChar: j
Encoding: 106 106 77
Width: 273
GlyphClass: 2
Flags: W
LayerCount: 2
Fore
SplineSet
137 717 m 0,0,1
 169 717 169 717 188.5 699 c 128,-1,2
 208 681 208 681 208 651 c 128,-1,3
 208 621 208 621 188.5 602.5 c 128,-1,4
 169 584 169 584 137 584 c 0,5,6
 104 584 104 584 84.5 602.5 c 128,-1,7
 65 621 65 621 65 651 c 128,-1,8
 65 681 65 681 84.5 699 c 128,-1,9
 104 717 104 717 137 717 c 0,0,1
190 500 m 1,10,-1
 190 -44 l 2,11,12
 190 -133 190 -133 143.5 -174 c 128,-1,13
 97 -215 97 -215 26 -215 c 0,14,15
 -39 -215 -39 -215 -84 -182 c 1,16,-1
 -65 -96 l 1,17,18
 -31 -124 -31 -124 12 -124 c 0,19,20
 83 -124 83 -124 83 -34 c 2,21,-1
 83 500 l 1,22,-1
 190 500 l 1,10,-1
EndSplineSet
Substitution2: "'smcp' Lowercase to Small Capitals lookup 12 subtable" j.sc
Substitution2: "'aalt' Access All Alternates lookup 0 subtable" j.sc
EndChar

StartChar: k
Encoding: 107 107 78
Width: 583
GlyphClass: 2
Flags: W
AnchorPoint: "Anchor-0" 319 0 basechar 0
LayerCount: 2
Fore
SplineSet
443 0 m 1,0,-1
 289 235 l 1,1,-1
 190 133 l 1,2,-1
 190 0 l 1,3,-1
 83 0 l 1,4,-1
 83 725 l 1,5,-1
 190 725 l 1,6,-1
 190 255 l 1,7,-1
 429 500 l 1,8,-1
 555 500 l 1,9,-1
 364 304 l 1,10,-1
 567 0 l 1,11,-1
 443 0 l 1,0,-1
EndSplineSet
Substitution2: "'smcp' Lowercase to Small Capitals lookup 12 subtable" k.sc
Substitution2: "'aalt' Access All Alternates lookup 0 subtable" k.sc
EndChar

StartChar: l
Encoding: 108 108 79
Width: 312
GlyphClass: 2
Flags: W
AnchorPoint: "Anchor-0" 207 0 basechar 0
LayerCount: 2
Fore
SplineSet
187 725 m 1,0,-1
 187 146 l 2,1,2
 187 109 187 109 198 94.5 c 128,-1,3
 209 80 209 80 239 80 c 0,4,5
 271 80 271 80 305 93 c 1,6,-1
 293 7 l 1,7,8
 259 -10 259 -10 210 -10 c 0,9,10
 143 -10 143 -10 111.5 24 c 128,-1,11
 80 58 80 58 80 131 c 2,12,-1
 80 725 l 1,13,-1
 187 725 l 1,0,-1
EndSplineSet
Substitution2: "'ss02' Style Set 2 lookup 48 subtable" l.ss02
Substitution2: "'salt' Stylistic Alternatives lookup 42 subtable" l.ss02
Substitution2: "'smcp' Lowercase to Small Capitals lookup 12 subtable" l.sc
AlternateSubs2: "'aalt' Access All Alternates lookup 1 subtable" l.sc l.ss02
Position2: "Single Positioning lookup 6 subtable" dx=0 dy=0 dh=-40 dv=0
EndChar

StartChar: m
Encoding: 109 109 80
Width: 949
GlyphClass: 2
Flags: W
LayerCount: 2
Fore
SplineSet
686 510 m 0,0,1
 764 510 764 510 817 462 c 128,-1,2
 870 414 870 414 870 324 c 2,3,-1
 870 0 l 1,4,-1
 763 0 l 1,5,-1
 763 307 l 2,6,7
 763 366 763 366 735 394 c 128,-1,8
 707 422 707 422 660 422 c 0,9,10
 605 422 605 422 567.5 382 c 128,-1,11
 530 342 530 342 530 272 c 2,12,-1
 530 0 l 1,13,-1
 423 0 l 1,14,-1
 423 307 l 2,15,16
 423 366 423 366 395 394 c 128,-1,17
 367 422 367 422 320 422 c 0,18,19
 268 422 268 422 229 383 c 128,-1,20
 190 344 190 344 190 266 c 2,21,-1
 190 0 l 1,22,-1
 83 0 l 1,23,-1
 83 500 l 1,24,-1
 178 500 l 1,25,-1
 183 417 l 1,26,27
 235 510 235 510 345 510 c 0,28,29
 401 510 401 510 446.5 484.5 c 128,-1,30
 492 459 492 459 514 410 c 1,31,32
 537 459 537 459 584.5 484.5 c 128,-1,33
 632 510 632 510 686 510 c 0,0,1
EndSplineSet
Substitution2: "'smcp' Lowercase to Small Capitals lookup 12 subtable" m.sc
Substitution2: "'aalt' Access All Alternates lookup 0 subtable" m.sc
EndChar

StartChar: n
Encoding: 110 110 81
Width: 619
GlyphClass: 2
Flags: W
AnchorPoint: "Anchor-0" 335 0 basechar 0
LayerCount: 2
Fore
SplineSet
352 510 m 0,0,1
 435 510 435 510 487.5 462 c 128,-1,2
 540 414 540 414 540 324 c 2,3,-1
 540 0 l 1,4,-1
 433 0 l 1,5,-1
 433 290 l 2,6,7
 433 422 433 422 326 422 c 0,8,9
 270 422 270 422 230 383.5 c 128,-1,10
 190 345 190 345 190 265 c 2,11,-1
 190 0 l 1,12,-1
 83 0 l 1,13,-1
 83 500 l 1,14,-1
 178 500 l 1,15,-1
 183 417 l 1,16,17
 232 510 232 510 352 510 c 0,0,1
EndSplineSet
Substitution2: "Single Substitution lookup 57 subtable" n.swsh
Substitution2: "'swsh' Swash lookup 38 subtable" n.swsh
Substitution2: "'smcp' Lowercase to Small Capitals lookup 12 subtable" n.sc
AlternateSubs2: "'aalt' Access All Alternates lookup 1 subtable" n.sc n.swsh
EndChar

StartChar: o
Encoding: 111 111 82
Width: 606
GlyphClass: 2
Flags: W
LayerCount: 2
Fore
SplineSet
303 510 m 128,-1,1
 420 510 420 510 486 441 c 128,-1,2
 552 372 552 372 552 250 c 128,-1,3
 552 128 552 128 486 59 c 128,-1,4
 420 -10 420 -10 303 -10 c 128,-1,5
 186 -10 186 -10 120 59 c 128,-1,6
 54 128 54 128 54 250 c 128,-1,7
 54 372 54 372 120 441 c 128,-1,0
 186 510 186 510 303 510 c 128,-1,1
303 426 m 128,-1,9
 235 426 235 426 198.5 380.5 c 128,-1,10
 162 335 162 335 162 250 c 128,-1,11
 162 165 162 165 198.5 119.5 c 128,-1,12
 235 74 235 74 303 74 c 128,-1,13
 371 74 371 74 408 120 c 128,-1,14
 445 166 445 166 445 250 c 128,-1,15
 445 334 445 334 408 380 c 128,-1,8
 371 426 371 426 303 426 c 128,-1,9
EndSplineSet
Substitution2: "Single Substitution lookup 55 subtable" ordmasculine
Substitution2: "'smcp' Lowercase to Small Capitals lookup 12 subtable" o.sc
AlternateSubs2: "'aalt' Access All Alternates lookup 1 subtable" o.sc ordmasculine
EndChar

StartChar: p
Encoding: 112 112 83
Width: 629
GlyphClass: 2
Flags: W
LayerCount: 2
Fore
SplineSet
352 510 m 0,0,1
 455 510 455 510 514 441.5 c 128,-1,2
 573 373 573 373 573 251 c 128,-1,3
 573 129 573 129 514 59.5 c 128,-1,4
 455 -10 455 -10 352 -10 c 0,5,6
 298 -10 298 -10 255.5 14 c 128,-1,7
 213 38 213 38 190 80 c 1,8,-1
 190 -210 l 1,9,-1
 83 -210 l 1,10,-1
 83 500 l 1,11,-1
 177 500 l 1,12,-1
 182 407 l 1,13,14
 204 454 204 454 248.5 482 c 128,-1,15
 293 510 293 510 352 510 c 0,0,1
328 77 m 0,16,17
 393 77 393 77 429.5 122.5 c 128,-1,18
 466 168 466 168 466 250 c 128,-1,19
 466 332 466 332 429.5 378 c 128,-1,20
 393 424 393 424 328 424 c 0,21,22
 267 424 267 424 230.5 383 c 128,-1,23
 194 342 194 342 190 269 c 1,24,-1
 190 231 l 1,25,26
 194 159 194 159 230.5 118 c 128,-1,27
 267 77 267 77 328 77 c 0,16,17
EndSplineSet
Substitution2: "'smcp' Lowercase to Small Capitals lookup 12 subtable" p.sc
Substitution2: "'aalt' Access All Alternates lookup 0 subtable" p.sc
EndChar

StartChar: q
Encoding: 113 113 84
Width: 630
GlyphClass: 2
Flags: W
LayerCount: 2
Fore
SplineSet
453 500 m 1,0,-1
 547 500 l 1,1,-1
 547 -210 l 1,2,-1
 440 -210 l 1,3,-1
 440 81 l 1,4,5
 390 -10 390 -10 279 -10 c 0,6,7
 176 -10 176 -10 116.5 59.5 c 128,-1,8
 57 129 57 129 57 251 c 128,-1,9
 57 373 57 373 116 441.5 c 128,-1,10
 175 510 175 510 278 510 c 0,11,12
 337 510 337 510 381.5 482.5 c 128,-1,13
 426 455 426 455 448 408 c 1,14,-1
 453 500 l 1,0,-1
302 77 m 0,15,16
 365 77 365 77 402.5 121.5 c 128,-1,17
 440 166 440 166 440 244 c 2,18,-1
 440 256 l 2,19,20
 440 334 440 334 402.5 379 c 128,-1,21
 365 424 365 424 302 424 c 0,22,23
 237 424 237 424 200.5 378 c 128,-1,24
 164 332 164 332 164 250 c 128,-1,25
 164 168 164 168 200.5 122.5 c 128,-1,26
 237 77 237 77 302 77 c 0,15,16
EndSplineSet
Substitution2: "'smcp' Lowercase to Small Capitals lookup 12 subtable" q.sc
Substitution2: "'aalt' Access All Alternates lookup 0 subtable" q.sc
EndChar

StartChar: r
Encoding: 114 114 85
Width: 414
GlyphClass: 2
Flags: W
AnchorPoint: "Anchor-0" 152 0 basechar 0
LayerCount: 2
Fore
SplineSet
341 510 m 0,0,1
 376 510 376 510 396 500 c 1,2,-1
 379 402 l 1,3,4
 356 415 356 415 316 415 c 0,5,6
 266 415 266 415 228 375.5 c 128,-1,7
 190 336 190 336 190 265 c 2,8,-1
 190 0 l 1,9,-1
 83 0 l 1,10,-1
 83 500 l 1,11,-1
 174 500 l 1,12,-1
 183 410 l 1,13,14
 225 510 225 510 341 510 c 0,0,1
EndSplineSet
Substitution2: "Single Substitution lookup 57 subtable" r.swsh
Substitution2: "'swsh' Swash lookup 38 subtable" r.swsh
Substitution2: "'smcp' Lowercase to Small Capitals lookup 12 subtable" r.sc
AlternateSubs2: "'aalt' Access All Alternates lookup 1 subtable" r.sc r.swsh
EndChar

StartChar: s
Encoding: 115 115 86
Width: 529
GlyphClass: 2
Flags: W
AnchorPoint: "Anchor-0" 278 0 basechar 0
LayerCount: 2
Fore
SplineSet
264 -10 m 0,0,1
 101 -10 101 -10 41 95 c 1,2,-1
 113 157 l 1,3,4
 149 74 149 74 268 74 c 0,5,6
 319 74 319 74 347 90.5 c 128,-1,7
 375 107 375 107 375 134 c 0,8,9
 375 158 375 158 349 172.5 c 128,-1,10
 323 187 323 187 259 200 c 0,11,12
 148 221 148 221 103 256 c 128,-1,13
 58 291 58 291 58 355 c 128,-1,14
 58 419 58 419 115 464.5 c 128,-1,15
 172 510 172 510 268 510 c 0,16,17
 351 510 351 510 401 482.5 c 128,-1,18
 451 455 451 455 478 397 c 1,19,-1
 400 339 l 1,20,21
 367 426 367 426 269 426 c 0,22,23
 224 426 224 426 194.5 407.5 c 128,-1,24
 165 389 165 389 165 365 c 0,25,26
 165 338 165 338 191.5 322 c 128,-1,27
 218 306 218 306 288 293 c 0,28,29
 394 274 394 274 438 239 c 128,-1,30
 482 204 482 204 482 141 c 0,31,32
 482 74 482 74 424 32 c 128,-1,33
 366 -10 366 -10 264 -10 c 0,0,1
EndSplineSet
Substitution2: "'hist' Historical Forms lookup 44 subtable" longs
Substitution2: "'smcp' Lowercase to Small Capitals lookup 12 subtable" s.sc
AlternateSubs2: "'aalt' Access All Alternates lookup 1 subtable" s.sc longs
EndChar

StartChar: t
Encoding: 116 116 87
Width: 424
GlyphClass: 2
Flags: W
AnchorPoint: "Anchor-0" 255 0 basechar 0
LayerCount: 2
Fore
SplineSet
382 111 m 1,0,-1
 407 33 l 1,1,2
 356 -10 356 -10 274 -10 c 0,3,4
 205 -10 205 -10 163.5 24.5 c 128,-1,5
 122 59 122 59 121 132 c 2,6,-1
 121 416 l 1,7,-1
 26 416 l 1,8,-1
 26 500 l 1,9,-1
 121 500 l 1,10,-1
 121 617 l 1,11,-1
 228 647 l 1,12,-1
 228 500 l 1,13,-1
 403 500 l 1,14,-1
 403 416 l 1,15,-1
 228 416 l 1,16,-1
 228 150 l 2,17,18
 228 79 228 79 301 79 c 0,19,20
 347 79 347 79 382 111 c 1,0,-1
EndSplineSet
Substitution2: "Single Substitution lookup 57 subtable" t.swsh
Substitution2: "'swsh' Swash lookup 38 subtable" t.swsh
Substitution2: "'smcp' Lowercase to Small Capitals lookup 12 subtable" t.sc
AlternateSubs2: "'aalt' Access All Alternates lookup 1 subtable" t.sc t.swsh
EndChar

StartChar: u
Encoding: 117 117 88
Width: 619
GlyphClass: 2
Flags: W
LayerCount: 2
Fore
SplineSet
429 500 m 1,0,-1
 536 500 l 1,1,-1
 536 0 l 1,2,-1
 441 0 l 1,3,-1
 437 81 l 1,4,5
 386 -10 386 -10 259 -10 c 0,6,7
 178 -10 178 -10 128.5 34.5 c 128,-1,8
 79 79 79 79 79 171 c 2,9,-1
 79 500 l 1,10,-1
 186 500 l 1,11,-1
 186 199 l 2,12,13
 186 133 186 133 212 105.5 c 128,-1,14
 238 78 238 78 289 78 c 0,15,16
 350 78 350 78 389.5 116.5 c 128,-1,17
 429 155 429 155 429 230 c 2,18,-1
 429 500 l 1,0,-1
EndSplineSet
Substitution2: "'smcp' Lowercase to Small Capitals lookup 12 subtable" u.sc
Substitution2: "'aalt' Access All Alternates lookup 0 subtable" u.sc
EndChar

StartChar: v
Encoding: 118 118 89
Width: 532
GlyphClass: 2
Flags: W
LayerCount: 2
Fore
SplineSet
412 500 m 1,0,-1
 524 500 l 1,1,-1
 325 0 l 1,2,-1
 208 0 l 1,3,-1
 8 500 l 1,4,-1
 126 500 l 1,5,-1
 267 87 l 1,6,-1
 412 500 l 1,0,-1
EndSplineSet
Substitution2: "'smcp' Lowercase to Small Capitals lookup 12 subtable" v.sc
Substitution2: "'aalt' Access All Alternates lookup 0 subtable" v.sc
EndChar

StartChar: w
Encoding: 119 119 90
Width: 871
GlyphClass: 2
Flags: W
LayerCount: 2
Fore
SplineSet
727 500 m 1,0,-1
 843 500 l 1,1,-1
 676 0 l 1,2,-1
 559 0 l 1,3,-1
 433 378 l 1,4,-1
 313 0 l 1,5,-1
 196 0 l 1,6,-1
 29 500 l 1,7,-1
 145 500 l 1,8,-1
 258 100 l 1,9,-1
 383 500 l 1,10,-1
 489 500 l 1,11,-1
 613 100 l 1,12,-1
 727 500 l 1,0,-1
EndSplineSet
Substitution2: "'smcp' Lowercase to Small Capitals lookup 12 subtable" w.sc
Substitution2: "'aalt' Access All Alternates lookup 0 subtable" w.sc
EndChar

StartChar: x
Encoding: 120 120 91
Width: 550
GlyphClass: 2
Flags: W
LayerCount: 2
Fore
SplineSet
525 0 m 1,0,-1
 399 0 l 1,1,-1
 273 188 l 1,2,-1
 143 0 l 1,3,-1
 22 0 l 1,4,-1
 210 252 l 1,5,-1
 32 500 l 1,6,-1
 160 500 l 1,7,-1
 280 319 l 1,8,-1
 399 500 l 1,9,-1
 522 500 l 1,10,-1
 343 255 l 1,11,-1
 525 0 l 1,0,-1
EndSplineSet
Substitution2: "'smcp' Lowercase to Small Capitals lookup 12 subtable" x.sc
Substitution2: "'aalt' Access All Alternates lookup 0 subtable" x.sc
EndChar

StartChar: y
Encoding: 121 121 92
Width: 546
GlyphClass: 2
Flags: W
LayerCount: 2
Fore
SplineSet
533 500 m 1,0,-1
 314 -59 l 2,1,2
 281 -145 281 -145 239 -180 c 128,-1,3
 197 -215 197 -215 129 -215 c 0,4,5
 54 -215 54 -215 11 -175 c 1,6,-1
 42 -93 l 1,7,8
 72 -129 72 -129 124 -129 c 0,9,10
 154 -129 154 -129 174.5 -113.5 c 128,-1,11
 195 -98 195 -98 211 -57 c 2,12,-1
 233 -3 l 1,13,-1
 181 121 l 1,14,-1
 25 500 l 1,15,-1
 145 500 l 1,16,-1
 255 186 l 1,17,-1
 284 92 l 1,18,-1
 318 195 l 1,19,-1
 422 500 l 1,20,-1
 533 500 l 1,0,-1
EndSplineSet
Substitution2: "Single Substitution lookup 57 subtable" y.swsh
Substitution2: "'swsh' Swash lookup 38 subtable" y.swsh
Substitution2: "'smcp' Lowercase to Small Capitals lookup 12 subtable" y.sc
AlternateSubs2: "'aalt' Access All Alternates lookup 1 subtable" y.sc y.swsh
EndChar

StartChar: z
Encoding: 122 122 93
Width: 528
GlyphClass: 2
Flags: W
LayerCount: 2
Fore
SplineSet
51 0 m 1,0,-1
 51 74 l 1,1,-1
 294 356 l 1,2,-1
 354 418 l 1,3,-1
 268 416 l 1,4,-1
 53 416 l 1,5,-1
 53 500 l 1,6,-1
 472 500 l 1,7,-1
 472 426 l 1,8,-1
 230 144 l 1,9,-1
 170 82 l 1,10,-1
 265 84 l 1,11,-1
 481 84 l 1,12,-1
 481 0 l 1,13,-1
 51 0 l 1,0,-1
EndSplineSet
Substitution2: "'smcp' Lowercase to Small Capitals lookup 12 subtable" z.sc
Substitution2: "'aalt' Access All Alternates lookup 0 subtable" z.sc
EndChar

StartChar: braceleft
Encoding: 123 123 94
Width: 372
GlyphClass: 2
Flags: W
LayerCount: 2
Fore
SplineSet
237 -50 m 2,0,1
 237 -82 237 -82 260.5 -97 c 128,-1,2
 284 -112 284 -112 336 -112 c 1,3,-1
 325 -190 l 1,4,5
 228 -190 228 -190 186 -156.5 c 128,-1,6
 144 -123 144 -123 144 -52 c 2,7,-1
 144 133 l 2,8,9
 144 189 144 189 118.5 213 c 128,-1,10
 93 237 93 237 32 237 c 1,11,-1
 32 319 l 1,12,13
 93 319 93 319 118.5 343 c 128,-1,14
 144 367 144 367 144 423 c 2,15,-1
 144 609 l 2,16,17
 144 680 144 680 186 713.5 c 128,-1,18
 228 747 228 747 325 747 c 1,19,-1
 336 669 l 1,20,21
 237 669 237 669 237 607 c 2,22,-1
 237 408 l 2,23,24
 237 306 237 306 126 278 c 1,25,26
 237 252 237 252 237 149 c 2,27,-1
 237 -50 l 2,0,1
EndSplineSet
Substitution2: "'case' Case-Sensitive Forms lookup 29 subtable" braceleft.case
Substitution2: "'aalt' Access All Alternates lookup 0 subtable" braceleft.case
EndChar

StartChar: bar
Encoding: 124 124 95
Width: 266
GlyphClass: 2
Flags: W
LayerCount: 2
Fore
SplineSet
180 725 m 1,0,-1
 180 -168 l 1,1,-1
 86 -168 l 1,2,-1
 86 725 l 1,3,-1
 180 725 l 1,0,-1
EndSplineSet
Substitution2: "'case' Case-Sensitive Forms lookup 29 subtable" bar.case
Substitution2: "'aalt' Access All Alternates lookup 0 subtable" bar.case
EndChar

StartChar: braceright
Encoding: 125 125 96
Width: 372
GlyphClass: 2
Flags: W
LayerCount: 2
Fore
SplineSet
228 423 m 2,0,1
 228 367 228 367 253.5 343 c 128,-1,2
 279 319 279 319 340 319 c 1,3,-1
 340 237 l 1,4,5
 279 237 279 237 253.5 213 c 128,-1,6
 228 189 228 189 228 133 c 2,7,-1
 228 -52 l 2,8,9
 228 -123 228 -123 186 -156.5 c 128,-1,10
 144 -190 144 -190 47 -190 c 1,11,-1
 36 -112 l 1,12,13
 88 -112 88 -112 111 -97 c 128,-1,14
 134 -82 134 -82 134 -50 c 2,15,-1
 134 149 l 2,16,17
 134 252 134 252 245 278 c 1,18,19
 134 306 134 306 134 408 c 2,20,-1
 134 607 l 2,21,22
 134 639 134 639 111 654 c 128,-1,23
 88 669 88 669 36 669 c 1,24,-1
 47 747 l 1,25,26
 144 747 144 747 186 713.5 c 128,-1,27
 228 680 228 680 228 609 c 2,28,-1
 228 423 l 2,0,1
EndSplineSet
Substitution2: "'case' Case-Sensitive Forms lookup 29 subtable" braceright.case
Substitution2: "'aalt' Access All Alternates lookup 0 subtable" braceright.case
EndChar

StartChar: asciitilde
Encoding: 126 126 97
Width: 557
GlyphClass: 2
Flags: W
LayerCount: 2
Fore
SplineSet
514 396 m 1,0,1
 503 234 503 234 375 234 c 0,2,3
 336 234 336 234 303 252 c 128,-1,4
 270 270 270 270 243.5 287.5 c 128,-1,5
 217 305 217 305 194 305 c 0,6,7
 147 305 147 305 136 235 c 1,8,-1
 43 235 l 1,9,10
 54 398 54 398 183 398 c 0,11,12
 221 398 221 398 254 380 c 128,-1,13
 287 362 287 362 314 344.5 c 128,-1,14
 341 327 341 327 364 327 c 0,15,16
 410 327 410 327 421 396 c 1,17,-1
 514 396 l 1,0,1
EndSplineSet
EndChar

StartChar: exclamdown
Encoding: 161 161 99
Width: 274
GlyphClass: 2
Flags: W
LayerCount: 2
Fore
SplineSet
137 368 m 128,-1,1
 103 368 103 368 83 387.5 c 128,-1,2
 63 407 63 407 63 439 c 128,-1,3
 63 471 63 471 83 490 c 128,-1,4
 103 509 103 509 137 509 c 0,5,6
 172 509 172 509 192 490 c 128,-1,7
 212 471 212 471 212 439 c 128,-1,8
 212 407 212 407 191.5 387.5 c 128,-1,0
 171 368 171 368 137 368 c 128,-1,1
81 -160 m 1,9,-1
 81 104 l 1,10,-1
 95 290 l 1,11,-1
 179 290 l 1,12,-1
 193 104 l 1,13,-1
 193 -160 l 1,14,-1
 81 -160 l 1,9,-1
EndSplineSet
Substitution2: "'case' Case-Sensitive Forms lookup 29 subtable" exclamdown.case
Substitution2: "'smcp' Lowercase to Small Capitals lookup 12 subtable" exclamdown.sc
Substitution2: "'c2sc' Capitals to Small Capitals lookup 11 subtable" exclamdown.sc
AlternateSubs2: "'aalt' Access All Alternates lookup 1 subtable" exclamdown.sc exclamdown.case
EndChar

StartChar: cent
Encoding: 162 162 100
Width: 604
GlyphClass: 2
Flags: W
LayerCount: 2
Fore
SplineSet
530 140 m 1,0,1
 513 76 513 76 465 37 c 128,-1,2
 417 -2 417 -2 344 -9 c 1,3,-1
 344 -100 l 1,4,-1
 271 -100 l 1,5,-1
 271 -8 l 1,6,7
 172 5 172 5 117.5 72 c 128,-1,8
 63 139 63 139 63 250 c 128,-1,9
 63 361 63 361 118 428.5 c 128,-1,10
 173 496 173 496 271 508 c 1,11,-1
 271 600 l 1,12,-1
 344 600 l 1,13,-1
 344 508 l 1,14,15
 484 495 484 495 527 370 c 1,16,-1
 435 331 l 1,17,18
 412 414 412 414 344 429 c 1,19,-1
 344 70 l 1,20,21
 420 85 420 85 443 170 c 1,22,-1
 530 140 l 1,0,1
160 249 m 0,23,24
 160 96 160 96 271 71 c 1,25,-1
 271 429 l 1,26,27
 160 404 160 404 160 249 c 0,23,24
EndSplineSet
Substitution2: "'tnum' Tabular Numbers lookup 26 subtable" cent.tf
Substitution2: "'aalt' Access All Alternates lookup 0 subtable" cent.tf
EndChar

StartChar: sterling
Encoding: 163 163 101
Width: 604
GlyphClass: 2
Flags: W
LayerCount: 2
Fore
SplineSet
560 160 m 1,0,1
 562 79 562 79 527.5 34.5 c 128,-1,2
 493 -10 493 -10 428 -10 c 0,3,4
 366 -10 366 -10 282 48 c 1,5,6
 231 -10 231 -10 147 -10 c 0,7,8
 97 -10 97 -10 66.5 14 c 128,-1,9
 36 38 36 38 36 78 c 0,10,11
 36 117 36 117 68.5 142.5 c 128,-1,12
 101 168 101 168 154 168 c 128,-1,13
 207 168 207 168 255 145 c 1,14,15
 256 153 256 153 256 170 c 0,16,17
 256 221 256 221 221 275 c 1,18,-1
 65 275 l 1,19,-1
 65 348 l 1,20,-1
 168 348 l 1,21,22
 121 416 121 416 121 469 c 0,23,24
 121 556 121 556 180 613 c 128,-1,25
 239 670 239 670 334 670 c 0,26,27
 492 670 492 670 534 509 c 1,28,-1
 445 466 l 1,29,30
 433 525 433 525 405.5 553.5 c 128,-1,31
 378 582 378 582 329 582 c 0,32,33
 278 582 278 582 247.5 553.5 c 128,-1,34
 217 525 217 525 217 477 c 0,35,36
 217 450 217 450 227.5 424.5 c 128,-1,37
 238 399 238 399 268 356 c 2,38,-1
 273 348 l 1,39,-1
 457 348 l 1,40,-1
 457 275 l 1,41,-1
 314 275 l 1,42,43
 334 227 334 227 333 178 c 0,44,45
 331 139 331 139 318 105 c 1,46,47
 368 69 368 69 412 69 c 0,48,49
 449 69 449 69 466 91 c 128,-1,50
 483 113 483 113 483 163 c 1,51,-1
 560 160 l 1,0,1
155 47 m 0,52,53
 206 47 206 47 231 82 c 1,54,55
 191 107 191 107 155 107 c 0,56,57
 113 107 113 107 113 78 c 0,58,59
 113 47 113 47 155 47 c 0,52,53
EndSplineSet
Substitution2: "'tnum' Tabular Numbers lookup 26 subtable" sterling.tf
Substitution2: "'aalt' Access All Alternates lookup 0 subtable" sterling.tf
EndChar

StartChar: currency
Encoding: 164 164 102
Width: 604
GlyphClass: 2
Flags: W
LayerCount: 2
Fore
SplineSet
513 329 m 0,0,1
 513 262 513 262 480 210 c 1,2,-1
 571 124 l 1,3,-1
 506 59 l 1,4,-1
 417 150 l 1,5,6
 367 119 367 119 302 119 c 128,-1,7
 237 119 237 119 184 151 c 1,8,-1
 97 59 l 1,9,-1
 32 124 l 1,10,-1
 122 212 l 1,11,12
 90 265 90 265 90 329 c 0,13,14
 90 395 90 395 123 447 c 1,15,-1
 32 533 l 1,16,-1
 97 598 l 1,17,-1
 186 507 l 1,18,19
 236 538 236 538 302 538 c 0,20,21
 369 538 369 538 419 506 c 1,22,-1
 506 598 l 1,23,-1
 571 533 l 1,24,-1
 481 445 l 1,25,26
 513 395 513 395 513 329 c 0,0,1
302 205 m 0,27,28
 352 205 352 205 385 240 c 128,-1,29
 418 275 418 275 418 329 c 128,-1,30
 418 383 418 383 385 417.5 c 128,-1,31
 352 452 352 452 302 452 c 0,32,33
 251 452 251 452 218 417.5 c 128,-1,34
 185 383 185 383 185 329 c 128,-1,35
 185 275 185 275 218 240 c 128,-1,36
 251 205 251 205 302 205 c 0,27,28
EndSplineSet
Substitution2: "'tnum' Tabular Numbers lookup 26 subtable" currency.tf
Substitution2: "'aalt' Access All Alternates lookup 0 subtable" currency.tf
EndChar

StartChar: yen
Encoding: 165 165 103
Width: 604
GlyphClass: 2
Flags: W
LayerCount: 2
Fore
SplineSet
369 296 m 1,0,-1
 414 299 l 1,1,-1
 537 299 l 1,2,-1
 537 240 l 1,3,-1
 350 240 l 1,4,-1
 350 167 l 1,5,-1
 537 167 l 1,6,-1
 537 111 l 1,7,-1
 350 111 l 1,8,-1
 350 0 l 1,9,-1
 254 0 l 1,10,-1
 254 111 l 1,11,-1
 68 111 l 1,12,-1
 68 167 l 1,13,-1
 254 167 l 1,14,-1
 254 240 l 1,15,-1
 68 240 l 1,16,-1
 68 299 l 1,17,-1
 190 299 l 1,18,-1
 235 296 l 1,19,-1
 23 660 l 1,20,-1
 137 660 l 1,21,-1
 257 427 l 1,22,-1
 301 327 l 1,23,-1
 303 327 l 1,24,-1
 347 428 l 1,25,-1
 467 660 l 1,26,-1
 581 660 l 1,27,-1
 369 296 l 1,0,-1
EndSplineSet
Substitution2: "'tnum' Tabular Numbers lookup 26 subtable" yen.tf
Substitution2: "'aalt' Access All Alternates lookup 0 subtable" yen.tf
EndChar

StartChar: brokenbar
Encoding: 166 166 104
Width: 260
GlyphClass: 2
Flags: W
LayerCount: 2
Fore
SplineSet
177 725 m 1,0,-1
 177 357 l 1,1,-1
 83 357 l 1,2,-1
 83 725 l 1,3,-1
 177 725 l 1,0,-1
177 200 m 1,4,-1
 177 -168 l 1,5,-1
 83 -168 l 1,6,-1
 83 200 l 1,7,-1
 177 200 l 1,4,-1
EndSplineSet
EndChar

StartChar: section
Encoding: 167 167 105
Width: 605
GlyphClass: 2
Flags: W
LayerCount: 2
Fore
SplineSet
579 273 m 0,0,1
 579 186 579 186 493 134 c 1,2,3
 519 99 519 99 519 46 c 0,4,5
 519 -22 519 -22 460 -66 c 128,-1,6
 401 -110 401 -110 303 -110 c 0,7,8
 156 -110 156 -110 83 -10 c 1,9,-1
 151 48 l 1,10,11
 196 -28 196 -28 302 -28 c 0,12,13
 361 -28 361 -28 393 -11 c 128,-1,14
 425 6 425 6 425 37 c 0,15,16
 425 75 425 75 389 95.5 c 128,-1,17
 353 116 353 116 260 128 c 0,18,19
 135 143 135 143 82 179.5 c 128,-1,20
 29 216 29 216 29 285 c 0,21,22
 29 373 29 373 116 424 c 1,23,24
 90 457 90 457 90 511 c 0,25,26
 90 580 90 580 150 625 c 128,-1,27
 210 670 210 670 311 670 c 0,28,29
 392 670 392 670 441.5 644.5 c 128,-1,30
 491 619 491 619 526 570 c 1,31,-1
 460 513 l 1,32,33
 434 551 434 551 399.5 569.5 c 128,-1,34
 365 588 365 588 310 588 c 0,35,36
 250 588 250 588 217 570 c 128,-1,37
 184 552 184 552 184 521 c 0,38,39
 184 482 184 482 219.5 461.5 c 128,-1,40
 255 441 255 441 348 430 c 0,41,42
 473 415 473 415 526 378.5 c 128,-1,43
 579 342 579 342 579 273 c 0,0,1
122 297 m 0,44,45
 122 263 122 263 155.5 245 c 128,-1,46
 189 227 189 227 277 217 c 0,47,48
 370 206 370 206 421 185 c 1,49,50
 487 212 487 212 487 261 c 0,51,52
 487 295 487 295 452.5 312.5 c 128,-1,53
 418 330 418 330 331 340 c 0,54,55
 238 351 238 351 187 372 c 1,56,57
 122 344 122 344 122 297 c 0,44,45
EndSplineSet
EndChar

StartChar: dieresis
Encoding: 168 168 106
Width: 500
GlyphClass: 2
Flags: W
LayerCount: 2
Fore
SplineSet
151 700 m 0,0,1
 181 700 181 700 199 683 c 128,-1,2
 217 666 217 666 217 637 c 128,-1,3
 217 608 217 608 199 591 c 128,-1,4
 181 574 181 574 151 574 c 0,5,6
 122 574 122 574 104 591.5 c 128,-1,7
 86 609 86 609 86 637 c 0,8,9
 86 666 86 666 104 683 c 128,-1,10
 122 700 122 700 151 700 c 0,0,1
353 700 m 128,-1,12
 383 700 383 700 401 683 c 128,-1,13
 419 666 419 666 419 637 c 128,-1,14
 419 608 419 608 401 591 c 128,-1,15
 383 574 383 574 353 574 c 128,-1,16
 323 574 323 574 305.5 591 c 128,-1,17
 288 608 288 608 288 637 c 128,-1,18
 288 666 288 666 305.5 683 c 128,-1,11
 323 700 323 700 353 700 c 128,-1,12
EndSplineSet
EndChar

StartChar: copyright
Encoding: 169 169 107
Width: 806
GlyphClass: 2
Flags: W
LayerCount: 2
Fore
SplineSet
403 670 m 128,-1,1
 559 670 559 670 652.5 577.5 c 128,-1,2
 746 485 746 485 746 330 c 128,-1,3
 746 175 746 175 652.5 82.5 c 128,-1,4
 559 -10 559 -10 403 -10 c 128,-1,5
 247 -10 247 -10 153.5 82.5 c 128,-1,6
 60 175 60 175 60 330 c 128,-1,7
 60 485 60 485 153.5 577.5 c 128,-1,0
 247 670 247 670 403 670 c 128,-1,1
403 599 m 128,-1,9
 282 599 282 599 209 525.5 c 128,-1,10
 136 452 136 452 136 330 c 128,-1,11
 136 208 136 208 209 134.5 c 128,-1,12
 282 61 282 61 403 61 c 128,-1,13
 524 61 524 61 596.5 134.5 c 128,-1,14
 669 208 669 208 669 330 c 128,-1,15
 669 452 669 452 596.5 525.5 c 128,-1,8
 524 599 524 599 403 599 c 128,-1,9
407 515 m 0,16,17
 528 515 528 515 570 415 c 1,18,-1
 500 381 l 1,19,20
 477 438 477 438 409 438 c 0,21,22
 362 438 362 438 335 409 c 128,-1,23
 308 380 308 380 308 328 c 128,-1,24
 308 276 308 276 335 247 c 128,-1,25
 362 218 362 218 409 218 c 0,26,27
 483 218 483 218 506 279 c 1,28,-1
 572 250 l 1,29,30
 530 142 530 142 407 142 c 0,31,32
 323 142 323 142 274.5 192 c 128,-1,33
 226 242 226 242 226 328 c 0,34,35
 226 415 226 415 274.5 465 c 128,-1,36
 323 515 323 515 407 515 c 0,16,17
EndSplineSet
EndChar

StartChar: ordfeminine
Encoding: 170 170 108
Width: 399
GlyphClass: 2
Flags: W
LayerCount: 2
Fore
SplineSet
356 378 m 0,0,1
 372 378 372 378 379 382 c 1,2,-1
 373 331 l 1,3,4
 353 321 353 321 329 321 c 0,5,6
 268 321 268 321 256 372 c 1,7,8
 218 321 218 321 130 321 c 0,9,10
 78 321 78 321 49 342.5 c 128,-1,11
 20 364 20 364 20 404 c 0,12,13
 20 487 20 487 152 511 c 2,14,-1
 241 527 l 1,15,-1
 241 540 l 2,16,17
 241 569 241 569 223.5 585 c 128,-1,18
 206 601 206 601 175 601 c 0,19,20
 110 601 110 601 91 543 c 1,21,-1
 26 570 l 1,22,23
 36 614 36 614 75.5 639 c 128,-1,24
 115 664 115 664 179 664 c 0,25,26
 326 664 326 664 326 541 c 2,27,-1
 326 409 l 2,28,29
 326 378 326 378 356 378 c 0,0,1
158 381 m 0,30,31
 189 381 189 381 215 398 c 128,-1,32
 241 415 241 415 241 442 c 2,33,-1
 241 480 l 1,34,-1
 179 467 l 2,35,36
 140 459 140 459 123 447.5 c 128,-1,37
 106 436 106 436 106 416 c 0,38,39
 106 381 106 381 158 381 c 0,30,31
28 186 m 1,40,-1
 28 250 l 1,41,-1
 362 250 l 1,42,-1
 362 186 l 1,43,-1
 28 186 l 1,40,-1
EndSplineSet
EndChar

StartChar: guillemotleft
Encoding: 171 171 109
Width: 521
GlyphClass: 2
Flags: W
LayerCount: 2
Fore
SplineSet
277 461 m 1,0,-1
 151 265 l 1,1,-1
 277 69 l 1,2,-1
 172 69 l 1,3,-1
 46 265 l 1,4,-1
 172 461 l 1,5,-1
 277 461 l 1,0,-1
474 461 m 1,6,-1
 348 265 l 1,7,-1
 474 69 l 1,8,-1
 369 69 l 1,9,-1
 243 265 l 1,10,-1
 369 461 l 1,11,-1
 474 461 l 1,6,-1
EndSplineSet
Substitution2: "'case' Case-Sensitive Forms lookup 29 subtable" guillemotleft.case
Substitution2: "'aalt' Access All Alternates lookup 0 subtable" guillemotleft.case
EndChar

StartChar: logicalnot
Encoding: 172 172 110
Width: 604
GlyphClass: 2
Flags: W
LayerCount: 2
Fore
SplineSet
59 364 m 1,0,-1
 545 364 l 1,1,-1
 545 121 l 1,2,-1
 448 121 l 1,3,-1
 448 275 l 1,4,-1
 59 275 l 1,5,-1
 59 364 l 1,0,-1
EndSplineSet
EndChar

StartChar: uni00AD
Encoding: 173 173 111
Width: 515
GlyphClass: 2
Flags: W
LayerCount: 2
Fore
SplineSet
428 313 m 1,0,-1
 428 214 l 1,1,-1
 87 214 l 1,2,-1
 87 313 l 1,3,-1
 428 313 l 1,0,-1
EndSplineSet
EndChar

StartChar: registered
Encoding: 174 174 112
Width: 806
GlyphClass: 2
Flags: W
LayerCount: 2
Fore
SplineSet
403 670 m 128,-1,1
 559 670 559 670 652.5 577.5 c 128,-1,2
 746 485 746 485 746 330 c 128,-1,3
 746 175 746 175 652.5 82.5 c 128,-1,4
 559 -10 559 -10 403 -10 c 128,-1,5
 247 -10 247 -10 153.5 82.5 c 128,-1,6
 60 175 60 175 60 330 c 128,-1,7
 60 485 60 485 153.5 577.5 c 128,-1,0
 247 670 247 670 403 670 c 128,-1,1
403 61 m 128,-1,9
 524 61 524 61 596.5 134.5 c 128,-1,10
 669 208 669 208 669 330 c 128,-1,11
 669 452 669 452 596.5 525.5 c 128,-1,12
 524 599 524 599 403 599 c 128,-1,13
 282 599 282 599 209 525.5 c 128,-1,14
 136 452 136 452 136 330 c 128,-1,15
 136 208 136 208 209 134.5 c 128,-1,8
 282 61 282 61 403 61 c 128,-1,9
566 395 m 0,16,17
 566 353 566 353 543 324 c 128,-1,18
 520 295 520 295 479 284 c 1,19,-1
 574 146 l 1,20,-1
 484 146 l 1,21,-1
 403 277 l 1,22,-1
 347 277 l 1,23,-1
 347 146 l 1,24,-1
 270 146 l 1,25,-1
 270 514 l 1,26,-1
 429 514 l 2,27,28
 490 514 490 514 528 481.5 c 128,-1,29
 566 449 566 449 566 395 c 0,16,17
347 453 m 1,30,-1
 347 333 l 1,31,-1
 421 333 l 2,32,33
 488 333 488 333 488 393 c 128,-1,34
 488 453 488 453 421 453 c 2,35,-1
 347 453 l 1,30,-1
EndSplineSet
Substitution2: "'ordn' Ordinals lookup 22 subtable" registeredsuperior
Substitution2: "'sups' Superscript lookup 15 subtable" registeredsuperior
Substitution2: "'aalt' Access All Alternates lookup 0 subtable" registeredsuperior
EndChar

StartChar: macron
Encoding: 175 175 113
Width: 500
GlyphClass: 2
Flags: W
LayerCount: 2
Fore
SplineSet
428 666 m 1,0,-1
 428 588 l 1,1,-1
 72 588 l 1,2,-1
 72 666 l 1,3,-1
 428 666 l 1,0,-1
EndSplineSet
EndChar

StartChar: degree
Encoding: 176 176 114
Width: 471
GlyphClass: 2
Flags: W
LayerCount: 2
Fore
SplineSet
235 327 m 128,-1,1
 155 327 155 327 105.5 375 c 128,-1,2
 56 423 56 423 56 499 c 128,-1,3
 56 575 56 575 106 622.5 c 128,-1,4
 156 670 156 670 235 670 c 0,5,6
 315 670 315 670 365 622.5 c 128,-1,7
 415 575 415 575 415 499 c 0,8,9
 415 422 415 422 365 374.5 c 128,-1,0
 315 327 315 327 235 327 c 128,-1,1
235 406 m 128,-1,11
 276 406 276 406 302.5 432 c 128,-1,12
 329 458 329 458 329 499 c 128,-1,13
 329 540 329 540 302.5 566 c 128,-1,14
 276 592 276 592 235 592 c 128,-1,15
 194 592 194 592 168 566 c 128,-1,16
 142 540 142 540 142 499 c 128,-1,17
 142 458 142 458 168 432 c 128,-1,10
 194 406 194 406 235 406 c 128,-1,11
EndSplineSet
EndChar

StartChar: plusminus
Encoding: 177 177 115
Width: 604
GlyphClass: 2
Flags: W
LayerCount: 2
Fore
SplineSet
347 447 m 1,0,-1
 548 447 l 1,1,-1
 548 359 l 1,2,-1
 347 359 l 1,3,-1
 347 163 l 1,4,-1
 258 163 l 1,5,-1
 258 359 l 1,6,-1
 56 359 l 1,7,-1
 56 447 l 1,8,-1
 258 447 l 1,9,-1
 258 644 l 1,10,-1
 347 644 l 1,11,-1
 347 447 l 1,0,-1
56 0 m 1,12,-1
 56 87 l 1,13,-1
 548 87 l 1,14,-1
 548 0 l 1,15,-1
 56 0 l 1,12,-1
EndSplineSet
EndChar

StartChar: uni00B2
Encoding: 178 178 116
Width: 373
GlyphClass: 2
Flags: W
LayerCount: 2
Fore
SplineSet
36 333 m 1,0,-1
 36 390 l 1,1,2
 90 425 90 425 127 452 c 0,3,4
 197 505 197 505 222.5 537 c 128,-1,5
 248 569 248 569 248 601 c 0,6,7
 248 630 248 630 230.5 648 c 128,-1,8
 213 666 213 666 180 666 c 0,9,10
 145 666 145 666 125 642.5 c 128,-1,11
 105 619 105 619 104 578 c 1,12,-1
 24 603 l 1,13,14
 27 665 27 665 70 700 c 128,-1,15
 113 735 113 735 183 735 c 0,16,17
 259 735 259 735 298.5 697.5 c 128,-1,18
 338 660 338 660 338 607 c 0,19,20
 338 525 338 525 208 436 c 0,21,22
 193 426 193 426 148 400 c 1,23,-1
 148 399 l 1,24,25
 193 402 193 402 220 402 c 2,26,-1
 346 402 l 1,27,-1
 346 333 l 1,28,-1
 36 333 l 1,0,-1
EndSplineSet
EndChar

StartChar: uni00B3
Encoding: 179 179 117
Width: 367
GlyphClass: 2
Flags: W
LayerCount: 2
Fore
SplineSet
183 735 m 0,0,1
 251 735 251 735 289 705.5 c 128,-1,2
 327 676 327 676 327 626 c 0,3,4
 327 584 327 584 303 559.5 c 128,-1,5
 279 535 279 535 247 533 c 1,6,-1
 247 531 l 1,7,8
 283 530 283 530 309.5 506.5 c 128,-1,9
 336 483 336 483 336 442 c 0,10,11
 336 390 336 390 293.5 358.5 c 128,-1,12
 251 327 251 327 182 327 c 0,13,14
 52 327 52 327 20 424 c 1,15,-1
 101 458 l 1,16,17
 110 394 110 394 179 394 c 0,18,19
 211 394 211 394 229.5 410 c 128,-1,20
 248 426 248 426 248 453 c 0,21,22
 248 503 248 503 179 503 c 2,23,-1
 155 503 l 1,24,-1
 155 557 l 1,25,-1
 176 557 l 2,26,27
 239 557 239 557 239 611 c 0,28,29
 239 666 239 666 179 666 c 128,-1,30
 119 666 119 666 109 609 c 1,31,-1
 31 636 l 1,32,33
 43 685 43 685 83.5 710 c 128,-1,34
 124 735 124 735 183 735 c 0,0,1
EndSplineSet
EndChar

StartChar: acute
Encoding: 180 180 118
Width: 500
GlyphClass: 2
Flags: W
LayerCount: 2
Fore
SplineSet
274 746 m 1,0,-1
 382 746 l 1,1,-1
 283 578 l 1,2,-1
 201 578 l 1,3,-1
 274 746 l 1,0,-1
EndSplineSet
EndChar

StartChar: uni00B5
Encoding: 181 181 119
Width: 613
GlyphClass: 2
Flags: W
LayerCount: 2
Fore
SplineSet
428 500 m 1,0,-1
 535 500 l 1,1,-1
 535 0 l 1,2,-1
 445 0 l 1,3,-1
 438 85 l 1,4,5
 390 -10 390 -10 265 -10 c 0,6,7
 219 -10 219 -10 185 12 c 1,8,-1
 185 -210 l 1,9,-1
 78 -210 l 1,10,-1
 78 500 l 1,11,-1
 185 500 l 1,12,-1
 185 199 l 2,13,14
 185 133 185 133 211.5 105.5 c 128,-1,15
 238 78 238 78 289 78 c 0,16,17
 347 78 347 78 384 108.5 c 128,-1,18
 421 139 421 139 428 194 c 1,19,-1
 428 500 l 1,0,-1
EndSplineSet
EndChar

StartChar: paragraph
Encoding: 182 182 120
Width: 668
GlyphClass: 2
Flags: W
LayerCount: 2
Fore
SplineSet
584 660 m 1,0,-1
 584 -100 l 1,1,-1
 494 -100 l 1,2,-1
 494 574 l 1,3,-1
 371 574 l 1,4,-1
 371 -100 l 1,5,-1
 279 -100 l 1,6,-1
 279 238 l 1,7,8
 166 239 166 239 102.5 294.5 c 128,-1,9
 39 350 39 350 39 448 c 0,10,11
 39 549 39 549 106 604.5 c 128,-1,12
 173 660 173 660 300 660 c 2,13,-1
 584 660 l 1,0,-1
EndSplineSet
Substitution2: "'ornm' Ornaments lookup 40 subtable" uni2761
Substitution2: "'aalt' Access All Alternates lookup 0 subtable" uni2761
EndChar

StartChar: periodcentered
Encoding: 183 183 121
Width: 240
GlyphClass: 2
Flags: W
LayerCount: 2
Fore
SplineSet
120 427 m 128,-1,1
 155 427 155 427 175.5 407.5 c 128,-1,2
 196 388 196 388 196 354 c 0,3,4
 196 321 196 321 175.5 301.5 c 128,-1,5
 155 282 155 282 120 282 c 0,6,7
 86 282 86 282 65.5 301.5 c 128,-1,8
 45 321 45 321 45 354 c 0,9,10
 45 388 45 388 65 407.5 c 128,-1,0
 85 427 85 427 120 427 c 128,-1,1
EndSplineSet
Substitution2: "Single Substitution lookup 55 subtable" periodcentered.loclCAT.sc
Substitution2: "Single Substitution lookup 54 subtable" periodcentered.loclCAT.case
Substitution2: "Single Substitution lookup 53 subtable" periodcentered.loclCAT
Substitution2: "'case' Case-Sensitive Forms lookup 29 subtable" periodcentered.case
Substitution2: "'smcp' Lowercase to Small Capitals lookup 12 subtable" periodcentered.sc
Substitution2: "'c2sc' Capitals to Small Capitals lookup 11 subtable" periodcentered.sc
AlternateSubs2: "'aalt' Access All Alternates lookup 1 subtable" periodcentered.sc periodcentered.case
Position2: "Single Positioning lookup 6 subtable" dx=0 dy=0 dh=-30 dv=0
EndChar

StartChar: cedilla
Encoding: 184 184 122
Width: 500
GlyphClass: 2
Flags: W
LayerCount: 2
Fore
SplineSet
197 3 m 1,0,-1
 240 31 l 1,1,2
 306 15 306 15 342 -22.5 c 128,-1,3
 378 -60 378 -60 378 -105 c 0,4,5
 378 -153 378 -153 344 -184 c 128,-1,6
 310 -215 310 -215 254 -215 c 0,7,8
 180 -215 180 -215 139 -178 c 1,9,-1
 172 -116 l 1,10,11
 200 -146 200 -146 242 -146 c 0,12,13
 266 -146 266 -146 282 -130.5 c 128,-1,14
 298 -115 298 -115 298 -90 c 0,15,16
 298 -60 298 -60 277 -40 c 128,-1,17
 256 -20 256 -20 197 3 c 1,0,-1
EndSplineSet
EndChar

StartChar: uni00B9
Encoding: 185 185 123
Width: 259
GlyphClass: 2
Flags: W
LayerCount: 2
Fore
SplineSet
134 730 m 1,0,-1
 209 730 l 1,1,-1
 209 333 l 1,2,-1
 123 333 l 1,3,-1
 123 574 l 2,4,5
 123 604 123 604 126 643 c 1,6,7
 69 595 69 595 13 588 c 1,8,-1
 13 661 l 1,9,10
 43 666 43 666 81 687 c 128,-1,11
 119 708 119 708 134 730 c 1,0,-1
EndSplineSet
EndChar

StartChar: ordmasculine
Encoding: 186 186 124
Width: 379
GlyphClass: 2
Flags: W
LayerCount: 2
Fore
SplineSet
189 321 m 0,0,1
 110 321 110 321 67.5 366 c 128,-1,2
 25 411 25 411 25 492 c 0,3,4
 25 574 25 574 67.5 619 c 128,-1,5
 110 664 110 664 189 664 c 0,6,7
 269 664 269 664 311.5 619 c 128,-1,8
 354 574 354 574 354 492 c 0,9,10
 354 411 354 411 311.5 366 c 128,-1,11
 269 321 269 321 189 321 c 0,0,1
189 384 m 0,12,13
 267 384 267 384 267 492 c 0,14,15
 267 602 267 602 189 602 c 0,16,17
 112 602 112 602 112 492 c 0,18,19
 112 384 112 384 189 384 c 0,12,13
36 186 m 1,20,-1
 36 250 l 1,21,-1
 343 250 l 1,22,-1
 343 186 l 1,23,-1
 36 186 l 1,20,-1
EndSplineSet
EndChar

StartChar: guillemotright
Encoding: 187 187 125
Width: 520
GlyphClass: 2
Flags: W
LayerCount: 2
Fore
SplineSet
46 461 m 1,0,-1
 151 461 l 1,1,-1
 277 265 l 1,2,-1
 151 69 l 1,3,-1
 46 69 l 1,4,-1
 172 265 l 1,5,-1
 46 461 l 1,0,-1
243 461 m 1,6,-1
 348 461 l 1,7,-1
 474 265 l 1,8,-1
 348 69 l 1,9,-1
 243 69 l 1,10,-1
 369 265 l 1,11,-1
 243 461 l 1,6,-1
EndSplineSet
Substitution2: "'case' Case-Sensitive Forms lookup 29 subtable" guillemotright.case
Substitution2: "'aalt' Access All Alternates lookup 0 subtable" guillemotright.case
EndChar

StartChar: onequarter
Encoding: 188 188 126
Width: 817
GlyphClass: 2
Flags: W
LayerCount: 2
Fore
SplineSet
123 509 m 2,0,1
 123 539 123 539 126 578 c 1,2,3
 71 530 71 530 13 523 c 1,4,-1
 13 596 l 1,5,6
 43 601 43 601 81 622 c 128,-1,7
 119 643 119 643 134 665 c 1,8,-1
 209 665 l 1,9,-1
 209 268 l 1,10,-1
 123 268 l 1,11,-1
 123 509 l 2,0,1
578 660 m 1,12,-1
 669 660 l 1,13,-1
 192 0 l 1,14,-1
 101 0 l 1,15,-1
 578 660 l 1,12,-1
731 150 m 1,16,-1
 798 150 l 1,17,-1
 798 91 l 1,18,-1
 731 91 l 1,19,-1
 731 -4 l 1,20,-1
 657 -4 l 1,21,-1
 657 91 l 1,22,-1
 458 91 l 1,23,-1
 458 134 l 1,24,-1
 633 393 l 1,25,-1
 731 393 l 1,26,-1
 731 150 l 1,16,-1
657 253 m 2,27,28
 657 294 657 294 660 331 c 1,29,-1
 657 331 l 1,30,31
 641 299 641 299 626 275 c 2,32,-1
 537 150 l 1,33,-1
 657 150 l 1,34,-1
 657 253 l 2,27,28
EndSplineSet
EndChar

StartChar: onehalf
Encoding: 189 189 127
Width: 884
GlyphClass: 2
Flags: W
LayerCount: 2
Fore
SplineSet
123 509 m 2,0,1
 123 539 123 539 126 578 c 1,2,3
 71 530 71 530 13 523 c 1,4,-1
 13 596 l 1,5,6
 43 601 43 601 81 622 c 128,-1,7
 119 643 119 643 134 665 c 1,8,-1
 209 665 l 1,9,-1
 209 268 l 1,10,-1
 123 268 l 1,11,-1
 123 509 l 2,0,1
578 660 m 1,12,-1
 669 660 l 1,13,-1
 192 0 l 1,14,-1
 101 0 l 1,15,-1
 578 660 l 1,12,-1
731 65 m 2,16,-1
 857 65 l 1,17,-1
 857 -4 l 1,18,-1
 547 -4 l 1,19,-1
 547 53 l 1,20,21
 601 88 601 88 638 115 c 0,22,23
 708 168 708 168 733.5 200 c 128,-1,24
 759 232 759 232 759 264 c 0,25,26
 759 293 759 293 741.5 311 c 128,-1,27
 724 329 724 329 691 329 c 0,28,29
 656 329 656 329 636 305.5 c 128,-1,30
 616 282 616 282 615 241 c 1,31,-1
 535 266 l 1,32,33
 538 328 538 328 581 363 c 128,-1,34
 624 398 624 398 694 398 c 0,35,36
 770 398 770 398 809.5 360.5 c 128,-1,37
 849 323 849 323 849 270 c 0,38,39
 849 188 849 188 719 99 c 0,40,41
 704 89 704 89 659 63 c 1,42,-1
 659 62 l 1,43,44
 704 65 704 65 731 65 c 2,16,-1
EndSplineSet
EndChar

StartChar: threequarters
Encoding: 190 190 128
Width: 925
GlyphClass: 2
Flags: W
LayerCount: 2
Fore
SplineSet
183 670 m 0,0,1
 251 670 251 670 289 640.5 c 128,-1,2
 327 611 327 611 327 561 c 0,3,4
 327 519 327 519 303 494.5 c 128,-1,5
 279 470 279 470 247 468 c 1,6,-1
 247 466 l 1,7,8
 283 465 283 465 309.5 441.5 c 128,-1,9
 336 418 336 418 336 377 c 0,10,11
 336 325 336 325 293.5 293.5 c 128,-1,12
 251 262 251 262 182 262 c 0,13,14
 52 262 52 262 20 359 c 1,15,-1
 101 393 l 1,16,17
 110 329 110 329 179 329 c 0,18,19
 211 329 211 329 229.5 345 c 128,-1,20
 248 361 248 361 248 388 c 0,21,22
 248 438 248 438 179 438 c 2,23,-1
 155 438 l 1,24,-1
 155 492 l 1,25,-1
 176 492 l 2,26,27
 239 492 239 492 239 546 c 0,28,29
 239 601 239 601 179 601 c 128,-1,30
 119 601 119 601 109 544 c 1,31,-1
 31 571 l 1,32,33
 43 620 43 620 83.5 645 c 128,-1,34
 124 670 124 670 183 670 c 0,0,1
209 0 m 1,35,-1
 686 660 l 1,36,-1
 777 660 l 1,37,-1
 300 0 l 1,38,-1
 209 0 l 1,35,-1
906 150 m 1,39,-1
 906 91 l 1,40,-1
 839 91 l 1,41,-1
 839 -4 l 1,42,-1
 765 -4 l 1,43,-1
 765 91 l 1,44,-1
 566 91 l 1,45,-1
 566 134 l 1,46,-1
 741 393 l 1,47,-1
 839 393 l 1,48,-1
 839 150 l 1,49,-1
 906 150 l 1,39,-1
645 150 m 1,50,-1
 765 150 l 1,51,-1
 765 253 l 2,52,53
 765 294 765 294 768 331 c 1,54,-1
 765 331 l 1,55,56
 749 299 749 299 734 275 c 2,57,-1
 645 150 l 1,50,-1
EndSplineSet
EndChar

StartChar: questiondown
Encoding: 191 191 129
Width: 558
GlyphClass: 2
Flags: W
LayerCount: 2
Fore
SplineSet
288 367 m 128,-1,1
 254 367 254 367 234 386.5 c 128,-1,2
 214 406 214 406 214 438 c 0,3,4
 214 471 214 471 234 490 c 128,-1,5
 254 509 254 509 288 509 c 0,6,7
 323 509 323 509 343 490 c 128,-1,8
 363 471 363 471 363 438 c 0,9,10
 363 406 363 406 342.5 386.5 c 128,-1,0
 322 367 322 367 288 367 c 128,-1,1
276 -170 m 0,11,12
 172 -170 172 -170 108.5 -124 c 128,-1,13
 45 -78 45 -78 45 4 c 0,14,15
 45 89 45 89 97 135 c 128,-1,16
 149 181 149 181 234 190 c 1,17,-1
 237 290 l 1,18,-1
 339 290 l 1,19,-1
 342 140 l 1,20,21
 244 127 244 127 201.5 98.5 c 128,-1,22
 159 70 159 70 159 18 c 0,23,24
 159 -26 159 -26 190.5 -51 c 128,-1,25
 222 -76 222 -76 283 -76 c 0,26,27
 342 -76 342 -76 379.5 -42.5 c 128,-1,28
 417 -9 417 -9 423 49 c 1,29,-1
 522 2 l 1,30,31
 506 -76 506 -76 442.5 -123 c 128,-1,32
 379 -170 379 -170 276 -170 c 0,11,12
EndSplineSet
Substitution2: "'case' Case-Sensitive Forms lookup 29 subtable" questiondown.case
Substitution2: "'smcp' Lowercase to Small Capitals lookup 12 subtable" questiondown.sc
Substitution2: "'c2sc' Capitals to Small Capitals lookup 11 subtable" questiondown.sc
AlternateSubs2: "'aalt' Access All Alternates lookup 1 subtable" questiondown.sc questiondown.case
EndChar

StartChar: Agrave
Encoding: 192 192 130
Width: 665
GlyphClass: 2
Flags: W
LayerCount: 2
Fore
SplineSet
372 737 m 1,0,-1
 290 737 l 1,1,-1
 202 888 l 1,2,-1
 316 888 l 1,3,-1
 372 737 l 1,0,-1
533 0 m 1,4,-1
 471 173 l 1,5,-1
 193 173 l 1,6,-1
 130 0 l 1,7,-1
 20 0 l 1,8,-1
 269 660 l 1,9,-1
 397 660 l 1,10,-1
 646 0 l 1,11,-1
 533 0 l 1,4,-1
224 260 m 1,12,-1
 439 260 l 1,13,-1
 363 472 l 1,14,-1
 333 567 l 1,15,-1
 330 567 l 1,16,-1
 302 474 l 1,17,-1
 224 260 l 1,12,-1
EndSplineSet
Substitution2: "Single Substitution lookup 56 subtable" Agrave.swsh
Substitution2: "'swsh' Swash lookup 32 subtable" Agrave.swsh
Substitution2: "'c2sc' Capitals to Small Capitals lookup 11 subtable" agrave.sc
AlternateSubs2: "'aalt' Access All Alternates lookup 1 subtable" agrave.sc Agrave.swsh
EndChar

StartChar: Aacute
Encoding: 193 193 131
Width: 665
GlyphClass: 2
Flags: W
LayerCount: 2
Fore
SplineSet
452 888 m 1,0,-1
 364 737 l 1,1,-1
 282 737 l 1,2,-1
 338 888 l 1,3,-1
 452 888 l 1,0,-1
533 0 m 1,4,-1
 471 173 l 1,5,-1
 193 173 l 1,6,-1
 130 0 l 1,7,-1
 20 0 l 1,8,-1
 269 660 l 1,9,-1
 397 660 l 1,10,-1
 646 0 l 1,11,-1
 533 0 l 1,4,-1
224 260 m 1,12,-1
 439 260 l 1,13,-1
 363 472 l 1,14,-1
 333 567 l 1,15,-1
 330 567 l 1,16,-1
 302 474 l 1,17,-1
 224 260 l 1,12,-1
EndSplineSet
Substitution2: "Single Substitution lookup 56 subtable" Aacute.swsh
Substitution2: "'swsh' Swash lookup 32 subtable" Aacute.swsh
Substitution2: "'c2sc' Capitals to Small Capitals lookup 11 subtable" aacute.sc
AlternateSubs2: "'aalt' Access All Alternates lookup 1 subtable" aacute.sc Aacute.swsh
EndChar

StartChar: Acircumflex
Encoding: 194 194 132
Width: 665
GlyphClass: 2
Flags: W
LayerCount: 2
Fore
SplineSet
333 838 m 1,0,-1
 253 731 l 1,1,-1
 164 731 l 1,2,-1
 277 898 l 1,3,-1
 389 898 l 1,4,-1
 502 731 l 1,5,-1
 413 731 l 1,6,-1
 333 838 l 1,0,-1
533 0 m 1,7,-1
 471 173 l 1,8,-1
 193 173 l 1,9,-1
 130 0 l 1,10,-1
 20 0 l 1,11,-1
 269 660 l 1,12,-1
 397 660 l 1,13,-1
 646 0 l 1,14,-1
 533 0 l 1,7,-1
224 260 m 1,15,-1
 439 260 l 1,16,-1
 363 472 l 1,17,-1
 333 567 l 1,18,-1
 330 567 l 1,19,-1
 302 474 l 1,20,-1
 224 260 l 1,15,-1
EndSplineSet
Substitution2: "Single Substitution lookup 56 subtable" Acircumflex.swsh
Substitution2: "'swsh' Swash lookup 32 subtable" Acircumflex.swsh
Substitution2: "'c2sc' Capitals to Small Capitals lookup 11 subtable" acircumflex.sc
AlternateSubs2: "'aalt' Access All Alternates lookup 1 subtable" acircumflex.sc Acircumflex.swsh
EndChar

StartChar: Atilde
Encoding: 195 195 133
Width: 665
GlyphClass: 2
Flags: W
LayerCount: 2
Fore
SplineSet
264 801 m 0,0,1
 228 801 228 801 219 735 c 1,2,-1
 146 735 l 1,3,4
 155 877 155 877 265 877 c 0,5,6
 297 877 297 877 322 860.5 c 128,-1,7
 347 844 347 844 365 828 c 128,-1,8
 383 812 383 812 399 812 c 0,9,10
 435 812 435 812 445 877 c 1,11,-1
 518 877 l 1,12,13
 509 736 509 736 400 736 c 0,14,15
 374 736 374 736 352.5 746 c 128,-1,16
 331 756 331 756 319 768.5 c 128,-1,17
 307 781 307 781 292.5 791 c 128,-1,18
 278 801 278 801 264 801 c 0,0,1
533 0 m 1,19,-1
 471 173 l 1,20,-1
 193 173 l 1,21,-1
 130 0 l 1,22,-1
 20 0 l 1,23,-1
 269 660 l 1,24,-1
 397 660 l 1,25,-1
 646 0 l 1,26,-1
 533 0 l 1,19,-1
224 260 m 1,27,-1
 439 260 l 1,28,-1
 363 472 l 1,29,-1
 333 567 l 1,30,-1
 330 567 l 1,31,-1
 302 474 l 1,32,-1
 224 260 l 1,27,-1
EndSplineSet
Substitution2: "Single Substitution lookup 56 subtable" Atilde.swsh
Substitution2: "'swsh' Swash lookup 32 subtable" Atilde.swsh
Substitution2: "'c2sc' Capitals to Small Capitals lookup 11 subtable" atilde.sc
AlternateSubs2: "'aalt' Access All Alternates lookup 1 subtable" atilde.sc Atilde.swsh
EndChar

StartChar: Adieresis
Encoding: 196 196 134
Width: 665
GlyphClass: 2
Flags: W
LayerCount: 2
Fore
SplineSet
231 734 m 0,0,1
 202 734 202 734 184 751.5 c 128,-1,2
 166 769 166 769 166 797 c 0,3,4
 166 826 166 826 184 843 c 128,-1,5
 202 860 202 860 231 860 c 0,6,7
 261 860 261 860 279 843 c 128,-1,8
 297 826 297 826 297 797 c 128,-1,9
 297 768 297 768 279 751 c 128,-1,10
 261 734 261 734 231 734 c 0,0,1
433 734 m 128,-1,12
 403 734 403 734 385.5 751 c 128,-1,13
 368 768 368 768 368 797 c 128,-1,14
 368 826 368 826 385.5 843 c 128,-1,15
 403 860 403 860 433 860 c 128,-1,16
 463 860 463 860 481 843 c 128,-1,17
 499 826 499 826 499 797 c 128,-1,18
 499 768 499 768 481 751 c 128,-1,11
 463 734 463 734 433 734 c 128,-1,12
533 0 m 1,19,-1
 471 173 l 1,20,-1
 193 173 l 1,21,-1
 130 0 l 1,22,-1
 20 0 l 1,23,-1
 269 660 l 1,24,-1
 397 660 l 1,25,-1
 646 0 l 1,26,-1
 533 0 l 1,19,-1
224 260 m 1,27,-1
 439 260 l 1,28,-1
 363 472 l 1,29,-1
 333 567 l 1,30,-1
 330 567 l 1,31,-1
 302 474 l 1,32,-1
 224 260 l 1,27,-1
EndSplineSet
Substitution2: "Single Substitution lookup 56 subtable" Adieresis.swsh
Substitution2: "'titl' Titling lookup 41 subtable" Adieresis.titl
Substitution2: "'swsh' Swash lookup 32 subtable" Adieresis.swsh
Substitution2: "'c2sc' Capitals to Small Capitals lookup 11 subtable" adieresis.sc
AlternateSubs2: "'aalt' Access All Alternates lookup 1 subtable" adieresis.sc Adieresis.swsh Adieresis.titl
EndChar

StartChar: Aring
Encoding: 197 197 135
Width: 665
GlyphClass: 2
Flags: W
LayerCount: 2
Fore
SplineSet
533 0 m 1,0,-1
 471 173 l 1,1,-1
 193 173 l 1,2,-1
 130 0 l 1,3,-1
 20 0 l 1,4,-1
 259 630 l 1,5,6
 200 662 200 662 200 733 c 0,7,8
 200 787 200 787 237 821 c 128,-1,9
 274 855 274 855 334 855 c 128,-1,10
 394 855 394 855 430 821 c 128,-1,11
 466 787 466 787 466 733 c 0,12,13
 466 662 466 662 407 630 c 1,14,-1
 646 0 l 1,15,-1
 533 0 l 1,0,-1
333 797 m 0,16,17
 303 797 303 797 284 779 c 128,-1,18
 265 761 265 761 265 732 c 128,-1,19
 265 703 265 703 284 685 c 128,-1,20
 303 667 303 667 333 667 c 0,21,22
 362 667 362 667 381 685 c 128,-1,23
 400 703 400 703 400 732 c 0,24,25
 400 760 400 760 381 778.5 c 128,-1,26
 362 797 362 797 333 797 c 0,16,17
224 260 m 1,27,-1
 439 260 l 1,28,-1
 363 472 l 1,29,-1
 333 567 l 1,30,-1
 330 567 l 1,31,-1
 302 474 l 1,32,-1
 224 260 l 1,27,-1
EndSplineSet
Substitution2: "'c2sc' Capitals to Small Capitals lookup 11 subtable" aring.sc
Substitution2: "'aalt' Access All Alternates lookup 0 subtable" aring.sc
EndChar

StartChar: AE
Encoding: 198 198 136
Width: 945
GlyphClass: 2
Flags: W
LayerCount: 2
Fore
SplineSet
546 90 m 1,0,-1
 899 90 l 1,1,-1
 899 0 l 1,2,-1
 442 0 l 1,3,-1
 442 208 l 1,4,-1
 223 208 l 1,5,-1
 115 0 l 1,6,-1
 3 0 l 1,7,-1
 358 660 l 1,8,-1
 885 660 l 1,9,-1
 885 570 l 1,10,-1
 546 570 l 1,11,-1
 546 378 l 1,12,-1
 804 378 l 1,13,-1
 804 289 l 1,14,-1
 546 289 l 1,15,-1
 546 90 l 1,0,-1
268 294 m 1,16,-1
 442 294 l 1,17,-1
 442 571 l 1,18,-1
 411 571 l 1,19,-1
 268 294 l 1,16,-1
EndSplineSet
Substitution2: "'c2sc' Capitals to Small Capitals lookup 11 subtable" ae.sc
Substitution2: "'aalt' Access All Alternates lookup 0 subtable" ae.sc
EndChar

StartChar: Ccedilla
Encoding: 199 199 137
Width: 684
GlyphClass: 2
Flags: W
LayerCount: 2
Fore
SplineSet
645 175 m 1,0,1
 620 100 620 100 564.5 54 c 128,-1,2
 509 8 509 8 432 -5 c 1,3,4
 489 -45 489 -45 489 -105 c 0,5,6
 489 -153 489 -153 455 -184 c 128,-1,7
 421 -215 421 -215 365 -215 c 0,8,9
 291 -215 291 -215 250 -178 c 1,10,-1
 283 -116 l 1,11,12
 311 -146 311 -146 353 -146 c 0,13,14
 377 -146 377 -146 393 -130.5 c 128,-1,15
 409 -115 409 -115 409 -90 c 0,16,17
 409 -64 409 -64 393 -45.5 c 128,-1,18
 377 -27 377 -27 335 -8 c 1,19,20
 207 3 207 3 134 93 c 128,-1,21
 61 183 61 183 61 330 c 0,22,23
 61 487 61 487 145 578.5 c 128,-1,24
 229 670 229 670 371 670 c 0,25,26
 574 670 574 670 635 508 c 1,27,-1
 534 463 l 1,28,29
 496 577 496 577 377 577 c 0,30,31
 284 577 284 577 228.5 511.5 c 128,-1,32
 173 446 173 446 173 330 c 0,33,34
 173 213 173 213 226 148 c 128,-1,35
 279 83 279 83 373 83 c 0,36,37
 506 83 506 83 543 209 c 1,38,-1
 645 175 l 1,0,1
EndSplineSet
Substitution2: "'c2sc' Capitals to Small Capitals lookup 11 subtable" ccedilla.sc
Substitution2: "'aalt' Access All Alternates lookup 0 subtable" ccedilla.sc
EndChar

StartChar: Egrave
Encoding: 200 200 138
Width: 636
GlyphClass: 2
Flags: W
AnchorPoint: "Anchor-0" 337 0 basechar 0
LayerCount: 2
Fore
SplineSet
391 737 m 1,0,-1
 309 737 l 1,1,-1
 221 888 l 1,2,-1
 335 888 l 1,3,-1
 391 737 l 1,0,-1
205 92 m 1,4,-1
 590 92 l 1,5,-1
 590 0 l 1,6,-1
 98 0 l 1,7,-1
 98 660 l 1,8,-1
 576 660 l 1,9,-1
 576 568 l 1,10,-1
 205 568 l 1,11,-1
 205 378 l 1,12,-1
 495 378 l 1,13,-1
 495 288 l 1,14,-1
 205 288 l 1,15,-1
 205 92 l 1,4,-1
EndSplineSet
Substitution2: "Single Substitution lookup 57 subtable" Egrave.swsh.001
Substitution2: "Single Substitution lookup 56 subtable" Egrave.swsh
AlternateSubs2: "'swsh' Swash lookup 33 subtable" Egrave.swsh Egrave.swsh.001
Substitution2: "'c2sc' Capitals to Small Capitals lookup 11 subtable" egrave.sc
AlternateSubs2: "'aalt' Access All Alternates lookup 1 subtable" egrave.sc Egrave.swsh Egrave.swsh.001
EndChar

StartChar: Eacute
Encoding: 201 201 139
Width: 636
GlyphClass: 2
Flags: W
AnchorPoint: "Anchor-0" 337 0 basechar 0
LayerCount: 2
Fore
SplineSet
454 888 m 1,0,-1
 366 737 l 1,1,-1
 284 737 l 1,2,-1
 340 888 l 1,3,-1
 454 888 l 1,0,-1
205 92 m 1,4,-1
 590 92 l 1,5,-1
 590 0 l 1,6,-1
 98 0 l 1,7,-1
 98 660 l 1,8,-1
 576 660 l 1,9,-1
 576 568 l 1,10,-1
 205 568 l 1,11,-1
 205 378 l 1,12,-1
 495 378 l 1,13,-1
 495 288 l 1,14,-1
 205 288 l 1,15,-1
 205 92 l 1,4,-1
EndSplineSet
Substitution2: "Single Substitution lookup 57 subtable" Eacute.swsh.001
Substitution2: "Single Substitution lookup 56 subtable" Eacute.swsh
AlternateSubs2: "'swsh' Swash lookup 33 subtable" Eacute.swsh Eacute.swsh.001
Substitution2: "'c2sc' Capitals to Small Capitals lookup 11 subtable" eacute.sc
AlternateSubs2: "'aalt' Access All Alternates lookup 1 subtable" eacute.sc Eacute.swsh Eacute.swsh.001
EndChar

StartChar: Ecircumflex
Encoding: 202 202 140
Width: 636
GlyphClass: 2
Flags: W
AnchorPoint: "Anchor-0" 337 0 basechar 0
LayerCount: 2
Fore
SplineSet
334 838 m 1,0,-1
 254 731 l 1,1,-1
 165 731 l 1,2,-1
 278 898 l 1,3,-1
 390 898 l 1,4,-1
 503 731 l 1,5,-1
 414 731 l 1,6,-1
 334 838 l 1,0,-1
205 92 m 1,7,-1
 590 92 l 1,8,-1
 590 0 l 1,9,-1
 98 0 l 1,10,-1
 98 660 l 1,11,-1
 576 660 l 1,12,-1
 576 568 l 1,13,-1
 205 568 l 1,14,-1
 205 378 l 1,15,-1
 495 378 l 1,16,-1
 495 288 l 1,17,-1
 205 288 l 1,18,-1
 205 92 l 1,7,-1
EndSplineSet
Substitution2: "Single Substitution lookup 57 subtable" Ecircumflex.swsh.001
Substitution2: "Single Substitution lookup 56 subtable" Ecircumflex.swsh
AlternateSubs2: "'swsh' Swash lookup 33 subtable" Ecircumflex.swsh Ecircumflex.swsh.001
Substitution2: "'c2sc' Capitals to Small Capitals lookup 11 subtable" ecircumflex.sc
AlternateSubs2: "'aalt' Access All Alternates lookup 1 subtable" ecircumflex.sc Ecircumflex.swsh Ecircumflex.swsh.001
EndChar

StartChar: Edieresis
Encoding: 203 203 141
Width: 636
GlyphClass: 2
Flags: W
AnchorPoint: "Anchor-0" 337 0 basechar 0
LayerCount: 2
Fore
SplineSet
233 734 m 0,0,1
 204 734 204 734 186 751.5 c 128,-1,2
 168 769 168 769 168 797 c 0,3,4
 168 826 168 826 186 843 c 128,-1,5
 204 860 204 860 233 860 c 0,6,7
 263 860 263 860 281 843 c 128,-1,8
 299 826 299 826 299 797 c 128,-1,9
 299 768 299 768 281 751 c 128,-1,10
 263 734 263 734 233 734 c 0,0,1
435 734 m 128,-1,12
 405 734 405 734 387.5 751 c 128,-1,13
 370 768 370 768 370 797 c 128,-1,14
 370 826 370 826 387.5 843 c 128,-1,15
 405 860 405 860 435 860 c 128,-1,16
 465 860 465 860 483 843 c 128,-1,17
 501 826 501 826 501 797 c 128,-1,18
 501 768 501 768 483 751 c 128,-1,11
 465 734 465 734 435 734 c 128,-1,12
205 92 m 1,19,-1
 590 92 l 1,20,-1
 590 0 l 1,21,-1
 98 0 l 1,22,-1
 98 660 l 1,23,-1
 576 660 l 1,24,-1
 576 568 l 1,25,-1
 205 568 l 1,26,-1
 205 378 l 1,27,-1
 495 378 l 1,28,-1
 495 288 l 1,29,-1
 205 288 l 1,30,-1
 205 92 l 1,19,-1
EndSplineSet
Substitution2: "Single Substitution lookup 57 subtable" Edieresis.swsh.001
Substitution2: "Single Substitution lookup 56 subtable" Edieresis.swsh
AlternateSubs2: "'swsh' Swash lookup 33 subtable" Edieresis.swsh Edieresis.swsh.001
Substitution2: "'c2sc' Capitals to Small Capitals lookup 11 subtable" edieresis.sc
AlternateSubs2: "'aalt' Access All Alternates lookup 1 subtable" edieresis.sc Edieresis.swsh Edieresis.swsh.001
EndChar

StartChar: Igrave
Encoding: 204 204 142
Width: 303
GlyphClass: 2
Flags: W
LayerCount: 2
Fore
SplineSet
134 888 m 1,0,-1
 190 737 l 1,1,-1
 108 737 l 1,2,-1
 20 888 l 1,3,-1
 134 888 l 1,0,-1
205 660 m 1,4,-1
 205 0 l 1,5,-1
 98 0 l 1,6,-1
 98 660 l 1,7,-1
 205 660 l 1,4,-1
EndSplineSet
Substitution2: "'c2sc' Capitals to Small Capitals lookup 11 subtable" igrave.sc
Substitution2: "'aalt' Access All Alternates lookup 0 subtable" igrave.sc
EndChar

StartChar: Iacute
Encoding: 205 205 143
Width: 303
GlyphClass: 2
Flags: W
LayerCount: 2
Fore
SplineSet
157 888 m 1,0,-1
 271 888 l 1,1,-1
 183 737 l 1,2,-1
 101 737 l 1,3,-1
 157 888 l 1,0,-1
205 660 m 1,4,-1
 205 0 l 1,5,-1
 98 0 l 1,6,-1
 98 660 l 1,7,-1
 205 660 l 1,4,-1
EndSplineSet
Substitution2: "'c2sc' Capitals to Small Capitals lookup 11 subtable" iacute.sc
Substitution2: "'aalt' Access All Alternates lookup 0 subtable" iacute.sc
EndChar

StartChar: Icircumflex
Encoding: 206 206 144
Width: 303
GlyphClass: 2
Flags: W
LayerCount: 2
Fore
SplineSet
320 731 m 1,0,-1
 231 731 l 1,1,-1
 151 838 l 1,2,-1
 71 731 l 1,3,-1
 -18 731 l 1,4,-1
 95 898 l 1,5,-1
 207 898 l 1,6,-1
 320 731 l 1,0,-1
205 660 m 1,7,-1
 205 0 l 1,8,-1
 98 0 l 1,9,-1
 98 660 l 1,10,-1
 205 660 l 1,7,-1
EndSplineSet
Substitution2: "'c2sc' Capitals to Small Capitals lookup 11 subtable" icircumflex.sc
Substitution2: "'aalt' Access All Alternates lookup 0 subtable" icircumflex.sc
EndChar

StartChar: Idieresis
Encoding: 207 207 145
Width: 303
GlyphClass: 2
Flags: W
LayerCount: 2
Fore
SplineSet
60 860 m 0,0,1
 90 860 90 860 107.5 843 c 128,-1,2
 125 826 125 826 125 797 c 128,-1,3
 125 768 125 768 107.5 751 c 128,-1,4
 90 734 90 734 60 734 c 0,5,6
 31 734 31 734 13.5 751 c 128,-1,7
 -4 768 -4 768 -4 797 c 128,-1,8
 -4 826 -4 826 13.5 843 c 128,-1,9
 31 860 31 860 60 860 c 0,0,1
242 860 m 128,-1,11
 271 860 271 860 289 843 c 128,-1,12
 307 826 307 826 307 797 c 0,13,14
 307 769 307 769 289 751.5 c 128,-1,15
 271 734 271 734 242 734 c 128,-1,16
 213 734 213 734 195 751.5 c 128,-1,17
 177 769 177 769 177 797 c 0,18,19
 177 826 177 826 195 843 c 128,-1,10
 213 860 213 860 242 860 c 128,-1,11
205 660 m 1,20,-1
 205 0 l 1,21,-1
 98 0 l 1,22,-1
 98 660 l 1,23,-1
 205 660 l 1,20,-1
EndSplineSet
Substitution2: "'c2sc' Capitals to Small Capitals lookup 11 subtable" idieresis.sc
Substitution2: "'aalt' Access All Alternates lookup 0 subtable" idieresis.sc
EndChar

StartChar: Eth
Encoding: 208 208 146
Width: 738
GlyphClass: 2
Flags: W
LayerCount: 2
Fore
SplineSet
349 660 m 2,0,1
 505 660 505 660 591 574 c 128,-1,2
 677 488 677 488 677 330 c 128,-1,3
 677 172 677 172 591 86 c 128,-1,4
 505 0 505 0 349 0 c 2,5,-1
 116 0 l 1,6,-1
 116 294 l 1,7,-1
 22 294 l 1,8,-1
 22 370 l 1,9,-1
 116 370 l 1,10,-1
 116 660 l 1,11,-1
 349 660 l 2,0,1
349 91 m 2,12,13
 453 91 453 91 509 153.5 c 128,-1,14
 565 216 565 216 565 330 c 128,-1,15
 565 444 565 444 509 506.5 c 128,-1,16
 453 569 453 569 349 569 c 2,17,-1
 223 569 l 1,18,-1
 223 370 l 1,19,-1
 400 370 l 1,20,-1
 400 294 l 1,21,-1
 223 294 l 1,22,-1
 223 91 l 1,23,-1
 349 91 l 2,12,13
EndSplineSet
Substitution2: "'c2sc' Capitals to Small Capitals lookup 11 subtable" eth.sc
Substitution2: "'aalt' Access All Alternates lookup 0 subtable" eth.sc
EndChar

StartChar: Ntilde
Encoding: 209 209 147
Width: 736
GlyphClass: 2
Flags: W
AnchorPoint: "Anchor-0" 393 0 basechar 0
LayerCount: 2
Fore
SplineSet
557 877 m 1,0,1
 548 736 548 736 439 736 c 0,2,3
 413 736 413 736 391.5 746 c 128,-1,4
 370 756 370 756 358 768.5 c 128,-1,5
 346 781 346 781 331.5 791 c 128,-1,6
 317 801 317 801 303 801 c 0,7,8
 267 801 267 801 258 735 c 1,9,-1
 185 735 l 1,10,11
 194 877 194 877 304 877 c 0,12,13
 336 877 336 877 361 860.5 c 128,-1,14
 386 844 386 844 404 828 c 128,-1,15
 422 812 422 812 438 812 c 0,16,17
 474 812 474 812 484 877 c 1,18,-1
 557 877 l 1,0,1
639 660 m 1,19,-1
 639 0 l 1,20,-1
 512 0 l 1,21,-1
 257 416 l 1,22,-1
 193 538 l 1,23,-1
 192 538 l 1,24,-1
 196 426 l 1,25,-1
 196 0 l 1,26,-1
 98 0 l 1,27,-1
 98 660 l 1,28,-1
 224 660 l 1,29,-1
 478 245 l 1,30,-1
 543 122 l 1,31,-1
 544 122 l 1,32,-1
 540 234 l 1,33,-1
 540 660 l 1,34,-1
 639 660 l 1,19,-1
EndSplineSet
Substitution2: "Single Substitution lookup 57 subtable" Ntilde.swsh
Substitution2: "'swsh' Swash lookup 36 subtable" Ntilde.swsh
Substitution2: "'c2sc' Capitals to Small Capitals lookup 11 subtable" ntilde.sc
AlternateSubs2: "'aalt' Access All Alternates lookup 1 subtable" ntilde.sc Ntilde.swsh
EndChar

StartChar: Ograve
Encoding: 210 210 148
Width: 745
GlyphClass: 2
Flags: W
LayerCount: 2
Fore
SplineSet
355 888 m 1,0,-1
 411 737 l 1,1,-1
 329 737 l 1,2,-1
 241 888 l 1,3,-1
 355 888 l 1,0,-1
372 670 m 0,4,5
 516 670 516 670 600 578.5 c 128,-1,6
 684 487 684 487 684 330 c 128,-1,7
 684 173 684 173 600 81.5 c 128,-1,8
 516 -10 516 -10 372 -10 c 0,9,10
 229 -10 229 -10 145 81.5 c 128,-1,11
 61 173 61 173 61 330 c 128,-1,12
 61 487 61 487 145 578.5 c 128,-1,13
 229 670 229 670 372 670 c 0,4,5
372 577 m 0,14,15
 279 577 279 577 226 512 c 128,-1,16
 173 447 173 447 173 330 c 128,-1,17
 173 213 173 213 226 148 c 128,-1,18
 279 83 279 83 372 83 c 0,19,20
 466 83 466 83 519 148 c 128,-1,21
 572 213 572 213 572 330 c 128,-1,22
 572 447 572 447 519 512 c 128,-1,23
 466 577 466 577 372 577 c 0,14,15
EndSplineSet
Substitution2: "'c2sc' Capitals to Small Capitals lookup 11 subtable" ograve.sc
Substitution2: "'aalt' Access All Alternates lookup 0 subtable" ograve.sc
EndChar

StartChar: Oacute
Encoding: 211 211 149
Width: 745
GlyphClass: 2
Flags: W
LayerCount: 2
Fore
SplineSet
378 888 m 1,0,-1
 492 888 l 1,1,-1
 404 737 l 1,2,-1
 322 737 l 1,3,-1
 378 888 l 1,0,-1
372 670 m 0,4,5
 516 670 516 670 600 578.5 c 128,-1,6
 684 487 684 487 684 330 c 128,-1,7
 684 173 684 173 600 81.5 c 128,-1,8
 516 -10 516 -10 372 -10 c 0,9,10
 229 -10 229 -10 145 81.5 c 128,-1,11
 61 173 61 173 61 330 c 128,-1,12
 61 487 61 487 145 578.5 c 128,-1,13
 229 670 229 670 372 670 c 0,4,5
372 577 m 0,14,15
 279 577 279 577 226 512 c 128,-1,16
 173 447 173 447 173 330 c 128,-1,17
 173 213 173 213 226 148 c 128,-1,18
 279 83 279 83 372 83 c 0,19,20
 466 83 466 83 519 148 c 128,-1,21
 572 213 572 213 572 330 c 128,-1,22
 572 447 572 447 519 512 c 128,-1,23
 466 577 466 577 372 577 c 0,14,15
EndSplineSet
Substitution2: "'c2sc' Capitals to Small Capitals lookup 11 subtable" oacute.sc
Substitution2: "'aalt' Access All Alternates lookup 0 subtable" oacute.sc
EndChar

StartChar: Ocircumflex
Encoding: 212 212 150
Width: 745
GlyphClass: 2
Flags: W
LayerCount: 2
Fore
SplineSet
541 731 m 1,0,-1
 452 731 l 1,1,-1
 372 838 l 1,2,-1
 292 731 l 1,3,-1
 203 731 l 1,4,-1
 316 898 l 1,5,-1
 428 898 l 1,6,-1
 541 731 l 1,0,-1
372 670 m 0,7,8
 516 670 516 670 600 578.5 c 128,-1,9
 684 487 684 487 684 330 c 128,-1,10
 684 173 684 173 600 81.5 c 128,-1,11
 516 -10 516 -10 372 -10 c 0,12,13
 229 -10 229 -10 145 81.5 c 128,-1,14
 61 173 61 173 61 330 c 128,-1,15
 61 487 61 487 145 578.5 c 128,-1,16
 229 670 229 670 372 670 c 0,7,8
372 577 m 0,17,18
 279 577 279 577 226 512 c 128,-1,19
 173 447 173 447 173 330 c 128,-1,20
 173 213 173 213 226 148 c 128,-1,21
 279 83 279 83 372 83 c 0,22,23
 466 83 466 83 519 148 c 128,-1,24
 572 213 572 213 572 330 c 128,-1,25
 572 447 572 447 519 512 c 128,-1,26
 466 577 466 577 372 577 c 0,17,18
EndSplineSet
Substitution2: "'c2sc' Capitals to Small Capitals lookup 11 subtable" ocircumflex.sc
Substitution2: "'aalt' Access All Alternates lookup 0 subtable" ocircumflex.sc
EndChar

StartChar: Otilde
Encoding: 213 213 151
Width: 745
GlyphClass: 2
Flags: W
LayerCount: 2
Fore
SplineSet
558 877 m 1,0,1
 549 736 549 736 440 736 c 0,2,3
 414 736 414 736 392.5 746 c 128,-1,4
 371 756 371 756 359 768.5 c 128,-1,5
 347 781 347 781 332.5 791 c 128,-1,6
 318 801 318 801 304 801 c 0,7,8
 268 801 268 801 259 735 c 1,9,-1
 186 735 l 1,10,11
 195 877 195 877 305 877 c 0,12,13
 337 877 337 877 362 860.5 c 128,-1,14
 387 844 387 844 405 828 c 128,-1,15
 423 812 423 812 439 812 c 0,16,17
 475 812 475 812 485 877 c 1,18,-1
 558 877 l 1,0,1
372 670 m 0,19,20
 516 670 516 670 600 578.5 c 128,-1,21
 684 487 684 487 684 330 c 128,-1,22
 684 173 684 173 600 81.5 c 128,-1,23
 516 -10 516 -10 372 -10 c 0,24,25
 229 -10 229 -10 145 81.5 c 128,-1,26
 61 173 61 173 61 330 c 128,-1,27
 61 487 61 487 145 578.5 c 128,-1,28
 229 670 229 670 372 670 c 0,19,20
372 577 m 0,29,30
 279 577 279 577 226 512 c 128,-1,31
 173 447 173 447 173 330 c 128,-1,32
 173 213 173 213 226 148 c 128,-1,33
 279 83 279 83 372 83 c 0,34,35
 466 83 466 83 519 148 c 128,-1,36
 572 213 572 213 572 330 c 128,-1,37
 572 447 572 447 519 512 c 128,-1,38
 466 577 466 577 372 577 c 0,29,30
EndSplineSet
Substitution2: "'c2sc' Capitals to Small Capitals lookup 11 subtable" otilde.sc
Substitution2: "'aalt' Access All Alternates lookup 0 subtable" otilde.sc
EndChar

StartChar: Odieresis
Encoding: 214 214 152
Width: 745
GlyphClass: 2
Flags: W
LayerCount: 2
Fore
SplineSet
271 860 m 0,0,1
 301 860 301 860 319 843 c 128,-1,2
 337 826 337 826 337 797 c 128,-1,3
 337 768 337 768 319 751 c 128,-1,4
 301 734 301 734 271 734 c 0,5,6
 242 734 242 734 224 751.5 c 128,-1,7
 206 769 206 769 206 797 c 0,8,9
 206 826 206 826 224 843 c 128,-1,10
 242 860 242 860 271 860 c 0,0,1
473 860 m 128,-1,12
 503 860 503 860 521 843 c 128,-1,13
 539 826 539 826 539 797 c 128,-1,14
 539 768 539 768 521 751 c 128,-1,15
 503 734 503 734 473 734 c 128,-1,16
 443 734 443 734 425.5 751 c 128,-1,17
 408 768 408 768 408 797 c 128,-1,18
 408 826 408 826 425.5 843 c 128,-1,11
 443 860 443 860 473 860 c 128,-1,12
372 670 m 0,19,20
 516 670 516 670 600 578.5 c 128,-1,21
 684 487 684 487 684 330 c 128,-1,22
 684 173 684 173 600 81.5 c 128,-1,23
 516 -10 516 -10 372 -10 c 0,24,25
 229 -10 229 -10 145 81.5 c 128,-1,26
 61 173 61 173 61 330 c 128,-1,27
 61 487 61 487 145 578.5 c 128,-1,28
 229 670 229 670 372 670 c 0,19,20
372 577 m 0,29,30
 279 577 279 577 226 512 c 128,-1,31
 173 447 173 447 173 330 c 128,-1,32
 173 213 173 213 226 148 c 128,-1,33
 279 83 279 83 372 83 c 0,34,35
 466 83 466 83 519 148 c 128,-1,36
 572 213 572 213 572 330 c 128,-1,37
 572 447 572 447 519 512 c 128,-1,38
 466 577 466 577 372 577 c 0,29,30
EndSplineSet
Substitution2: "'titl' Titling lookup 41 subtable" Odieresis.titl
Substitution2: "'c2sc' Capitals to Small Capitals lookup 11 subtable" odieresis.sc
AlternateSubs2: "'aalt' Access All Alternates lookup 1 subtable" odieresis.sc Odieresis.titl
EndChar

StartChar: multiply
Encoding: 215 215 153
Width: 604
GlyphClass: 2
Flags: W
LayerCount: 2
Fore
SplineSet
530 484 m 1,0,-1
 366 320 l 1,1,-1
 530 156 l 1,2,-1
 466 91 l 1,3,-1
 302 255 l 1,4,-1
 138 91 l 1,5,-1
 73 156 l 1,6,-1
 237 320 l 1,7,-1
 73 484 l 1,8,-1
 138 549 l 1,9,-1
 302 385 l 1,10,-1
 466 549 l 1,11,-1
 530 484 l 1,0,-1
EndSplineSet
EndChar

StartChar: Oslash
Encoding: 216 216 154
Width: 745
GlyphClass: 2
Flags: W
LayerCount: 2
Fore
SplineSet
595 584 m 1,0,1
 684 493 684 493 684 330 c 0,2,3
 684 173 684 173 600 81.5 c 128,-1,4
 516 -10 516 -10 372 -10 c 0,5,6
 275 -10 275 -10 204 33 c 1,7,-1
 156 -34 l 1,8,-1
 81 -34 l 1,9,-1
 155 71 l 1,10,11
 61 163 61 163 61 330 c 0,12,13
 61 487 61 487 145 578.5 c 128,-1,14
 229 670 229 670 372 670 c 0,15,16
 474 670 474 670 547 623 c 1,17,-1
 589 682 l 1,18,-1
 664 682 l 1,19,-1
 595 584 l 1,0,1
372 577 m 0,20,21
 279 577 279 577 226 512 c 128,-1,22
 173 447 173 447 173 330 c 0,23,24
 173 222 173 222 218 157 c 1,25,-1
 488 542 l 1,26,27
 441 577 441 577 372 577 c 0,20,21
372 83 m 0,28,29
 466 83 466 83 519 148 c 128,-1,30
 572 213 572 213 572 330 c 0,31,32
 572 434 572 434 531 496 c 1,33,-1
 264 113 l 1,34,35
 309 83 309 83 372 83 c 0,28,29
EndSplineSet
Substitution2: "'c2sc' Capitals to Small Capitals lookup 11 subtable" oslash.sc
Substitution2: "'aalt' Access All Alternates lookup 0 subtable" oslash.sc
EndChar

StartChar: Ugrave
Encoding: 217 217 155
Width: 718
GlyphClass: 2
Flags: W
LayerCount: 2
Fore
SplineSet
342 888 m 1,0,-1
 398 737 l 1,1,-1
 316 737 l 1,2,-1
 228 888 l 1,3,-1
 342 888 l 1,0,-1
629 660 m 1,4,-1
 629 253 l 2,5,6
 629 123 629 123 560 56.5 c 128,-1,7
 491 -10 491 -10 359 -10 c 128,-1,8
 227 -10 227 -10 158 56.5 c 128,-1,9
 89 123 89 123 89 253 c 2,10,-1
 89 660 l 1,11,-1
 197 660 l 1,12,-1
 197 266 l 2,13,14
 197 172 197 172 236.5 127.5 c 128,-1,15
 276 83 276 83 359 83 c 128,-1,16
 442 83 442 83 481.5 127.5 c 128,-1,17
 521 172 521 172 521 266 c 2,18,-1
 521 660 l 1,19,-1
 629 660 l 1,4,-1
EndSplineSet
Substitution2: "'c2sc' Capitals to Small Capitals lookup 11 subtable" ugrave.sc
Substitution2: "'aalt' Access All Alternates lookup 0 subtable" ugrave.sc
EndChar

StartChar: Uacute
Encoding: 218 218 156
Width: 718
GlyphClass: 2
Flags: W
LayerCount: 2
Fore
SplineSet
364 888 m 1,0,-1
 478 888 l 1,1,-1
 390 737 l 1,2,-1
 308 737 l 1,3,-1
 364 888 l 1,0,-1
629 660 m 1,4,-1
 629 253 l 2,5,6
 629 123 629 123 560 56.5 c 128,-1,7
 491 -10 491 -10 359 -10 c 128,-1,8
 227 -10 227 -10 158 56.5 c 128,-1,9
 89 123 89 123 89 253 c 2,10,-1
 89 660 l 1,11,-1
 197 660 l 1,12,-1
 197 266 l 2,13,14
 197 172 197 172 236.5 127.5 c 128,-1,15
 276 83 276 83 359 83 c 128,-1,16
 442 83 442 83 481.5 127.5 c 128,-1,17
 521 172 521 172 521 266 c 2,18,-1
 521 660 l 1,19,-1
 629 660 l 1,4,-1
EndSplineSet
Substitution2: "'c2sc' Capitals to Small Capitals lookup 11 subtable" uacute.sc
Substitution2: "'aalt' Access All Alternates lookup 0 subtable" uacute.sc
EndChar

StartChar: Ucircumflex
Encoding: 219 219 157
Width: 718
GlyphClass: 2
Flags: W
LayerCount: 2
Fore
SplineSet
528 731 m 1,0,-1
 439 731 l 1,1,-1
 359 838 l 1,2,-1
 279 731 l 1,3,-1
 190 731 l 1,4,-1
 303 898 l 1,5,-1
 415 898 l 1,6,-1
 528 731 l 1,0,-1
629 660 m 1,7,-1
 629 253 l 2,8,9
 629 123 629 123 560 56.5 c 128,-1,10
 491 -10 491 -10 359 -10 c 128,-1,11
 227 -10 227 -10 158 56.5 c 128,-1,12
 89 123 89 123 89 253 c 2,13,-1
 89 660 l 1,14,-1
 197 660 l 1,15,-1
 197 266 l 2,16,17
 197 172 197 172 236.5 127.5 c 128,-1,18
 276 83 276 83 359 83 c 128,-1,19
 442 83 442 83 481.5 127.5 c 128,-1,20
 521 172 521 172 521 266 c 2,21,-1
 521 660 l 1,22,-1
 629 660 l 1,7,-1
EndSplineSet
Substitution2: "'c2sc' Capitals to Small Capitals lookup 11 subtable" ucircumflex.sc
Substitution2: "'aalt' Access All Alternates lookup 0 subtable" ucircumflex.sc
EndChar

StartChar: Udieresis
Encoding: 220 220 158
Width: 718
GlyphClass: 2
Flags: W
LayerCount: 2
Fore
SplineSet
257 860 m 0,0,1
 287 860 287 860 305 843 c 128,-1,2
 323 826 323 826 323 797 c 128,-1,3
 323 768 323 768 305 751 c 128,-1,4
 287 734 287 734 257 734 c 0,5,6
 228 734 228 734 210 751.5 c 128,-1,7
 192 769 192 769 192 797 c 0,8,9
 192 826 192 826 210 843 c 128,-1,10
 228 860 228 860 257 860 c 0,0,1
459 860 m 128,-1,12
 489 860 489 860 507 843 c 128,-1,13
 525 826 525 826 525 797 c 128,-1,14
 525 768 525 768 507 751 c 128,-1,15
 489 734 489 734 459 734 c 128,-1,16
 429 734 429 734 411.5 751 c 128,-1,17
 394 768 394 768 394 797 c 128,-1,18
 394 826 394 826 411.5 843 c 128,-1,11
 429 860 429 860 459 860 c 128,-1,12
629 660 m 1,19,-1
 629 253 l 2,20,21
 629 123 629 123 560 56.5 c 128,-1,22
 491 -10 491 -10 359 -10 c 128,-1,23
 227 -10 227 -10 158 56.5 c 128,-1,24
 89 123 89 123 89 253 c 2,25,-1
 89 660 l 1,26,-1
 197 660 l 1,27,-1
 197 266 l 2,28,29
 197 172 197 172 236.5 127.5 c 128,-1,30
 276 83 276 83 359 83 c 128,-1,31
 442 83 442 83 481.5 127.5 c 128,-1,32
 521 172 521 172 521 266 c 2,33,-1
 521 660 l 1,34,-1
 629 660 l 1,19,-1
EndSplineSet
Substitution2: "'titl' Titling lookup 41 subtable" Udieresis.titl
Substitution2: "'c2sc' Capitals to Small Capitals lookup 11 subtable" udieresis.sc
AlternateSubs2: "'aalt' Access All Alternates lookup 1 subtable" udieresis.sc Udieresis.titl
EndChar

StartChar: Yacute
Encoding: 221 221 159
Width: 597
GlyphClass: 2
Flags: W
LayerCount: 2
Fore
SplineSet
304 888 m 1,0,-1
 418 888 l 1,1,-1
 330 737 l 1,2,-1
 248 737 l 1,3,-1
 304 888 l 1,0,-1
588 660 m 1,4,-1
 352 253 l 1,5,-1
 352 0 l 1,6,-1
 245 0 l 1,7,-1
 245 253 l 1,8,-1
 10 660 l 1,9,-1
 129 660 l 1,10,-1
 247 448 l 1,11,-1
 299 349 l 1,12,-1
 351 448 l 1,13,-1
 468 660 l 1,14,-1
 588 660 l 1,4,-1
EndSplineSet
Substitution2: "'c2sc' Capitals to Small Capitals lookup 11 subtable" yacute.sc
Substitution2: "'aalt' Access All Alternates lookup 0 subtable" yacute.sc
EndChar

StartChar: Thorn
Encoding: 222 222 160
Width: 639
GlyphClass: 2
Flags: W
LayerCount: 2
Fore
SplineSet
339 547 m 2,0,1
 462 547 462 547 525.5 493 c 128,-1,2
 589 439 589 439 589 337 c 128,-1,3
 589 235 589 235 525.5 181 c 128,-1,4
 462 127 462 127 339 127 c 2,5,-1
 205 127 l 1,6,-1
 205 0 l 1,7,-1
 98 0 l 1,8,-1
 98 660 l 1,9,-1
 205 660 l 1,10,-1
 205 547 l 1,11,-1
 339 547 l 2,0,1
338 218 m 2,12,13
 409 218 409 218 444 247.5 c 128,-1,14
 479 277 479 277 478 337 c 0,15,16
 479 397 479 397 444 426.5 c 128,-1,17
 409 456 409 456 338 456 c 2,18,-1
 205 456 l 1,19,-1
 205 218 l 1,20,-1
 338 218 l 2,12,13
EndSplineSet
Substitution2: "'c2sc' Capitals to Small Capitals lookup 11 subtable" thorn.sc
Substitution2: "'aalt' Access All Alternates lookup 0 subtable" thorn.sc
EndChar

StartChar: germandbls
Encoding: 223 223 161
Width: 628
GlyphClass: 2
Flags: W
LayerCount: 2
Fore
SplineSet
391 383 m 1,0,1
 483 383 483 383 529.5 326.5 c 128,-1,2
 576 270 576 270 576 193 c 0,3,4
 576 109 576 109 518.5 49.5 c 128,-1,5
 461 -10 461 -10 355 -10 c 0,6,7
 282 -10 282 -10 245 23 c 1,8,-1
 269 102 l 1,9,10
 297 78 297 78 349 78 c 0,11,12
 408 78 408 78 440.5 113 c 128,-1,13
 473 148 473 148 473 206 c 0,14,15
 473 268 473 268 433.5 300 c 128,-1,16
 394 332 394 332 319 332 c 2,17,-1
 277 332 l 1,18,-1
 282 421 l 1,19,-1
 319 421 l 2,20,21
 378 421 378 421 412 452.5 c 128,-1,22
 446 484 446 484 446 534 c 0,23,24
 446 640 446 640 325 640 c 0,25,26
 250 640 250 640 220 598 c 128,-1,27
 190 556 190 556 190 465 c 2,28,-1
 190 0 l 1,29,-1
 83 0 l 1,30,-1
 83 486 l 2,31,32
 83 730 83 730 331 730 c 0,33,34
 441 730 441 730 497 673.5 c 128,-1,35
 553 617 553 617 553 541 c 0,36,37
 553 482 553 482 511 433.5 c 128,-1,38
 469 385 469 385 391 385 c 1,39,-1
 391 383 l 1,0,1
EndSplineSet
Substitution2: "Single Substitution lookup 57 subtable" germandbls.calt
Substitution2: "'smcp' Lowercase to Small Capitals lookup 12 subtable" germandbls.sc
AlternateSubs2: "'aalt' Access All Alternates lookup 1 subtable" germandbls.sc germandbls.calt
EndChar

StartChar: agrave
Encoding: 224 224 162
Width: 570
GlyphClass: 2
Flags: W
LayerCount: 2
Fore
SplineSet
325 578 m 1,0,-1
 243 578 l 1,1,-1
 144 746 l 1,2,-1
 252 746 l 1,3,-1
 325 578 l 1,0,-1
515 70 m 0,4,5
 537 70 537 70 552 74 c 1,6,-1
 545 2 l 1,7,8
 518 -10 518 -10 483 -10 c 0,9,10
 396 -10 396 -10 381 64 c 1,11,12
 358 29 358 29 313 9.5 c 128,-1,13
 268 -10 268 -10 212 -10 c 0,14,15
 139 -10 139 -10 94 24 c 128,-1,16
 49 58 49 58 49 121 c 0,17,18
 49 180 49 180 98 220.5 c 128,-1,19
 147 261 147 261 244 278 c 2,20,-1
 371 300 l 1,21,-1
 371 327 l 2,22,23
 371 373 371 373 344 399.5 c 128,-1,24
 317 426 317 426 269 426 c 0,25,26
 170 426 170 426 140 336 c 1,27,-1
 57 380 l 1,28,29
 75 440 75 440 130.5 475 c 128,-1,30
 186 510 186 510 267 510 c 0,31,32
 364 510 364 510 421 465 c 128,-1,33
 478 420 478 420 478 333 c 2,34,-1
 478 107 l 2,35,36
 478 70 478 70 515 70 c 0,4,5
235 71 m 0,37,38
 289 71 289 71 330 97 c 128,-1,39
 371 123 371 123 371 166 c 2,40,-1
 371 226 l 1,41,-1
 262 204 l 2,42,43
 160 184 160 184 160 128 c 0,44,45
 160 71 160 71 235 71 c 0,37,38
EndSplineSet
Substitution2: "'smcp' Lowercase to Small Capitals lookup 12 subtable" agrave.sc
Substitution2: "'aalt' Access All Alternates lookup 0 subtable" agrave.sc
EndChar

StartChar: aacute
Encoding: 225 225 163
Width: 570
GlyphClass: 2
Flags: W
LayerCount: 2
Fore
SplineSet
400 746 m 1,0,-1
 301 578 l 1,1,-1
 219 578 l 1,2,-1
 292 746 l 1,3,-1
 400 746 l 1,0,-1
515 70 m 0,4,5
 537 70 537 70 552 74 c 1,6,-1
 545 2 l 1,7,8
 518 -10 518 -10 483 -10 c 0,9,10
 396 -10 396 -10 381 64 c 1,11,12
 358 29 358 29 313 9.5 c 128,-1,13
 268 -10 268 -10 212 -10 c 0,14,15
 139 -10 139 -10 94 24 c 128,-1,16
 49 58 49 58 49 121 c 0,17,18
 49 180 49 180 98 220.5 c 128,-1,19
 147 261 147 261 244 278 c 2,20,-1
 371 300 l 1,21,-1
 371 327 l 2,22,23
 371 373 371 373 344 399.5 c 128,-1,24
 317 426 317 426 269 426 c 0,25,26
 170 426 170 426 140 336 c 1,27,-1
 57 380 l 1,28,29
 75 440 75 440 130.5 475 c 128,-1,30
 186 510 186 510 267 510 c 0,31,32
 364 510 364 510 421 465 c 128,-1,33
 478 420 478 420 478 333 c 2,34,-1
 478 107 l 2,35,36
 478 70 478 70 515 70 c 0,4,5
235 71 m 0,37,38
 289 71 289 71 330 97 c 128,-1,39
 371 123 371 123 371 166 c 2,40,-1
 371 226 l 1,41,-1
 262 204 l 2,42,43
 160 184 160 184 160 128 c 0,44,45
 160 71 160 71 235 71 c 0,37,38
EndSplineSet
Substitution2: "'smcp' Lowercase to Small Capitals lookup 12 subtable" aacute.sc
Substitution2: "'aalt' Access All Alternates lookup 0 subtable" aacute.sc
EndChar

StartChar: acircumflex
Encoding: 226 226 164
Width: 570
GlyphClass: 2
Flags: W
LayerCount: 2
Fore
SplineSet
276 674 m 1,0,-1
 196 571 l 1,1,-1
 108 571 l 1,2,-1
 219 739 l 1,3,-1
 333 739 l 1,4,-1
 444 571 l 1,5,-1
 356 571 l 1,6,-1
 276 674 l 1,0,-1
515 70 m 0,7,8
 537 70 537 70 552 74 c 1,9,-1
 545 2 l 1,10,11
 518 -10 518 -10 483 -10 c 0,12,13
 396 -10 396 -10 381 64 c 1,14,15
 358 29 358 29 313 9.5 c 128,-1,16
 268 -10 268 -10 212 -10 c 0,17,18
 139 -10 139 -10 94 24 c 128,-1,19
 49 58 49 58 49 121 c 0,20,21
 49 180 49 180 98 220.5 c 128,-1,22
 147 261 147 261 244 278 c 2,23,-1
 371 300 l 1,24,-1
 371 327 l 2,25,26
 371 373 371 373 344 399.5 c 128,-1,27
 317 426 317 426 269 426 c 0,28,29
 170 426 170 426 140 336 c 1,30,-1
 57 380 l 1,31,32
 75 440 75 440 130.5 475 c 128,-1,33
 186 510 186 510 267 510 c 0,34,35
 364 510 364 510 421 465 c 128,-1,36
 478 420 478 420 478 333 c 2,37,-1
 478 107 l 2,38,39
 478 70 478 70 515 70 c 0,7,8
235 71 m 0,40,41
 289 71 289 71 330 97 c 128,-1,42
 371 123 371 123 371 166 c 2,43,-1
 371 226 l 1,44,-1
 262 204 l 2,45,46
 160 184 160 184 160 128 c 0,47,48
 160 71 160 71 235 71 c 0,40,41
EndSplineSet
Substitution2: "'smcp' Lowercase to Small Capitals lookup 12 subtable" acircumflex.sc
Substitution2: "'aalt' Access All Alternates lookup 0 subtable" acircumflex.sc
EndChar

StartChar: atilde
Encoding: 227 227 165
Width: 570
GlyphClass: 2
Flags: W
LayerCount: 2
Fore
SplineSet
207 641 m 0,0,1
 171 641 171 641 162 575 c 1,2,-1
 89 575 l 1,3,4
 98 717 98 717 208 717 c 0,5,6
 240 717 240 717 265 700.5 c 128,-1,7
 290 684 290 684 308 668 c 128,-1,8
 326 652 326 652 342 652 c 0,9,10
 378 652 378 652 388 717 c 1,11,-1
 461 717 l 1,12,13
 452 576 452 576 343 576 c 0,14,15
 317 576 317 576 295.5 586 c 128,-1,16
 274 596 274 596 262 608.5 c 128,-1,17
 250 621 250 621 235.5 631 c 128,-1,18
 221 641 221 641 207 641 c 0,0,1
515 70 m 0,19,20
 537 70 537 70 552 74 c 1,21,-1
 545 2 l 1,22,23
 518 -10 518 -10 483 -10 c 0,24,25
 396 -10 396 -10 381 64 c 1,26,27
 358 29 358 29 313 9.5 c 128,-1,28
 268 -10 268 -10 212 -10 c 0,29,30
 139 -10 139 -10 94 24 c 128,-1,31
 49 58 49 58 49 121 c 0,32,33
 49 180 49 180 98 220.5 c 128,-1,34
 147 261 147 261 244 278 c 2,35,-1
 371 300 l 1,36,-1
 371 327 l 2,37,38
 371 373 371 373 344 399.5 c 128,-1,39
 317 426 317 426 269 426 c 0,40,41
 170 426 170 426 140 336 c 1,42,-1
 57 380 l 1,43,44
 75 440 75 440 130.5 475 c 128,-1,45
 186 510 186 510 267 510 c 0,46,47
 364 510 364 510 421 465 c 128,-1,48
 478 420 478 420 478 333 c 2,49,-1
 478 107 l 2,50,51
 478 70 478 70 515 70 c 0,19,20
235 71 m 0,52,53
 289 71 289 71 330 97 c 128,-1,54
 371 123 371 123 371 166 c 2,55,-1
 371 226 l 1,56,-1
 262 204 l 2,57,58
 160 184 160 184 160 128 c 0,59,60
 160 71 160 71 235 71 c 0,52,53
EndSplineSet
Substitution2: "'smcp' Lowercase to Small Capitals lookup 12 subtable" atilde.sc
Substitution2: "'aalt' Access All Alternates lookup 0 subtable" atilde.sc
EndChar

StartChar: adieresis
Encoding: 228 228 166
Width: 570
GlyphClass: 2
Flags: W
LayerCount: 2
Fore
SplineSet
175 574 m 0,0,1
 146 574 146 574 128 591.5 c 128,-1,2
 110 609 110 609 110 637 c 0,3,4
 110 666 110 666 128 683 c 128,-1,5
 146 700 146 700 175 700 c 0,6,7
 205 700 205 700 223 683 c 128,-1,8
 241 666 241 666 241 637 c 128,-1,9
 241 608 241 608 223 591 c 128,-1,10
 205 574 205 574 175 574 c 0,0,1
377 574 m 128,-1,12
 347 574 347 574 329.5 591 c 128,-1,13
 312 608 312 608 312 637 c 128,-1,14
 312 666 312 666 329.5 683 c 128,-1,15
 347 700 347 700 377 700 c 128,-1,16
 407 700 407 700 425 683 c 128,-1,17
 443 666 443 666 443 637 c 128,-1,18
 443 608 443 608 425 591 c 128,-1,11
 407 574 407 574 377 574 c 128,-1,12
515 70 m 0,19,20
 537 70 537 70 552 74 c 1,21,-1
 545 2 l 1,22,23
 518 -10 518 -10 483 -10 c 0,24,25
 396 -10 396 -10 381 64 c 1,26,27
 358 29 358 29 313 9.5 c 128,-1,28
 268 -10 268 -10 212 -10 c 0,29,30
 139 -10 139 -10 94 24 c 128,-1,31
 49 58 49 58 49 121 c 0,32,33
 49 180 49 180 98 220.5 c 128,-1,34
 147 261 147 261 244 278 c 2,35,-1
 371 300 l 1,36,-1
 371 327 l 2,37,38
 371 373 371 373 344 399.5 c 128,-1,39
 317 426 317 426 269 426 c 0,40,41
 170 426 170 426 140 336 c 1,42,-1
 57 380 l 1,43,44
 75 440 75 440 130.5 475 c 128,-1,45
 186 510 186 510 267 510 c 0,46,47
 364 510 364 510 421 465 c 128,-1,48
 478 420 478 420 478 333 c 2,49,-1
 478 107 l 2,50,51
 478 70 478 70 515 70 c 0,19,20
235 71 m 0,52,53
 289 71 289 71 330 97 c 128,-1,54
 371 123 371 123 371 166 c 2,55,-1
 371 226 l 1,56,-1
 262 204 l 2,57,58
 160 184 160 184 160 128 c 0,59,60
 160 71 160 71 235 71 c 0,52,53
EndSplineSet
Substitution2: "'smcp' Lowercase to Small Capitals lookup 12 subtable" adieresis.sc
Substitution2: "'aalt' Access All Alternates lookup 0 subtable" adieresis.sc
EndChar

StartChar: aring
Encoding: 229 229 167
Width: 570
GlyphClass: 2
Flags: W
LayerCount: 2
Fore
SplineSet
275 568 m 0,0,1
 216 568 216 568 181 600.5 c 128,-1,2
 146 633 146 633 146 688 c 0,3,4
 146 741 146 741 181.5 773.5 c 128,-1,5
 217 806 217 806 275 806 c 128,-1,6
 333 806 333 806 367.5 773.5 c 128,-1,7
 402 741 402 741 402 688 c 0,8,9
 402 633 402 633 367.5 600.5 c 128,-1,10
 333 568 333 568 275 568 c 0,0,1
275 751 m 128,-1,12
 246 751 246 751 227.5 733.5 c 128,-1,13
 209 716 209 716 209 688 c 128,-1,14
 209 660 209 660 227.5 642 c 128,-1,15
 246 624 246 624 275 624 c 128,-1,16
 304 624 304 624 322 642 c 128,-1,17
 340 660 340 660 340 688 c 128,-1,18
 340 716 340 716 322 733.5 c 128,-1,11
 304 751 304 751 275 751 c 128,-1,12
515 70 m 0,19,20
 537 70 537 70 552 74 c 1,21,-1
 545 2 l 1,22,23
 518 -10 518 -10 483 -10 c 0,24,25
 396 -10 396 -10 381 64 c 1,26,27
 358 29 358 29 313 9.5 c 128,-1,28
 268 -10 268 -10 212 -10 c 0,29,30
 139 -10 139 -10 94 24 c 128,-1,31
 49 58 49 58 49 121 c 0,32,33
 49 180 49 180 98 220.5 c 128,-1,34
 147 261 147 261 244 278 c 2,35,-1
 371 300 l 1,36,-1
 371 327 l 2,37,38
 371 373 371 373 344 399.5 c 128,-1,39
 317 426 317 426 269 426 c 0,40,41
 170 426 170 426 140 336 c 1,42,-1
 57 380 l 1,43,44
 75 440 75 440 130.5 475 c 128,-1,45
 186 510 186 510 267 510 c 0,46,47
 364 510 364 510 421 465 c 128,-1,48
 478 420 478 420 478 333 c 2,49,-1
 478 107 l 2,50,51
 478 70 478 70 515 70 c 0,19,20
235 71 m 0,52,53
 289 71 289 71 330 97 c 128,-1,54
 371 123 371 123 371 166 c 2,55,-1
 371 226 l 1,56,-1
 262 204 l 2,57,58
 160 184 160 184 160 128 c 0,59,60
 160 71 160 71 235 71 c 0,52,53
EndSplineSet
Substitution2: "'smcp' Lowercase to Small Capitals lookup 12 subtable" aring.sc
Substitution2: "'aalt' Access All Alternates lookup 0 subtable" aring.sc
EndChar

StartChar: ae
Encoding: 230 230 168
Width: 883
GlyphClass: 2
Flags: W
LayerCount: 2
Fore
SplineSet
830 274 m 0,0,1
 830 244 830 244 826 214 c 1,2,-1
 480 214 l 1,3,4
 487 148 487 148 524 111.5 c 128,-1,5
 561 75 561 75 616 75 c 0,6,7
 707 75 707 75 732 143 c 1,8,-1
 820 106 l 1,9,10
 765 -10 765 -10 614 -10 c 0,11,12
 477 -10 477 -10 425 99 c 1,13,14
 402 45 402 45 346 17.5 c 128,-1,15
 290 -10 290 -10 212 -10 c 0,16,17
 137 -10 137 -10 93 25.5 c 128,-1,18
 49 61 49 61 49 121 c 0,19,20
 49 243 49 243 235 273 c 2,21,-1
 377 295 l 1,22,-1
 377 327 l 2,23,24
 377 373 377 373 348.5 399.5 c 128,-1,25
 320 426 320 426 268 426 c 0,26,27
 174 426 174 426 141 337 c 1,28,-1
 58 378 l 1,29,30
 77 440 77 440 133 475 c 128,-1,31
 189 510 189 510 272 510 c 0,32,33
 391 510 391 510 440 419 c 1,34,35
 499 510 499 510 609 510 c 0,36,37
 716 510 716 510 773 444 c 128,-1,38
 830 378 830 378 830 274 c 0,0,1
611 425 m 0,39,40
 557 425 557 425 523 390.5 c 128,-1,41
 489 356 489 356 480 291 c 1,42,-1
 731 291 l 1,43,44
 718 425 718 425 611 425 c 0,39,40
239 71 m 0,45,46
 295 71 295 71 336 103.5 c 128,-1,47
 377 136 377 136 377 191 c 2,48,-1
 377 225 l 1,49,-1
 266 204 l 2,50,51
 209 193 209 193 184.5 176 c 128,-1,52
 160 159 160 159 160 128 c 0,53,54
 160 71 160 71 239 71 c 0,45,46
EndSplineSet
Substitution2: "'smcp' Lowercase to Small Capitals lookup 12 subtable" ae.sc
Substitution2: "'aalt' Access All Alternates lookup 0 subtable" ae.sc
EndChar

StartChar: ccedilla
Encoding: 231 231 169
Width: 566
GlyphClass: 2
Flags: W
LayerCount: 2
Fore
SplineSet
524 139 m 1,0,1
 487 17 487 17 360 -5 c 1,2,3
 416 -46 416 -46 416 -105 c 0,4,5
 416 -153 416 -153 382 -184 c 128,-1,6
 348 -215 348 -215 292 -215 c 0,7,8
 218 -215 218 -215 177 -178 c 1,9,-1
 210 -116 l 1,10,11
 238 -146 238 -146 280 -146 c 0,12,13
 304 -146 304 -146 320 -130.5 c 128,-1,14
 336 -115 336 -115 336 -90 c 0,15,16
 336 -63 336 -63 319.5 -44.5 c 128,-1,17
 303 -26 303 -26 260 -7 c 1,18,19
 162 6 162 6 108 73 c 128,-1,20
 54 140 54 140 54 250 c 0,21,22
 54 372 54 372 120 441 c 128,-1,23
 186 510 186 510 303 510 c 0,24,25
 467 510 467 510 520 370 c 1,26,-1
 420 330 l 1,27,28
 394 425 394 425 303 425 c 0,29,30
 236 425 236 425 199 379 c 128,-1,31
 162 333 162 333 162 249 c 128,-1,32
 162 165 162 165 199 120 c 128,-1,33
 236 75 236 75 303 75 c 0,34,35
 406 75 406 75 426 172 c 1,36,-1
 524 139 l 1,0,1
EndSplineSet
Substitution2: "'smcp' Lowercase to Small Capitals lookup 12 subtable" ccedilla.sc
Substitution2: "'aalt' Access All Alternates lookup 0 subtable" ccedilla.sc
EndChar

StartChar: egrave
Encoding: 232 232 170
Width: 581
GlyphClass: 2
Flags: W
AnchorPoint: "Anchor-0" 302 0 basechar 0
LayerCount: 2
Fore
SplineSet
344 578 m 1,0,-1
 262 578 l 1,1,-1
 163 746 l 1,2,-1
 271 746 l 1,3,-1
 344 578 l 1,0,-1
530 265 m 0,4,5
 530 236 530 236 526 210 c 1,6,-1
 160 210 l 1,7,8
 169 144 169 144 207 109.5 c 128,-1,9
 245 75 245 75 305 75 c 0,10,11
 406 75 406 75 431 143 c 1,12,-1
 520 106 l 1,13,14
 464 -10 464 -10 305 -10 c 0,15,16
 187 -10 187 -10 120.5 59 c 128,-1,17
 54 128 54 128 54 250 c 0,18,19
 54 373 54 373 118 441.5 c 128,-1,20
 182 510 182 510 298 510 c 0,21,22
 408 510 408 510 469 443 c 128,-1,23
 530 376 530 376 530 265 c 0,4,5
298 425 m 0,24,25
 179 425 179 425 160 292 c 1,26,-1
 430 292 l 1,27,28
 422 355 422 355 387.5 390 c 128,-1,29
 353 425 353 425 298 425 c 0,24,25
EndSplineSet
Substitution2: "'smcp' Lowercase to Small Capitals lookup 12 subtable" egrave.sc
Substitution2: "'aalt' Access All Alternates lookup 0 subtable" egrave.sc
EndChar

StartChar: eacute
Encoding: 233 233 171
Width: 581
GlyphClass: 2
Flags: W
AnchorPoint: "Anchor-0" 302 0 basechar 0
LayerCount: 2
Fore
SplineSet
419 746 m 1,0,-1
 320 578 l 1,1,-1
 238 578 l 1,2,-1
 311 746 l 1,3,-1
 419 746 l 1,0,-1
530 265 m 0,4,5
 530 236 530 236 526 210 c 1,6,-1
 160 210 l 1,7,8
 169 144 169 144 207 109.5 c 128,-1,9
 245 75 245 75 305 75 c 0,10,11
 406 75 406 75 431 143 c 1,12,-1
 520 106 l 1,13,14
 464 -10 464 -10 305 -10 c 0,15,16
 187 -10 187 -10 120.5 59 c 128,-1,17
 54 128 54 128 54 250 c 0,18,19
 54 373 54 373 118 441.5 c 128,-1,20
 182 510 182 510 298 510 c 0,21,22
 408 510 408 510 469 443 c 128,-1,23
 530 376 530 376 530 265 c 0,4,5
298 425 m 0,24,25
 179 425 179 425 160 292 c 1,26,-1
 430 292 l 1,27,28
 422 355 422 355 387.5 390 c 128,-1,29
 353 425 353 425 298 425 c 0,24,25
EndSplineSet
Substitution2: "'smcp' Lowercase to Small Capitals lookup 12 subtable" eacute.sc
Substitution2: "'aalt' Access All Alternates lookup 0 subtable" eacute.sc
EndChar

StartChar: ecircumflex
Encoding: 234 234 172
Width: 581
GlyphClass: 2
Flags: W
AnchorPoint: "Anchor-0" 302 0 basechar 0
LayerCount: 2
Fore
SplineSet
295 674 m 1,0,-1
 215 571 l 1,1,-1
 127 571 l 1,2,-1
 238 739 l 1,3,-1
 352 739 l 1,4,-1
 463 571 l 1,5,-1
 375 571 l 1,6,-1
 295 674 l 1,0,-1
530 265 m 0,7,8
 530 236 530 236 526 210 c 1,9,-1
 160 210 l 1,10,11
 169 144 169 144 207 109.5 c 128,-1,12
 245 75 245 75 305 75 c 0,13,14
 406 75 406 75 431 143 c 1,15,-1
 520 106 l 1,16,17
 464 -10 464 -10 305 -10 c 0,18,19
 187 -10 187 -10 120.5 59 c 128,-1,20
 54 128 54 128 54 250 c 0,21,22
 54 373 54 373 118 441.5 c 128,-1,23
 182 510 182 510 298 510 c 0,24,25
 408 510 408 510 469 443 c 128,-1,26
 530 376 530 376 530 265 c 0,7,8
298 425 m 0,27,28
 179 425 179 425 160 292 c 1,29,-1
 430 292 l 1,30,31
 422 355 422 355 387.5 390 c 128,-1,32
 353 425 353 425 298 425 c 0,27,28
EndSplineSet
Substitution2: "'smcp' Lowercase to Small Capitals lookup 12 subtable" ecircumflex.sc
Substitution2: "'aalt' Access All Alternates lookup 0 subtable" ecircumflex.sc
EndChar

StartChar: edieresis
Encoding: 235 235 173
Width: 581
GlyphClass: 2
Flags: W
AnchorPoint: "Anchor-0" 302 0 basechar 0
LayerCount: 2
Fore
SplineSet
194 574 m 0,0,1
 165 574 165 574 147 591.5 c 128,-1,2
 129 609 129 609 129 637 c 0,3,4
 129 666 129 666 147 683 c 128,-1,5
 165 700 165 700 194 700 c 0,6,7
 224 700 224 700 242 683 c 128,-1,8
 260 666 260 666 260 637 c 128,-1,9
 260 608 260 608 242 591 c 128,-1,10
 224 574 224 574 194 574 c 0,0,1
396 574 m 128,-1,12
 366 574 366 574 348.5 591 c 128,-1,13
 331 608 331 608 331 637 c 128,-1,14
 331 666 331 666 348.5 683 c 128,-1,15
 366 700 366 700 396 700 c 128,-1,16
 426 700 426 700 444 683 c 128,-1,17
 462 666 462 666 462 637 c 128,-1,18
 462 608 462 608 444 591 c 128,-1,11
 426 574 426 574 396 574 c 128,-1,12
530 265 m 0,19,20
 530 236 530 236 526 210 c 1,21,-1
 160 210 l 1,22,23
 169 144 169 144 207 109.5 c 128,-1,24
 245 75 245 75 305 75 c 0,25,26
 406 75 406 75 431 143 c 1,27,-1
 520 106 l 1,28,29
 464 -10 464 -10 305 -10 c 0,30,31
 187 -10 187 -10 120.5 59 c 128,-1,32
 54 128 54 128 54 250 c 0,33,34
 54 373 54 373 118 441.5 c 128,-1,35
 182 510 182 510 298 510 c 0,36,37
 408 510 408 510 469 443 c 128,-1,38
 530 376 530 376 530 265 c 0,19,20
298 425 m 0,39,40
 179 425 179 425 160 292 c 1,41,-1
 430 292 l 1,42,43
 422 355 422 355 387.5 390 c 128,-1,44
 353 425 353 425 298 425 c 0,39,40
EndSplineSet
Substitution2: "'smcp' Lowercase to Small Capitals lookup 12 subtable" edieresis.sc
Substitution2: "'aalt' Access All Alternates lookup 0 subtable" edieresis.sc
EndChar

StartChar: igrave
Encoding: 236 236 174
Width: 274
GlyphClass: 2
Flags: W
LayerCount: 2
Fore
SplineSet
113 746 m 1,0,-1
 186 578 l 1,1,-1
 104 578 l 1,2,-1
 5 746 l 1,3,-1
 113 746 l 1,0,-1
190 500 m 1,4,-1
 190 0 l 1,5,-1
 83 0 l 1,6,-1
 83 500 l 1,7,-1
 190 500 l 1,4,-1
EndSplineSet
Substitution2: "'smcp' Lowercase to Small Capitals lookup 12 subtable" igrave.sc
Substitution2: "'aalt' Access All Alternates lookup 0 subtable" igrave.sc
EndChar

StartChar: iacute
Encoding: 237 237 175
Width: 274
GlyphClass: 2
Flags: W
LayerCount: 2
Fore
SplineSet
161 746 m 1,0,-1
 269 746 l 1,1,-1
 170 578 l 1,2,-1
 88 578 l 1,3,-1
 161 746 l 1,0,-1
190 500 m 1,4,-1
 190 0 l 1,5,-1
 83 0 l 1,6,-1
 83 500 l 1,7,-1
 190 500 l 1,4,-1
EndSplineSet
Substitution2: "'smcp' Lowercase to Small Capitals lookup 12 subtable" iacute.sc
Substitution2: "'aalt' Access All Alternates lookup 0 subtable" iacute.sc
EndChar

StartChar: icircumflex
Encoding: 238 238 176
Width: 274
GlyphClass: 2
Flags: W
LayerCount: 2
Fore
SplineSet
305 571 m 1,0,-1
 217 571 l 1,1,-1
 137 674 l 1,2,-1
 57 571 l 1,3,-1
 -31 571 l 1,4,-1
 80 739 l 1,5,-1
 194 739 l 1,6,-1
 305 571 l 1,0,-1
190 500 m 1,7,-1
 190 0 l 1,8,-1
 83 0 l 1,9,-1
 83 500 l 1,10,-1
 190 500 l 1,7,-1
EndSplineSet
Substitution2: "'smcp' Lowercase to Small Capitals lookup 12 subtable" icircumflex.sc
Substitution2: "'aalt' Access All Alternates lookup 0 subtable" icircumflex.sc
EndChar

StartChar: idieresis
Encoding: 239 239 177
Width: 274
GlyphClass: 2
Flags: W
LayerCount: 2
Fore
SplineSet
52 574 m 0,0,1
 23 574 23 574 5.5 591 c 128,-1,2
 -12 608 -12 608 -12 637 c 128,-1,3
 -12 666 -12 666 5.5 683.5 c 128,-1,4
 23 701 23 701 52 701 c 0,5,6
 82 701 82 701 99.5 683.5 c 128,-1,7
 117 666 117 666 117 637 c 128,-1,8
 117 608 117 608 99.5 591 c 128,-1,9
 82 574 82 574 52 574 c 0,0,1
222 574 m 0,10,11
 191 574 191 574 174 591 c 128,-1,12
 157 608 157 608 157 637 c 128,-1,13
 157 666 157 666 174.5 683.5 c 128,-1,14
 192 701 192 701 222 701 c 0,15,16
 251 701 251 701 268.5 683.5 c 128,-1,17
 286 666 286 666 286 637 c 128,-1,18
 286 608 286 608 268.5 591 c 128,-1,19
 251 574 251 574 222 574 c 0,10,11
190 500 m 1,20,-1
 190 0 l 1,21,-1
 83 0 l 1,22,-1
 83 500 l 1,23,-1
 190 500 l 1,20,-1
EndSplineSet
Substitution2: "'smcp' Lowercase to Small Capitals lookup 12 subtable" idieresis.sc
Substitution2: "'aalt' Access All Alternates lookup 0 subtable" idieresis.sc
EndChar

StartChar: eth
Encoding: 240 240 178
Width: 615
GlyphClass: 2
Flags: W
LayerCount: 2
Fore
SplineSet
552 625 m 1,0,-1
 457 608 l 1,1,2
 551 481 551 481 551 293 c 0,3,4
 551 149 551 149 487.5 69.5 c 128,-1,5
 424 -10 424 -10 296 -10 c 0,6,7
 185 -10 185 -10 120.5 56 c 128,-1,8
 56 122 56 122 56 239 c 0,9,10
 56 354 56 354 122 421 c 128,-1,11
 188 488 188 488 293 488 c 0,12,13
 403 488 403 488 454 418 c 1,14,15
 432 518 432 518 375 589 c 1,16,-1
 195 545 l 1,17,-1
 185 596 l 1,18,-1
 339 627 l 1,19,20
 289 675 289 675 196 728 c 1,21,-1
 321 728 l 1,22,23
 382 692 382 692 425 646 c 1,24,-1
 537 677 l 1,25,-1
 552 625 l 1,0,-1
303 75 m 0,26,27
 370 75 370 75 409 122 c 128,-1,28
 448 169 448 169 448 239 c 0,29,30
 448 319 448 319 411 362 c 128,-1,31
 374 405 374 405 307 405 c 0,32,33
 239 405 239 405 202 362 c 128,-1,34
 165 319 165 319 165 239 c 0,35,36
 165 161 165 161 201.5 118 c 128,-1,37
 238 75 238 75 303 75 c 0,26,27
EndSplineSet
Substitution2: "'smcp' Lowercase to Small Capitals lookup 12 subtable" eth.sc
Substitution2: "'aalt' Access All Alternates lookup 0 subtable" eth.sc
EndChar

StartChar: ntilde
Encoding: 241 241 179
Width: 619
GlyphClass: 2
Flags: W
AnchorPoint: "Anchor-0" 335 0 basechar 0
LayerCount: 2
Fore
SplineSet
248 641 m 0,0,1
 212 641 212 641 203 575 c 1,2,-1
 130 575 l 1,3,4
 139 717 139 717 249 717 c 0,5,6
 281 717 281 717 306 700.5 c 128,-1,7
 331 684 331 684 349 668 c 128,-1,8
 367 652 367 652 383 652 c 0,9,10
 419 652 419 652 429 717 c 1,11,-1
 502 717 l 1,12,13
 493 576 493 576 384 576 c 0,14,15
 358 576 358 576 336.5 586 c 128,-1,16
 315 596 315 596 303 608.5 c 128,-1,17
 291 621 291 621 276.5 631 c 128,-1,18
 262 641 262 641 248 641 c 0,0,1
352 510 m 0,19,20
 435 510 435 510 487.5 462 c 128,-1,21
 540 414 540 414 540 324 c 2,22,-1
 540 0 l 1,23,-1
 433 0 l 1,24,-1
 433 290 l 2,25,26
 433 422 433 422 326 422 c 0,27,28
 270 422 270 422 230 383.5 c 128,-1,29
 190 345 190 345 190 265 c 2,30,-1
 190 0 l 1,31,-1
 83 0 l 1,32,-1
 83 500 l 1,33,-1
 178 500 l 1,34,-1
 183 417 l 1,35,36
 232 510 232 510 352 510 c 0,19,20
EndSplineSet
Substitution2: "Single Substitution lookup 57 subtable" ntilde.swsh
Substitution2: "'swsh' Swash lookup 38 subtable" ntilde.swsh
Substitution2: "'smcp' Lowercase to Small Capitals lookup 12 subtable" ntilde.sc
AlternateSubs2: "'aalt' Access All Alternates lookup 1 subtable" ntilde.sc ntilde.swsh
EndChar

StartChar: ograve
Encoding: 242 242 180
Width: 606
GlyphClass: 2
Flags: W
LayerCount: 2
Fore
SplineSet
279 746 m 1,0,-1
 352 578 l 1,1,-1
 270 578 l 1,2,-1
 171 746 l 1,3,-1
 279 746 l 1,0,-1
303 510 m 128,-1,5
 420 510 420 510 486 441 c 128,-1,6
 552 372 552 372 552 250 c 128,-1,7
 552 128 552 128 486 59 c 128,-1,8
 420 -10 420 -10 303 -10 c 128,-1,9
 186 -10 186 -10 120 59 c 128,-1,10
 54 128 54 128 54 250 c 128,-1,11
 54 372 54 372 120 441 c 128,-1,4
 186 510 186 510 303 510 c 128,-1,5
303 426 m 128,-1,13
 235 426 235 426 198.5 380.5 c 128,-1,14
 162 335 162 335 162 250 c 128,-1,15
 162 165 162 165 198.5 119.5 c 128,-1,16
 235 74 235 74 303 74 c 128,-1,17
 371 74 371 74 408 120 c 128,-1,18
 445 166 445 166 445 250 c 128,-1,19
 445 334 445 334 408 380 c 128,-1,12
 371 426 371 426 303 426 c 128,-1,13
EndSplineSet
Substitution2: "'smcp' Lowercase to Small Capitals lookup 12 subtable" ograve.sc
Substitution2: "'aalt' Access All Alternates lookup 0 subtable" ograve.sc
EndChar

StartChar: oacute
Encoding: 243 243 181
Width: 606
GlyphClass: 2
Flags: W
LayerCount: 2
Fore
SplineSet
319 746 m 1,0,-1
 427 746 l 1,1,-1
 328 578 l 1,2,-1
 246 578 l 1,3,-1
 319 746 l 1,0,-1
303 510 m 128,-1,5
 420 510 420 510 486 441 c 128,-1,6
 552 372 552 372 552 250 c 128,-1,7
 552 128 552 128 486 59 c 128,-1,8
 420 -10 420 -10 303 -10 c 128,-1,9
 186 -10 186 -10 120 59 c 128,-1,10
 54 128 54 128 54 250 c 128,-1,11
 54 372 54 372 120 441 c 128,-1,4
 186 510 186 510 303 510 c 128,-1,5
303 426 m 128,-1,13
 235 426 235 426 198.5 380.5 c 128,-1,14
 162 335 162 335 162 250 c 128,-1,15
 162 165 162 165 198.5 119.5 c 128,-1,16
 235 74 235 74 303 74 c 128,-1,17
 371 74 371 74 408 120 c 128,-1,18
 445 166 445 166 445 250 c 128,-1,19
 445 334 445 334 408 380 c 128,-1,12
 371 426 371 426 303 426 c 128,-1,13
EndSplineSet
Substitution2: "'smcp' Lowercase to Small Capitals lookup 12 subtable" oacute.sc
Substitution2: "'aalt' Access All Alternates lookup 0 subtable" oacute.sc
EndChar

StartChar: ocircumflex
Encoding: 244 244 182
Width: 606
GlyphClass: 2
Flags: W
LayerCount: 2
Fore
SplineSet
471 571 m 1,0,-1
 383 571 l 1,1,-1
 303 674 l 1,2,-1
 223 571 l 1,3,-1
 135 571 l 1,4,-1
 246 739 l 1,5,-1
 360 739 l 1,6,-1
 471 571 l 1,0,-1
303 510 m 128,-1,8
 420 510 420 510 486 441 c 128,-1,9
 552 372 552 372 552 250 c 128,-1,10
 552 128 552 128 486 59 c 128,-1,11
 420 -10 420 -10 303 -10 c 128,-1,12
 186 -10 186 -10 120 59 c 128,-1,13
 54 128 54 128 54 250 c 128,-1,14
 54 372 54 372 120 441 c 128,-1,7
 186 510 186 510 303 510 c 128,-1,8
303 426 m 128,-1,16
 235 426 235 426 198.5 380.5 c 128,-1,17
 162 335 162 335 162 250 c 128,-1,18
 162 165 162 165 198.5 119.5 c 128,-1,19
 235 74 235 74 303 74 c 128,-1,20
 371 74 371 74 408 120 c 128,-1,21
 445 166 445 166 445 250 c 128,-1,22
 445 334 445 334 408 380 c 128,-1,15
 371 426 371 426 303 426 c 128,-1,16
EndSplineSet
Substitution2: "'smcp' Lowercase to Small Capitals lookup 12 subtable" ocircumflex.sc
Substitution2: "'aalt' Access All Alternates lookup 0 subtable" ocircumflex.sc
EndChar

StartChar: otilde
Encoding: 245 245 183
Width: 606
GlyphClass: 2
Flags: W
LayerCount: 2
Fore
SplineSet
488 717 m 1,0,1
 479 576 479 576 370 576 c 0,2,3
 344 576 344 576 322.5 586 c 128,-1,4
 301 596 301 596 289 608.5 c 128,-1,5
 277 621 277 621 262.5 631 c 128,-1,6
 248 641 248 641 234 641 c 0,7,8
 198 641 198 641 189 575 c 1,9,-1
 116 575 l 1,10,11
 125 717 125 717 235 717 c 0,12,13
 267 717 267 717 292 700.5 c 128,-1,14
 317 684 317 684 335 668 c 128,-1,15
 353 652 353 652 369 652 c 0,16,17
 405 652 405 652 415 717 c 1,18,-1
 488 717 l 1,0,1
303 510 m 128,-1,20
 420 510 420 510 486 441 c 128,-1,21
 552 372 552 372 552 250 c 128,-1,22
 552 128 552 128 486 59 c 128,-1,23
 420 -10 420 -10 303 -10 c 128,-1,24
 186 -10 186 -10 120 59 c 128,-1,25
 54 128 54 128 54 250 c 128,-1,26
 54 372 54 372 120 441 c 128,-1,19
 186 510 186 510 303 510 c 128,-1,20
303 426 m 128,-1,28
 235 426 235 426 198.5 380.5 c 128,-1,29
 162 335 162 335 162 250 c 128,-1,30
 162 165 162 165 198.5 119.5 c 128,-1,31
 235 74 235 74 303 74 c 128,-1,32
 371 74 371 74 408 120 c 128,-1,33
 445 166 445 166 445 250 c 128,-1,34
 445 334 445 334 408 380 c 128,-1,27
 371 426 371 426 303 426 c 128,-1,28
EndSplineSet
Substitution2: "'smcp' Lowercase to Small Capitals lookup 12 subtable" otilde.sc
Substitution2: "'aalt' Access All Alternates lookup 0 subtable" otilde.sc
EndChar

StartChar: odieresis
Encoding: 246 246 184
Width: 606
GlyphClass: 2
Flags: W
LayerCount: 2
Fore
SplineSet
202 700 m 0,0,1
 232 700 232 700 250 683 c 128,-1,2
 268 666 268 666 268 637 c 128,-1,3
 268 608 268 608 250 591 c 128,-1,4
 232 574 232 574 202 574 c 0,5,6
 173 574 173 574 155 591.5 c 128,-1,7
 137 609 137 609 137 637 c 0,8,9
 137 666 137 666 155 683 c 128,-1,10
 173 700 173 700 202 700 c 0,0,1
404 700 m 128,-1,12
 434 700 434 700 452 683 c 128,-1,13
 470 666 470 666 470 637 c 128,-1,14
 470 608 470 608 452 591 c 128,-1,15
 434 574 434 574 404 574 c 128,-1,16
 374 574 374 574 356.5 591 c 128,-1,17
 339 608 339 608 339 637 c 128,-1,18
 339 666 339 666 356.5 683 c 128,-1,11
 374 700 374 700 404 700 c 128,-1,12
303 510 m 128,-1,20
 420 510 420 510 486 441 c 128,-1,21
 552 372 552 372 552 250 c 128,-1,22
 552 128 552 128 486 59 c 128,-1,23
 420 -10 420 -10 303 -10 c 128,-1,24
 186 -10 186 -10 120 59 c 128,-1,25
 54 128 54 128 54 250 c 128,-1,26
 54 372 54 372 120 441 c 128,-1,19
 186 510 186 510 303 510 c 128,-1,20
303 426 m 128,-1,28
 235 426 235 426 198.5 380.5 c 128,-1,29
 162 335 162 335 162 250 c 128,-1,30
 162 165 162 165 198.5 119.5 c 128,-1,31
 235 74 235 74 303 74 c 128,-1,32
 371 74 371 74 408 120 c 128,-1,33
 445 166 445 166 445 250 c 128,-1,34
 445 334 445 334 408 380 c 128,-1,27
 371 426 371 426 303 426 c 128,-1,28
EndSplineSet
Substitution2: "'smcp' Lowercase to Small Capitals lookup 12 subtable" odieresis.sc
Substitution2: "'aalt' Access All Alternates lookup 0 subtable" odieresis.sc
EndChar

StartChar: divide
Encoding: 247 247 185
Width: 604
GlyphClass: 2
Flags: W
LayerCount: 2
Fore
SplineSet
303 591 m 0,0,1
 336 591 336 591 355.5 572 c 128,-1,2
 375 553 375 553 375 520 c 0,3,4
 375 488 375 488 355.5 469 c 128,-1,5
 336 450 336 450 303 450 c 0,6,7
 269 450 269 450 249.5 469 c 128,-1,8
 230 488 230 488 230 520 c 0,9,10
 230 553 230 553 249.5 572 c 128,-1,11
 269 591 269 591 303 591 c 0,0,1
548 364 m 1,12,-1
 548 275 l 1,13,-1
 56 275 l 1,14,-1
 56 364 l 1,15,-1
 548 364 l 1,12,-1
303 188 m 0,16,17
 336 188 336 188 355.5 169 c 128,-1,18
 375 150 375 150 375 118 c 128,-1,19
 375 86 375 86 355.5 66.5 c 128,-1,20
 336 47 336 47 303 47 c 0,21,22
 269 47 269 47 249.5 66.5 c 128,-1,23
 230 86 230 86 230 118 c 128,-1,24
 230 150 230 150 249.5 169 c 128,-1,25
 269 188 269 188 303 188 c 0,16,17
EndSplineSet
EndChar

StartChar: oslash
Encoding: 248 248 186
Width: 607
GlyphClass: 2
Flags: W
LayerCount: 2
Fore
SplineSet
303 510 m 0,0,1
 389 510 389 510 448 472 c 1,2,-1
 487 522 l 1,3,-1
 554 522 l 1,4,-1
 488 438 l 1,5,6
 552 369 552 369 552 250 c 0,7,8
 552 128 552 128 486 59 c 128,-1,9
 420 -10 420 -10 303 -10 c 0,10,11
 224 -10 224 -10 168 22 c 1,12,-1
 125 -34 l 1,13,-1
 58 -34 l 1,14,-1
 125 54 l 1,15,16
 54 123 54 123 54 250 c 0,17,18
 54 372 54 372 120 441 c 128,-1,19
 186 510 186 510 303 510 c 0,0,1
191 136 m 1,20,-1
 192 136 l 1,21,-1
 224 181 l 1,22,-1
 388 398 l 1,23,24
 354 426 354 426 303 426 c 0,25,26
 235 426 235 426 198.5 380.5 c 128,-1,27
 162 335 162 335 162 250 c 0,28,29
 162 180 162 180 191 136 c 1,20,-1
303 74 m 0,30,31
 371 74 371 74 408 120 c 128,-1,32
 445 166 445 166 445 250 c 0,33,34
 445 311 445 311 420 353 c 1,35,-1
 419 353 l 1,36,-1
 390 313 l 1,37,-1
 227 96 l 1,38,39
 258 74 258 74 303 74 c 0,30,31
EndSplineSet
Substitution2: "'smcp' Lowercase to Small Capitals lookup 12 subtable" oslash.sc
Substitution2: "'aalt' Access All Alternates lookup 0 subtable" oslash.sc
EndChar

StartChar: ugrave
Encoding: 249 249 187
Width: 619
GlyphClass: 2
Flags: W
LayerCount: 2
Fore
SplineSet
356 578 m 1,0,-1
 274 578 l 1,1,-1
 175 746 l 1,2,-1
 283 746 l 1,3,-1
 356 578 l 1,0,-1
429 500 m 1,4,-1
 536 500 l 1,5,-1
 536 0 l 1,6,-1
 441 0 l 1,7,-1
 437 81 l 1,8,9
 386 -10 386 -10 259 -10 c 0,10,11
 178 -10 178 -10 128.5 34.5 c 128,-1,12
 79 79 79 79 79 171 c 2,13,-1
 79 500 l 1,14,-1
 186 500 l 1,15,-1
 186 199 l 2,16,17
 186 133 186 133 212 105.5 c 128,-1,18
 238 78 238 78 289 78 c 0,19,20
 350 78 350 78 389.5 116.5 c 128,-1,21
 429 155 429 155 429 230 c 2,22,-1
 429 500 l 1,4,-1
EndSplineSet
Substitution2: "'smcp' Lowercase to Small Capitals lookup 12 subtable" ugrave.sc
Substitution2: "'aalt' Access All Alternates lookup 0 subtable" ugrave.sc
EndChar

StartChar: uacute
Encoding: 250 250 188
Width: 619
GlyphClass: 2
Flags: W
LayerCount: 2
Fore
SplineSet
431 746 m 1,0,-1
 332 578 l 1,1,-1
 250 578 l 1,2,-1
 323 746 l 1,3,-1
 431 746 l 1,0,-1
429 500 m 1,4,-1
 536 500 l 1,5,-1
 536 0 l 1,6,-1
 441 0 l 1,7,-1
 437 81 l 1,8,9
 386 -10 386 -10 259 -10 c 0,10,11
 178 -10 178 -10 128.5 34.5 c 128,-1,12
 79 79 79 79 79 171 c 2,13,-1
 79 500 l 1,14,-1
 186 500 l 1,15,-1
 186 199 l 2,16,17
 186 133 186 133 212 105.5 c 128,-1,18
 238 78 238 78 289 78 c 0,19,20
 350 78 350 78 389.5 116.5 c 128,-1,21
 429 155 429 155 429 230 c 2,22,-1
 429 500 l 1,4,-1
EndSplineSet
Substitution2: "'smcp' Lowercase to Small Capitals lookup 12 subtable" uacute.sc
Substitution2: "'aalt' Access All Alternates lookup 0 subtable" uacute.sc
EndChar

StartChar: ucircumflex
Encoding: 251 251 189
Width: 619
GlyphClass: 2
Flags: W
LayerCount: 2
Fore
SplineSet
307 674 m 1,0,-1
 227 571 l 1,1,-1
 139 571 l 1,2,-1
 250 739 l 1,3,-1
 364 739 l 1,4,-1
 475 571 l 1,5,-1
 387 571 l 1,6,-1
 307 674 l 1,0,-1
429 500 m 1,7,-1
 536 500 l 1,8,-1
 536 0 l 1,9,-1
 441 0 l 1,10,-1
 437 81 l 1,11,12
 386 -10 386 -10 259 -10 c 0,13,14
 178 -10 178 -10 128.5 34.5 c 128,-1,15
 79 79 79 79 79 171 c 2,16,-1
 79 500 l 1,17,-1
 186 500 l 1,18,-1
 186 199 l 2,19,20
 186 133 186 133 212 105.5 c 128,-1,21
 238 78 238 78 289 78 c 0,22,23
 350 78 350 78 389.5 116.5 c 128,-1,24
 429 155 429 155 429 230 c 2,25,-1
 429 500 l 1,7,-1
EndSplineSet
Substitution2: "'smcp' Lowercase to Small Capitals lookup 12 subtable" ucircumflex.sc
Substitution2: "'aalt' Access All Alternates lookup 0 subtable" ucircumflex.sc
EndChar

StartChar: udieresis
Encoding: 252 252 190
Width: 619
GlyphClass: 2
Flags: W
LayerCount: 2
Fore
SplineSet
206 574 m 0,0,1
 177 574 177 574 159 591.5 c 128,-1,2
 141 609 141 609 141 637 c 0,3,4
 141 666 141 666 159 683 c 128,-1,5
 177 700 177 700 206 700 c 0,6,7
 236 700 236 700 254 683 c 128,-1,8
 272 666 272 666 272 637 c 128,-1,9
 272 608 272 608 254 591 c 128,-1,10
 236 574 236 574 206 574 c 0,0,1
408 574 m 128,-1,12
 378 574 378 574 360.5 591 c 128,-1,13
 343 608 343 608 343 637 c 128,-1,14
 343 666 343 666 360.5 683 c 128,-1,15
 378 700 378 700 408 700 c 128,-1,16
 438 700 438 700 456 683 c 128,-1,17
 474 666 474 666 474 637 c 128,-1,18
 474 608 474 608 456 591 c 128,-1,11
 438 574 438 574 408 574 c 128,-1,12
429 500 m 1,19,-1
 536 500 l 1,20,-1
 536 0 l 1,21,-1
 441 0 l 1,22,-1
 437 81 l 1,23,24
 386 -10 386 -10 259 -10 c 0,25,26
 178 -10 178 -10 128.5 34.5 c 128,-1,27
 79 79 79 79 79 171 c 2,28,-1
 79 500 l 1,29,-1
 186 500 l 1,30,-1
 186 199 l 2,31,32
 186 133 186 133 212 105.5 c 128,-1,33
 238 78 238 78 289 78 c 0,34,35
 350 78 350 78 389.5 116.5 c 128,-1,36
 429 155 429 155 429 230 c 2,37,-1
 429 500 l 1,19,-1
EndSplineSet
Substitution2: "'smcp' Lowercase to Small Capitals lookup 12 subtable" udieresis.sc
Substitution2: "'aalt' Access All Alternates lookup 0 subtable" udieresis.sc
EndChar

StartChar: yacute
Encoding: 253 253 191
Width: 546
GlyphClass: 2
Flags: W
LayerCount: 2
Fore
SplineSet
298 746 m 1,0,-1
 406 746 l 1,1,-1
 307 578 l 1,2,-1
 225 578 l 1,3,-1
 298 746 l 1,0,-1
533 500 m 1,4,-1
 314 -59 l 2,5,6
 281 -145 281 -145 239 -180 c 128,-1,7
 197 -215 197 -215 129 -215 c 0,8,9
 54 -215 54 -215 11 -175 c 1,10,-1
 42 -93 l 1,11,12
 72 -129 72 -129 124 -129 c 0,13,14
 154 -129 154 -129 174.5 -113.5 c 128,-1,15
 195 -98 195 -98 211 -57 c 2,16,-1
 233 -3 l 1,17,-1
 181 121 l 1,18,-1
 25 500 l 1,19,-1
 145 500 l 1,20,-1
 255 186 l 1,21,-1
 284 92 l 1,22,-1
 318 195 l 1,23,-1
 422 500 l 1,24,-1
 533 500 l 1,4,-1
EndSplineSet
Substitution2: "Single Substitution lookup 57 subtable" yacute.swsh
Substitution2: "'swsh' Swash lookup 38 subtable" yacute.swsh
Substitution2: "'smcp' Lowercase to Small Capitals lookup 12 subtable" yacute.sc
AlternateSubs2: "'aalt' Access All Alternates lookup 1 subtable" yacute.sc yacute.swsh
EndChar

StartChar: thorn
Encoding: 254 254 192
Width: 629
GlyphClass: 2
Flags: W
LayerCount: 2
Fore
SplineSet
353 510 m 0,0,1
 453 510 453 510 513 442 c 128,-1,2
 573 374 573 374 573 251 c 0,3,4
 573 125 573 125 512 57.5 c 128,-1,5
 451 -10 451 -10 352 -10 c 0,6,7
 243 -10 243 -10 190 71 c 1,8,-1
 190 -210 l 1,9,-1
 83 -210 l 1,10,-1
 83 725 l 1,11,-1
 190 725 l 1,12,-1
 190 426 l 1,13,14
 242 510 242 510 353 510 c 0,0,1
328 77 m 0,15,16
 393 77 393 77 429.5 122.5 c 128,-1,17
 466 168 466 168 466 250 c 128,-1,18
 466 332 466 332 429.5 378 c 128,-1,19
 393 424 393 424 328 424 c 0,20,21
 265 424 265 424 227.5 379 c 128,-1,22
 190 334 190 334 190 256 c 2,23,-1
 190 244 l 2,24,25
 190 166 190 166 227.5 121.5 c 128,-1,26
 265 77 265 77 328 77 c 0,15,16
EndSplineSet
Substitution2: "'smcp' Lowercase to Small Capitals lookup 12 subtable" thorn.sc
Substitution2: "'aalt' Access All Alternates lookup 0 subtable" thorn.sc
EndChar

StartChar: ydieresis
Encoding: 255 255 193
Width: 546
GlyphClass: 2
Flags: W
LayerCount: 2
Fore
SplineSet
181 700 m 0,0,1
 211 700 211 700 229 683 c 128,-1,2
 247 666 247 666 247 637 c 128,-1,3
 247 608 247 608 229 591 c 128,-1,4
 211 574 211 574 181 574 c 0,5,6
 152 574 152 574 134 591.5 c 128,-1,7
 116 609 116 609 116 637 c 0,8,9
 116 666 116 666 134 683 c 128,-1,10
 152 700 152 700 181 700 c 0,0,1
383 700 m 128,-1,12
 413 700 413 700 431 683 c 128,-1,13
 449 666 449 666 449 637 c 128,-1,14
 449 608 449 608 431 591 c 128,-1,15
 413 574 413 574 383 574 c 128,-1,16
 353 574 353 574 335.5 591 c 128,-1,17
 318 608 318 608 318 637 c 128,-1,18
 318 666 318 666 335.5 683 c 128,-1,11
 353 700 353 700 383 700 c 128,-1,12
533 500 m 1,19,-1
 314 -59 l 2,20,21
 281 -145 281 -145 239 -180 c 128,-1,22
 197 -215 197 -215 129 -215 c 0,23,24
 54 -215 54 -215 11 -175 c 1,25,-1
 42 -93 l 1,26,27
 72 -129 72 -129 124 -129 c 0,28,29
 154 -129 154 -129 174.5 -113.5 c 128,-1,30
 195 -98 195 -98 211 -57 c 2,31,-1
 233 -3 l 1,32,-1
 181 121 l 1,33,-1
 25 500 l 1,34,-1
 145 500 l 1,35,-1
 255 186 l 1,36,-1
 284 92 l 1,37,-1
 318 195 l 1,38,-1
 422 500 l 1,39,-1
 533 500 l 1,19,-1
EndSplineSet
Substitution2: "Single Substitution lookup 57 subtable" ydieresis.swsh
Substitution2: "'swsh' Swash lookup 38 subtable" ydieresis.swsh
Substitution2: "'smcp' Lowercase to Small Capitals lookup 12 subtable" ydieresis.sc
AlternateSubs2: "'aalt' Access All Alternates lookup 1 subtable" ydieresis.sc ydieresis.swsh
EndChar

StartChar: Amacron
Encoding: 256 256 194
Width: 665
GlyphClass: 2
Flags: W
LayerCount: 2
Fore
SplineSet
511 826 m 1,0,-1
 511 748 l 1,1,-1
 155 748 l 1,2,-1
 155 826 l 1,3,-1
 511 826 l 1,0,-1
533 0 m 1,4,-1
 471 173 l 1,5,-1
 193 173 l 1,6,-1
 130 0 l 1,7,-1
 20 0 l 1,8,-1
 269 660 l 1,9,-1
 397 660 l 1,10,-1
 646 0 l 1,11,-1
 533 0 l 1,4,-1
224 260 m 1,12,-1
 439 260 l 1,13,-1
 363 472 l 1,14,-1
 333 567 l 1,15,-1
 330 567 l 1,16,-1
 302 474 l 1,17,-1
 224 260 l 1,12,-1
EndSplineSet
Substitution2: "Single Substitution lookup 56 subtable" Amacron.swsh
Substitution2: "'swsh' Swash lookup 32 subtable" Amacron.swsh
Substitution2: "'c2sc' Capitals to Small Capitals lookup 11 subtable" amacron.sc
AlternateSubs2: "'aalt' Access All Alternates lookup 1 subtable" amacron.sc Amacron.swsh
EndChar

StartChar: amacron
Encoding: 257 257 195
Width: 570
GlyphClass: 2
Flags: W
LayerCount: 2
Fore
SplineSet
454 666 m 1,0,-1
 454 588 l 1,1,-1
 98 588 l 1,2,-1
 98 666 l 1,3,-1
 454 666 l 1,0,-1
515 70 m 0,4,5
 537 70 537 70 552 74 c 1,6,-1
 545 2 l 1,7,8
 518 -10 518 -10 483 -10 c 0,9,10
 396 -10 396 -10 381 64 c 1,11,12
 358 29 358 29 313 9.5 c 128,-1,13
 268 -10 268 -10 212 -10 c 0,14,15
 139 -10 139 -10 94 24 c 128,-1,16
 49 58 49 58 49 121 c 0,17,18
 49 180 49 180 98 220.5 c 128,-1,19
 147 261 147 261 244 278 c 2,20,-1
 371 300 l 1,21,-1
 371 327 l 2,22,23
 371 373 371 373 344 399.5 c 128,-1,24
 317 426 317 426 269 426 c 0,25,26
 170 426 170 426 140 336 c 1,27,-1
 57 380 l 1,28,29
 75 440 75 440 130.5 475 c 128,-1,30
 186 510 186 510 267 510 c 0,31,32
 364 510 364 510 421 465 c 128,-1,33
 478 420 478 420 478 333 c 2,34,-1
 478 107 l 2,35,36
 478 70 478 70 515 70 c 0,4,5
235 71 m 0,37,38
 289 71 289 71 330 97 c 128,-1,39
 371 123 371 123 371 166 c 2,40,-1
 371 226 l 1,41,-1
 262 204 l 2,42,43
 160 184 160 184 160 128 c 0,44,45
 160 71 160 71 235 71 c 0,37,38
EndSplineSet
Substitution2: "'smcp' Lowercase to Small Capitals lookup 12 subtable" amacron.sc
Substitution2: "'aalt' Access All Alternates lookup 0 subtable" amacron.sc
EndChar

StartChar: Abreve
Encoding: 258 258 196
Width: 665
GlyphClass: 2
Flags: W
LayerCount: 2
Fore
SplineSet
333 730 m 128,-1,1
 263 730 263 730 221 772 c 128,-1,2
 179 814 179 814 179 883 c 1,3,-1
 258 883 l 1,4,5
 258 849 258 849 279 825 c 128,-1,6
 300 801 300 801 333 801 c 128,-1,7
 366 801 366 801 387 825 c 128,-1,8
 408 849 408 849 408 883 c 1,9,-1
 487 883 l 1,10,11
 487 814 487 814 445 772 c 128,-1,0
 403 730 403 730 333 730 c 128,-1,1
533 0 m 1,12,-1
 471 173 l 1,13,-1
 193 173 l 1,14,-1
 130 0 l 1,15,-1
 20 0 l 1,16,-1
 269 660 l 1,17,-1
 397 660 l 1,18,-1
 646 0 l 1,19,-1
 533 0 l 1,12,-1
224 260 m 1,20,-1
 439 260 l 1,21,-1
 363 472 l 1,22,-1
 333 567 l 1,23,-1
 330 567 l 1,24,-1
 302 474 l 1,25,-1
 224 260 l 1,20,-1
EndSplineSet
Substitution2: "Single Substitution lookup 56 subtable" Abreve.swsh
Substitution2: "'swsh' Swash lookup 32 subtable" Abreve.swsh
Substitution2: "'c2sc' Capitals to Small Capitals lookup 11 subtable" abreve.sc
AlternateSubs2: "'aalt' Access All Alternates lookup 1 subtable" abreve.sc Abreve.swsh
EndChar

StartChar: abreve
Encoding: 259 259 197
Width: 570
GlyphClass: 2
Flags: W
LayerCount: 2
Fore
SplineSet
276 570 m 128,-1,1
 206 570 206 570 164 612 c 128,-1,2
 122 654 122 654 122 723 c 1,3,-1
 201 723 l 1,4,5
 201 689 201 689 222 665 c 128,-1,6
 243 641 243 641 276 641 c 128,-1,7
 309 641 309 641 330 665 c 128,-1,8
 351 689 351 689 351 723 c 1,9,-1
 430 723 l 1,10,11
 430 654 430 654 388 612 c 128,-1,0
 346 570 346 570 276 570 c 128,-1,1
515 70 m 0,12,13
 537 70 537 70 552 74 c 1,14,-1
 545 2 l 1,15,16
 518 -10 518 -10 483 -10 c 0,17,18
 396 -10 396 -10 381 64 c 1,19,20
 358 29 358 29 313 9.5 c 128,-1,21
 268 -10 268 -10 212 -10 c 0,22,23
 139 -10 139 -10 94 24 c 128,-1,24
 49 58 49 58 49 121 c 0,25,26
 49 180 49 180 98 220.5 c 128,-1,27
 147 261 147 261 244 278 c 2,28,-1
 371 300 l 1,29,-1
 371 327 l 2,30,31
 371 373 371 373 344 399.5 c 128,-1,32
 317 426 317 426 269 426 c 0,33,34
 170 426 170 426 140 336 c 1,35,-1
 57 380 l 1,36,37
 75 440 75 440 130.5 475 c 128,-1,38
 186 510 186 510 267 510 c 0,39,40
 364 510 364 510 421 465 c 128,-1,41
 478 420 478 420 478 333 c 2,42,-1
 478 107 l 2,43,44
 478 70 478 70 515 70 c 0,12,13
235 71 m 0,45,46
 289 71 289 71 330 97 c 128,-1,47
 371 123 371 123 371 166 c 2,48,-1
 371 226 l 1,49,-1
 262 204 l 2,50,51
 160 184 160 184 160 128 c 0,52,53
 160 71 160 71 235 71 c 0,45,46
EndSplineSet
Substitution2: "'smcp' Lowercase to Small Capitals lookup 12 subtable" abreve.sc
Substitution2: "'aalt' Access All Alternates lookup 0 subtable" abreve.sc
EndChar

StartChar: Aogonek
Encoding: 260 260 198
Width: 665
GlyphClass: 2
Flags: W
LayerCount: 2
Fore
SplineSet
638 -134 m 1,0,-1
 656 -195 l 1,1,2
 625 -215 625 -215 567 -215 c 0,3,4
 510 -215 510 -215 476 -187 c 128,-1,5
 442 -159 442 -159 442 -108 c 0,6,7
 442 -30 442 -30 530 10 c 1,8,-1
 471 173 l 1,9,-1
 193 173 l 1,10,-1
 130 0 l 1,11,-1
 20 0 l 1,12,-1
 269 660 l 1,13,-1
 397 660 l 1,14,-1
 646 0 l 1,15,-1
 645 0 l 1,16,17
 576 -20 576 -20 549.5 -43.5 c 128,-1,18
 523 -67 523 -67 523 -97 c 0,19,20
 523 -120 523 -120 539.5 -133 c 128,-1,21
 556 -146 556 -146 585 -146 c 0,22,23
 620 -146 620 -146 638 -134 c 1,0,-1
224 260 m 1,24,-1
 439 260 l 1,25,-1
 363 472 l 1,26,-1
 333 567 l 1,27,-1
 330 567 l 1,28,-1
 302 474 l 1,29,-1
 224 260 l 1,24,-1
EndSplineSet
Substitution2: "Single Substitution lookup 56 subtable" Aogonek.swsh
Substitution2: "'swsh' Swash lookup 32 subtable" Aogonek.swsh
Substitution2: "'c2sc' Capitals to Small Capitals lookup 11 subtable" aogonek.sc
AlternateSubs2: "'aalt' Access All Alternates lookup 1 subtable" aogonek.sc Aogonek.swsh
EndChar

StartChar: aogonek
Encoding: 261 261 199
Width: 570
GlyphClass: 2
Flags: W
LayerCount: 2
Fore
SplineSet
481 -147 m 0,0,1
 516 -147 516 -147 534 -135 c 1,2,-1
 552 -196 l 1,3,4
 520 -215 520 -215 467 -215 c 0,5,6
 411 -215 411 -215 377.5 -188 c 128,-1,7
 344 -161 344 -161 344 -114 c 0,8,9
 344 -36 344 -36 437 7 c 1,10,11
 397 25 397 25 385 72 c 1,12,13
 364 33 364 33 317.5 11.5 c 128,-1,14
 271 -10 271 -10 212 -10 c 0,15,16
 139 -10 139 -10 94 24 c 128,-1,17
 49 58 49 58 49 121 c 0,18,19
 49 180 49 180 98 220.5 c 128,-1,20
 147 261 147 261 244 278 c 2,21,-1
 371 300 l 1,22,-1
 371 327 l 2,23,24
 371 373 371 373 344 399.5 c 128,-1,25
 317 426 317 426 269 426 c 0,26,27
 170 426 170 426 140 336 c 1,28,-1
 57 380 l 1,29,30
 75 440 75 440 130.5 475 c 128,-1,31
 186 510 186 510 267 510 c 0,32,33
 364 510 364 510 421 465 c 128,-1,34
 478 420 478 420 478 333 c 2,35,-1
 478 107 l 2,36,37
 478 70 478 70 515 70 c 0,38,39
 537 70 537 70 552 74 c 1,40,-1
 545 2 l 1,41,42
 479 -17 479 -17 452 -40.5 c 128,-1,43
 425 -64 425 -64 425 -96 c 0,44,45
 425 -147 425 -147 481 -147 c 0,0,1
235 71 m 0,46,47
 289 71 289 71 330 97 c 128,-1,48
 371 123 371 123 371 166 c 2,49,-1
 371 226 l 1,50,-1
 262 204 l 2,51,52
 160 183 160 183 160 128 c 0,53,54
 160 71 160 71 235 71 c 0,46,47
EndSplineSet
Substitution2: "'smcp' Lowercase to Small Capitals lookup 12 subtable" aogonek.sc
Substitution2: "'aalt' Access All Alternates lookup 0 subtable" aogonek.sc
EndChar

StartChar: Cacute
Encoding: 262 262 200
Width: 684
GlyphClass: 2
Flags: W
LayerCount: 2
Fore
SplineSet
375 888 m 1,0,-1
 489 888 l 1,1,-1
 401 737 l 1,2,-1
 319 737 l 1,3,-1
 375 888 l 1,0,-1
645 175 m 1,4,5
 615 86 615 86 542.5 38 c 128,-1,6
 470 -10 470 -10 372 -10 c 0,7,8
 229 -10 229 -10 145 81.5 c 128,-1,9
 61 173 61 173 61 330 c 128,-1,10
 61 487 61 487 145 578.5 c 128,-1,11
 229 670 229 670 371 670 c 0,12,13
 574 670 574 670 635 508 c 1,14,-1
 534 463 l 1,15,16
 496 577 496 577 377 577 c 0,17,18
 284 577 284 577 228.5 511.5 c 128,-1,19
 173 446 173 446 173 330 c 0,20,21
 173 213 173 213 226 148 c 128,-1,22
 279 83 279 83 373 83 c 0,23,24
 506 83 506 83 543 209 c 1,25,-1
 645 175 l 1,4,5
EndSplineSet
Substitution2: "'c2sc' Capitals to Small Capitals lookup 11 subtable" cacute.sc
Substitution2: "'aalt' Access All Alternates lookup 0 subtable" cacute.sc
EndChar

StartChar: cacute
Encoding: 263 263 201
Width: 566
GlyphClass: 2
Flags: W
LayerCount: 2
Fore
SplineSet
312 746 m 1,0,-1
 420 746 l 1,1,-1
 321 578 l 1,2,-1
 239 578 l 1,3,-1
 312 746 l 1,0,-1
303 510 m 0,4,5
 467 510 467 510 520 370 c 1,6,-1
 420 330 l 1,7,8
 394 425 394 425 303 425 c 0,9,10
 236 425 236 425 199 379 c 128,-1,11
 162 333 162 333 162 249 c 128,-1,12
 162 165 162 165 199 120 c 128,-1,13
 236 75 236 75 303 75 c 0,14,15
 406 75 406 75 426 172 c 1,16,-1
 524 139 l 1,17,18
 502 69 502 69 446 29.5 c 128,-1,19
 390 -10 390 -10 305 -10 c 0,20,21
 187 -10 187 -10 120.5 59 c 128,-1,22
 54 128 54 128 54 250 c 128,-1,23
 54 372 54 372 120 441 c 128,-1,24
 186 510 186 510 303 510 c 0,4,5
EndSplineSet
Substitution2: "'smcp' Lowercase to Small Capitals lookup 12 subtable" cacute.sc
Substitution2: "'aalt' Access All Alternates lookup 0 subtable" cacute.sc
EndChar

StartChar: Ccaron
Encoding: 268 268 202
Width: 684
GlyphClass: 2
Flags: W
LayerCount: 2
Fore
SplineSet
537 900 m 1,0,-1
 424 733 l 1,1,-1
 312 733 l 1,2,-1
 199 900 l 1,3,-1
 288 900 l 1,4,-1
 368 793 l 1,5,-1
 448 900 l 1,6,-1
 537 900 l 1,0,-1
645 175 m 1,7,8
 615 86 615 86 542.5 38 c 128,-1,9
 470 -10 470 -10 372 -10 c 0,10,11
 229 -10 229 -10 145 81.5 c 128,-1,12
 61 173 61 173 61 330 c 128,-1,13
 61 487 61 487 145 578.5 c 128,-1,14
 229 670 229 670 371 670 c 0,15,16
 574 670 574 670 635 508 c 1,17,-1
 534 463 l 1,18,19
 496 577 496 577 377 577 c 0,20,21
 284 577 284 577 228.5 511.5 c 128,-1,22
 173 446 173 446 173 330 c 0,23,24
 173 213 173 213 226 148 c 128,-1,25
 279 83 279 83 373 83 c 0,26,27
 506 83 506 83 543 209 c 1,28,-1
 645 175 l 1,7,8
EndSplineSet
Substitution2: "'c2sc' Capitals to Small Capitals lookup 11 subtable" ccaron.sc
Substitution2: "'aalt' Access All Alternates lookup 0 subtable" ccaron.sc
EndChar

StartChar: ccaron
Encoding: 269 269 203
Width: 566
GlyphClass: 2
Flags: W
LayerCount: 2
Fore
SplineSet
463 746 m 1,0,-1
 352 578 l 1,1,-1
 238 578 l 1,2,-1
 127 746 l 1,3,-1
 215 746 l 1,4,-1
 295 643 l 1,5,-1
 375 746 l 1,6,-1
 463 746 l 1,0,-1
303 510 m 0,7,8
 467 510 467 510 520 370 c 1,9,-1
 420 330 l 1,10,11
 394 425 394 425 303 425 c 0,12,13
 236 425 236 425 199 379 c 128,-1,14
 162 333 162 333 162 249 c 128,-1,15
 162 165 162 165 199 120 c 128,-1,16
 236 75 236 75 303 75 c 0,17,18
 406 75 406 75 426 172 c 1,19,-1
 524 139 l 1,20,21
 502 69 502 69 446 29.5 c 128,-1,22
 390 -10 390 -10 305 -10 c 0,23,24
 187 -10 187 -10 120.5 59 c 128,-1,25
 54 128 54 128 54 250 c 128,-1,26
 54 372 54 372 120 441 c 128,-1,27
 186 510 186 510 303 510 c 0,7,8
EndSplineSet
Substitution2: "'smcp' Lowercase to Small Capitals lookup 12 subtable" ccaron.sc
Substitution2: "'aalt' Access All Alternates lookup 0 subtable" ccaron.sc
EndChar

StartChar: Dcaron
Encoding: 270 270 204
Width: 720
GlyphClass: 2
Flags: W
LayerCount: 2
Fore
SplineSet
381 733 m 1,0,-1
 269 733 l 1,1,-1
 156 900 l 1,2,-1
 245 900 l 1,3,-1
 325 793 l 1,4,-1
 405 900 l 1,5,-1
 494 900 l 1,6,-1
 381 733 l 1,0,-1
331 660 m 2,7,8
 487 660 487 660 573 574 c 128,-1,9
 659 488 659 488 659 330 c 128,-1,10
 659 172 659 172 573 86 c 128,-1,11
 487 0 487 0 331 0 c 2,12,-1
 98 0 l 1,13,-1
 98 660 l 1,14,-1
 331 660 l 2,7,8
331 91 m 2,15,16
 435 91 435 91 491 153.5 c 128,-1,17
 547 216 547 216 547 330 c 128,-1,18
 547 444 547 444 491 506.5 c 128,-1,19
 435 569 435 569 331 569 c 2,20,-1
 205 569 l 1,21,-1
 205 91 l 1,22,-1
 331 91 l 2,15,16
EndSplineSet
Substitution2: "'c2sc' Capitals to Small Capitals lookup 11 subtable" dcaron.sc
Substitution2: "'aalt' Access All Alternates lookup 0 subtable" dcaron.sc
EndChar

StartChar: dcaron
Encoding: 271 271 205
Width: 663
GlyphClass: 2
Flags: W
LayerCount: 2
Fore
SplineSet
618 725 m 1,0,-1
 710 725 l 1,1,-1
 666 515 l 1,2,-1
 598 515 l 1,3,-1
 618 725 l 1,0,-1
439 419 m 1,4,-1
 439 725 l 1,5,-1
 546 725 l 1,6,-1
 546 0 l 1,7,-1
 452 0 l 1,8,-1
 446 89 l 1,9,10
 424 44 424 44 379.5 17 c 128,-1,11
 335 -10 335 -10 278 -10 c 0,12,13
 175 -10 175 -10 115.5 58.5 c 128,-1,14
 56 127 56 127 56 249 c 128,-1,15
 56 371 56 371 115.5 440.5 c 128,-1,16
 175 510 175 510 278 510 c 0,17,18
 333 510 333 510 375 485.5 c 128,-1,19
 417 461 417 461 439 419 c 1,4,-1
302 76 m 0,20,21
 365 76 365 76 402 121 c 128,-1,22
 439 166 439 166 439 244 c 2,23,-1
 439 256 l 2,24,25
 439 334 439 334 402 378.5 c 128,-1,26
 365 423 365 423 302 423 c 0,27,28
 237 423 237 423 200.5 377.5 c 128,-1,29
 164 332 164 332 164 250 c 128,-1,30
 164 168 164 168 200.5 122 c 128,-1,31
 237 76 237 76 302 76 c 0,20,21
EndSplineSet
Substitution2: "'smcp' Lowercase to Small Capitals lookup 12 subtable" dcaron.sc
Substitution2: "'aalt' Access All Alternates lookup 0 subtable" dcaron.sc
EndChar

StartChar: Dcroat
Encoding: 272 272 206
Width: 738
GlyphClass: 2
Flags: W
LayerCount: 2
Fore
SplineSet
349 660 m 2,0,1
 505 660 505 660 591 574 c 128,-1,2
 677 488 677 488 677 330 c 128,-1,3
 677 172 677 172 591 86 c 128,-1,4
 505 0 505 0 349 0 c 2,5,-1
 116 0 l 1,6,-1
 116 294 l 1,7,-1
 22 294 l 1,8,-1
 22 370 l 1,9,-1
 116 370 l 1,10,-1
 116 660 l 1,11,-1
 349 660 l 2,0,1
349 91 m 2,12,13
 454 91 454 91 510 153.5 c 128,-1,14
 566 216 566 216 566 330 c 128,-1,15
 566 444 566 444 510 506.5 c 128,-1,16
 454 569 454 569 349 569 c 2,17,-1
 223 569 l 1,18,-1
 223 370 l 1,19,-1
 400 370 l 1,20,-1
 400 294 l 1,21,-1
 223 294 l 1,22,-1
 223 91 l 1,23,-1
 349 91 l 2,12,13
EndSplineSet
Substitution2: "'c2sc' Capitals to Small Capitals lookup 11 subtable" dcroat.sc
Substitution2: "'aalt' Access All Alternates lookup 0 subtable" dcroat.sc
EndChar

StartChar: dcroat
Encoding: 273 273 207
Width: 629
GlyphClass: 2
Flags: W
LayerCount: 2
Fore
SplineSet
623 629 m 1,0,-1
 623 558 l 1,1,-1
 546 558 l 1,2,-1
 546 0 l 1,3,-1
 452 0 l 1,4,-1
 446 89 l 1,5,6
 424 44 424 44 379.5 17 c 128,-1,7
 335 -10 335 -10 278 -10 c 0,8,9
 175 -10 175 -10 115.5 58.5 c 128,-1,10
 56 127 56 127 56 249 c 128,-1,11
 56 371 56 371 115.5 440.5 c 128,-1,12
 175 510 175 510 278 510 c 0,13,14
 333 510 333 510 375 485.5 c 128,-1,15
 417 461 417 461 439 419 c 1,16,-1
 439 558 l 1,17,-1
 290 558 l 1,18,-1
 290 629 l 1,19,-1
 439 629 l 1,20,-1
 439 725 l 1,21,-1
 546 725 l 1,22,-1
 546 629 l 1,23,-1
 623 629 l 1,0,-1
302 76 m 0,24,25
 365 76 365 76 402 121 c 128,-1,26
 439 166 439 166 439 244 c 2,27,-1
 439 256 l 2,28,29
 439 334 439 334 402 378.5 c 128,-1,30
 365 423 365 423 302 423 c 0,31,32
 237 423 237 423 200.5 377.5 c 128,-1,33
 164 332 164 332 164 250 c 128,-1,34
 164 168 164 168 200.5 122 c 128,-1,35
 237 76 237 76 302 76 c 0,24,25
EndSplineSet
Substitution2: "'smcp' Lowercase to Small Capitals lookup 12 subtable" dcroat.sc
Substitution2: "'aalt' Access All Alternates lookup 0 subtable" dcroat.sc
EndChar

StartChar: Emacron
Encoding: 274 274 208
Width: 636
GlyphClass: 2
Flags: W
AnchorPoint: "Anchor-0" 337 0 basechar 0
LayerCount: 2
Fore
SplineSet
512 826 m 1,0,-1
 512 748 l 1,1,-1
 156 748 l 1,2,-1
 156 826 l 1,3,-1
 512 826 l 1,0,-1
205 92 m 1,4,-1
 590 92 l 1,5,-1
 590 0 l 1,6,-1
 98 0 l 1,7,-1
 98 660 l 1,8,-1
 576 660 l 1,9,-1
 576 568 l 1,10,-1
 205 568 l 1,11,-1
 205 378 l 1,12,-1
 495 378 l 1,13,-1
 495 288 l 1,14,-1
 205 288 l 1,15,-1
 205 92 l 1,4,-1
EndSplineSet
Substitution2: "Single Substitution lookup 57 subtable" Emacron.swsh.001
Substitution2: "Single Substitution lookup 56 subtable" Emacron.swsh
AlternateSubs2: "'swsh' Swash lookup 33 subtable" Emacron.swsh Emacron.swsh.001
Substitution2: "'c2sc' Capitals to Small Capitals lookup 11 subtable" emacron.sc
AlternateSubs2: "'aalt' Access All Alternates lookup 1 subtable" emacron.sc Emacron.swsh Emacron.swsh.001
EndChar

StartChar: emacron
Encoding: 275 275 209
Width: 581
GlyphClass: 2
Flags: W
AnchorPoint: "Anchor-0" 302 0 basechar 0
LayerCount: 2
Fore
SplineSet
473 666 m 1,0,-1
 473 588 l 1,1,-1
 117 588 l 1,2,-1
 117 666 l 1,3,-1
 473 666 l 1,0,-1
530 265 m 0,4,5
 530 236 530 236 526 210 c 1,6,-1
 160 210 l 1,7,8
 169 144 169 144 207 109.5 c 128,-1,9
 245 75 245 75 305 75 c 0,10,11
 406 75 406 75 431 143 c 1,12,-1
 520 106 l 1,13,14
 464 -10 464 -10 305 -10 c 0,15,16
 187 -10 187 -10 120.5 59 c 128,-1,17
 54 128 54 128 54 250 c 0,18,19
 54 373 54 373 118 441.5 c 128,-1,20
 182 510 182 510 298 510 c 0,21,22
 408 510 408 510 469 443 c 128,-1,23
 530 376 530 376 530 265 c 0,4,5
298 425 m 0,24,25
 179 425 179 425 160 292 c 1,26,-1
 430 292 l 1,27,28
 422 355 422 355 387.5 390 c 128,-1,29
 353 425 353 425 298 425 c 0,24,25
EndSplineSet
Substitution2: "'smcp' Lowercase to Small Capitals lookup 12 subtable" emacron.sc
Substitution2: "'aalt' Access All Alternates lookup 0 subtable" emacron.sc
EndChar

StartChar: Edotaccent
Encoding: 278 278 210
Width: 636
GlyphClass: 2
Flags: W
AnchorPoint: "Anchor-0" 337 0 basechar 0
LayerCount: 2
Fore
SplineSet
334 746 m 128,-1,1
 302 746 302 746 283.5 763.5 c 128,-1,2
 265 781 265 781 265 812 c 128,-1,3
 265 843 265 843 283.5 860.5 c 128,-1,4
 302 878 302 878 334 878 c 128,-1,5
 366 878 366 878 385 860.5 c 128,-1,6
 404 843 404 843 404 812 c 128,-1,7
 404 781 404 781 385 763.5 c 128,-1,0
 366 746 366 746 334 746 c 128,-1,1
205 92 m 1,8,-1
 590 92 l 1,9,-1
 590 0 l 1,10,-1
 98 0 l 1,11,-1
 98 660 l 1,12,-1
 576 660 l 1,13,-1
 576 568 l 1,14,-1
 205 568 l 1,15,-1
 205 378 l 1,16,-1
 495 378 l 1,17,-1
 495 288 l 1,18,-1
 205 288 l 1,19,-1
 205 92 l 1,8,-1
EndSplineSet
Substitution2: "Single Substitution lookup 57 subtable" Edotaccent.swsh.001
Substitution2: "Single Substitution lookup 56 subtable" Edotaccent.swsh
AlternateSubs2: "'swsh' Swash lookup 33 subtable" Edotaccent.swsh Edotaccent.swsh.001
Substitution2: "'c2sc' Capitals to Small Capitals lookup 11 subtable" edotaccent.sc
AlternateSubs2: "'aalt' Access All Alternates lookup 1 subtable" edotaccent.sc Edotaccent.swsh Edotaccent.swsh.001
EndChar

StartChar: edotaccent
Encoding: 279 279 211
Width: 581
GlyphClass: 2
Flags: W
AnchorPoint: "Anchor-0" 302 0 basechar 0
LayerCount: 2
Fore
SplineSet
295 586 m 128,-1,1
 263 586 263 586 244.5 603.5 c 128,-1,2
 226 621 226 621 226 652 c 128,-1,3
 226 683 226 683 244.5 700.5 c 128,-1,4
 263 718 263 718 295 718 c 128,-1,5
 327 718 327 718 346 700.5 c 128,-1,6
 365 683 365 683 365 652 c 128,-1,7
 365 621 365 621 346 603.5 c 128,-1,0
 327 586 327 586 295 586 c 128,-1,1
530 265 m 0,8,9
 530 236 530 236 526 210 c 1,10,-1
 160 210 l 1,11,12
 169 144 169 144 207 109.5 c 128,-1,13
 245 75 245 75 305 75 c 0,14,15
 406 75 406 75 431 143 c 1,16,-1
 520 106 l 1,17,18
 464 -10 464 -10 305 -10 c 0,19,20
 187 -10 187 -10 120.5 59 c 128,-1,21
 54 128 54 128 54 250 c 0,22,23
 54 373 54 373 118 441.5 c 128,-1,24
 182 510 182 510 298 510 c 0,25,26
 408 510 408 510 469 443 c 128,-1,27
 530 376 530 376 530 265 c 0,8,9
298 425 m 0,28,29
 179 425 179 425 160 292 c 1,30,-1
 430 292 l 1,31,32
 422 355 422 355 387.5 390 c 128,-1,33
 353 425 353 425 298 425 c 0,28,29
EndSplineSet
Substitution2: "'smcp' Lowercase to Small Capitals lookup 12 subtable" edotaccent.sc
Substitution2: "'aalt' Access All Alternates lookup 0 subtable" edotaccent.sc
EndChar

StartChar: Eogonek
Encoding: 280 280 212
Width: 636
GlyphClass: 2
Flags: W
AnchorPoint: "Anchor-0" 337 0 basechar 0
LayerCount: 2
Fore
SplineSet
583 -134 m 1,0,-1
 601 -195 l 1,1,2
 571 -215 571 -215 512 -215 c 0,3,4
 455 -215 455 -215 421 -188 c 128,-1,5
 387 -161 387 -161 387 -113 c 0,6,7
 387 -38 387 -38 473 0 c 1,8,-1
 98 0 l 1,9,-1
 98 660 l 1,10,-1
 576 660 l 1,11,-1
 576 568 l 1,12,-1
 205 568 l 1,13,-1
 205 378 l 1,14,-1
 495 378 l 1,15,-1
 495 288 l 1,16,-1
 205 288 l 1,17,-1
 205 92 l 1,18,-1
 590 92 l 1,19,-1
 590 0 l 1,20,-1
 591 0 l 1,21,22
 521 -20 521 -20 494.5 -43.5 c 128,-1,23
 468 -67 468 -67 468 -97 c 0,24,25
 468 -120 468 -120 484.5 -133 c 128,-1,26
 501 -146 501 -146 530 -146 c 0,27,28
 565 -146 565 -146 583 -134 c 1,0,-1
EndSplineSet
Substitution2: "'c2sc' Capitals to Small Capitals lookup 11 subtable" eogonek.sc
Substitution2: "'aalt' Access All Alternates lookup 0 subtable" eogonek.sc
EndChar

StartChar: eogonek
Encoding: 281 281 213
Width: 581
GlyphClass: 2
Flags: W
AnchorPoint: "Anchor-0" 302 0 basechar 0
LayerCount: 2
Fore
SplineSet
530 265 m 0,0,1
 530 236 530 236 526 210 c 1,2,-1
 160 210 l 1,3,4
 169 144 169 144 207 109.5 c 128,-1,5
 245 75 245 75 305 75 c 0,6,7
 406 75 406 75 431 143 c 1,8,-1
 520 106 l 1,9,10
 481 27 481 27 396 2 c 1,11,12
 313 -48 313 -48 313 -93 c 0,13,14
 313 -118 313 -118 329.5 -132 c 128,-1,15
 346 -146 346 -146 374 -146 c 0,16,17
 408 -146 408 -146 426 -135 c 1,18,-1
 444 -196 l 1,19,20
 412 -215 412 -215 356 -215 c 128,-1,21
 300 -215 300 -215 265.5 -186.5 c 128,-1,22
 231 -158 231 -158 231 -110 c 0,23,24
 231 -53 231 -53 287 -10 c 1,25,26
 177 -4 177 -4 115.5 64 c 128,-1,27
 54 132 54 132 54 250 c 0,28,29
 54 373 54 373 118 441.5 c 128,-1,30
 182 510 182 510 298 510 c 0,31,32
 408 510 408 510 469 443 c 128,-1,33
 530 376 530 376 530 265 c 0,0,1
298 425 m 0,34,35
 179 425 179 425 160 292 c 1,36,-1
 430 292 l 1,37,38
 422 355 422 355 387.5 390 c 128,-1,39
 353 425 353 425 298 425 c 0,34,35
EndSplineSet
Substitution2: "'smcp' Lowercase to Small Capitals lookup 12 subtable" eogonek.sc
Substitution2: "'aalt' Access All Alternates lookup 0 subtable" eogonek.sc
EndChar

StartChar: Ecaron
Encoding: 282 282 214
Width: 636
GlyphClass: 2
Flags: W
AnchorPoint: "Anchor-0" 337 0 basechar 0
LayerCount: 2
Fore
SplineSet
389 733 m 1,0,-1
 277 733 l 1,1,-1
 164 900 l 1,2,-1
 253 900 l 1,3,-1
 333 793 l 1,4,-1
 413 900 l 1,5,-1
 502 900 l 1,6,-1
 389 733 l 1,0,-1
205 92 m 1,7,-1
 590 92 l 1,8,-1
 590 0 l 1,9,-1
 98 0 l 1,10,-1
 98 660 l 1,11,-1
 576 660 l 1,12,-1
 576 568 l 1,13,-1
 205 568 l 1,14,-1
 205 378 l 1,15,-1
 495 378 l 1,16,-1
 495 288 l 1,17,-1
 205 288 l 1,18,-1
 205 92 l 1,7,-1
EndSplineSet
Substitution2: "Single Substitution lookup 57 subtable" Ecaron.swsh.001
Substitution2: "Single Substitution lookup 56 subtable" Ecaron.swsh
AlternateSubs2: "'swsh' Swash lookup 33 subtable" Ecaron.swsh Ecaron.swsh.001
Substitution2: "'c2sc' Capitals to Small Capitals lookup 11 subtable" ecaron.sc
AlternateSubs2: "'aalt' Access All Alternates lookup 1 subtable" ecaron.sc Ecaron.swsh Ecaron.swsh.001
EndChar

StartChar: ecaron
Encoding: 283 283 215
Width: 581
GlyphClass: 2
Flags: W
AnchorPoint: "Anchor-0" 302 0 basechar 0
LayerCount: 2
Fore
SplineSet
351 578 m 1,0,-1
 237 578 l 1,1,-1
 126 746 l 1,2,-1
 214 746 l 1,3,-1
 294 643 l 1,4,-1
 374 746 l 1,5,-1
 462 746 l 1,6,-1
 351 578 l 1,0,-1
530 265 m 0,7,8
 530 236 530 236 526 210 c 1,9,-1
 160 210 l 1,10,11
 169 144 169 144 207 109.5 c 128,-1,12
 245 75 245 75 305 75 c 0,13,14
 406 75 406 75 431 143 c 1,15,-1
 520 106 l 1,16,17
 464 -10 464 -10 305 -10 c 0,18,19
 187 -10 187 -10 120.5 59 c 128,-1,20
 54 128 54 128 54 250 c 0,21,22
 54 373 54 373 118 441.5 c 128,-1,23
 182 510 182 510 298 510 c 0,24,25
 408 510 408 510 469 443 c 128,-1,26
 530 376 530 376 530 265 c 0,7,8
298 425 m 0,27,28
 179 425 179 425 160 292 c 1,29,-1
 430 292 l 1,30,31
 422 355 422 355 387.5 390 c 128,-1,32
 353 425 353 425 298 425 c 0,27,28
EndSplineSet
Substitution2: "'smcp' Lowercase to Small Capitals lookup 12 subtable" ecaron.sc
Substitution2: "'aalt' Access All Alternates lookup 0 subtable" ecaron.sc
EndChar

StartChar: Gbreve
Encoding: 286 286 216
Width: 724
GlyphClass: 2
Flags: W
AnchorPoint: "Anchor-0" 400 0 basechar 0
LayerCount: 2
Fore
SplineSet
371 730 m 128,-1,1
 301 730 301 730 259 772 c 128,-1,2
 217 814 217 814 217 883 c 1,3,-1
 296 883 l 1,4,5
 296 849 296 849 317 825 c 128,-1,6
 338 801 338 801 371 801 c 128,-1,7
 404 801 404 801 425 825 c 128,-1,8
 446 849 446 849 446 883 c 1,9,-1
 525 883 l 1,10,11
 525 814 525 814 483 772 c 128,-1,0
 441 730 441 730 371 730 c 128,-1,1
354 341 m 1,12,-1
 651 341 l 1,13,-1
 651 0 l 1,14,-1
 572 0 l 1,15,-1
 569 84 l 1,16,17
 508 -10 508 -10 367 -10 c 0,18,19
 227 -10 227 -10 144 81 c 128,-1,20
 61 172 61 172 61 330 c 0,21,22
 61 487 61 487 146.5 578.5 c 128,-1,23
 232 670 232 670 375 670 c 0,24,25
 477 670 477 670 543 632 c 128,-1,26
 609 594 609 594 647 514 c 1,27,-1
 549 467 l 1,28,29
 530 521 530 521 485 549 c 128,-1,30
 440 577 440 577 377 577 c 0,31,32
 283 577 283 577 228 512 c 128,-1,33
 173 447 173 447 173 330 c 0,34,35
 173 211 173 211 225.5 146.5 c 128,-1,36
 278 82 278 82 379 82 c 0,37,38
 458 82 458 82 507 121 c 128,-1,39
 556 160 556 160 556 234 c 2,40,-1
 556 253 l 1,41,-1
 354 253 l 1,42,-1
 354 341 l 1,12,-1
EndSplineSet
Substitution2: "'ss04' Style Set 4 lookup 50 subtable" Gbreve.ss04
Substitution2: "'salt' Stylistic Alternatives lookup 42 subtable" Gbreve.ss04
Substitution2: "'c2sc' Capitals to Small Capitals lookup 11 subtable" gbreve.sc
AlternateSubs2: "'aalt' Access All Alternates lookup 1 subtable" gbreve.sc Gbreve.ss04
EndChar

